<svg width="12" height="12" viewBox="0 0 12 12" fill="none" xmlns="http://www.w3.org/2000/svg">
<path d="M0.75 4.13672C0.75 4.00391 0.783203 3.88086 0.849609 3.76758C0.916016 3.65039 1.00586 3.55859 1.11914 3.49219L5.625 0.855469C5.74219 0.785156 5.86914 0.75 6.00586 0.75C6.14258 0.75 6.26953 0.785156 6.38672 0.855469L10.8926 3.49219C11.0059 3.55859 11.0957 3.65039 11.1621 3.76758C11.2285 3.88477 11.2617 4.00977 11.2617 4.14258C11.2617 4.27539 11.2285 4.40039 11.1621 4.51758C11.0957 4.63086 11.0059 4.7207 10.8926 4.78711L6.38672 7.41211C6.33203 7.44336 6.27148 7.46875 6.20508 7.48828C6.14258 7.50781 6.07812 7.51758 6.01172 7.51758C5.875 7.51758 5.74805 7.48242 5.63086 7.41211L1.125 4.78711C1.01172 4.7207 0.919922 4.62891 0.849609 4.51172C0.783203 4.39453 0.75 4.26953 0.75 4.13672ZM6.01172 6.64453C6.14844 6.64453 6.27344 6.61133 6.38672 6.54492L10.5117 4.13672L6.38672 1.72266C6.26953 1.65234 6.14258 1.61719 6.00586 1.61719C5.86914 1.61719 5.74219 1.65234 5.625 1.72266L1.5 4.13672L5.63086 6.54492C5.68555 6.57617 5.74609 6.60156 5.8125 6.62109C5.87891 6.63672 5.94531 6.64453 6.01172 6.64453ZM0.75 6.04688C0.75 5.94141 0.769531 5.84375 0.808594 5.75391L5.63672 8.47266C5.74609 8.53516 5.86914 8.56641 6.00586 8.56641C6.14258 8.56641 6.26562 8.53516 6.375 8.47266L11.2031 5.75391C11.2422 5.84375 11.2617 5.94141 11.2617 6.04688C11.2617 6.17969 11.2285 6.30469 11.1621 6.42188C11.0957 6.53906 11.0059 6.63086 10.8926 6.69727L6.38672 9.32227C6.33203 9.35352 6.27148 9.37891 6.20508 9.39844C6.14258 9.41797 6.07812 9.42773 6.01172 9.42773C5.875 9.42773 5.74805 9.39258 5.63086 9.32227L1.125 6.69727C1.01172 6.63086 0.919922 6.53906 0.849609 6.42188C0.783203 6.30469 0.75 6.17969 0.75 6.04688ZM0.75 7.88672C0.75 7.78125 0.769531 7.68359 0.808594 7.59375L5.63672 10.3066C5.74609 10.3691 5.86914 10.4004 6.00586 10.4004C6.14258 10.4004 6.26562 10.3691 6.375 10.3066L11.2031 7.59375C11.2422 7.68359 11.2617 7.78125 11.2617 7.88672C11.2617 8.01953 11.2285 8.14453 11.1621 8.26172C11.0957 8.37891 11.0059 8.4707 10.8926 8.53711L6.38672 11.1621C6.33203 11.1934 6.27148 11.2188 6.20508 11.2383C6.14258 11.2578 6.07812 11.2676 6.01172 11.2676C5.875 11.2676 5.74805 11.2324 5.63086 11.1621L1.125 8.53711C1.01172 8.4707 0.919922 8.37891 0.849609 8.26172C0.783203 8.14453 0.75 8.01953 0.75 7.88672Z" fill="black" fill-opacity="0.8956"/>
</svg>
