<svg width="24" height="24" viewBox="0 0 24 24" fill="none" xmlns="http://www.w3.org/2000/svg">
<g clip-path="url(#clip0_6094_101405)">
<path d="M21.661 17.8625C21.3413 18.0301 21.0115 18.1777 20.6735 18.3045C19.5971 18.707 18.4571 18.9123 17.3079 18.9105C12.8715 18.9105 9.00697 15.8587 9.00697 11.9427C9.01274 11.4178 9.15849 10.904 9.42919 10.4543C9.69989 10.0045 10.0857 9.63521 10.5468 9.3844C6.5348 9.5526 5.50342 13.7344 5.50342 16.1841C5.50342 23.1097 11.8868 23.8126 13.2622 23.8126C14.1217 23.779 14.9734 23.6354 15.7964 23.3852C15.8374 23.3715 15.8784 23.3577 15.9192 23.3437C18.5022 22.45 20.7038 20.7035 22.1619 18.3918C22.2059 18.3211 22.2252 18.2378 22.2168 18.155C22.2085 18.0721 22.1729 17.9944 22.1156 17.9339C22.0584 17.8734 21.9828 17.8336 21.9005 17.8207C21.8182 17.8078 21.734 17.8225 21.661 17.8625Z" fill="url(#paint0_linear_6094_101405)"/>
<path opacity="0.35" d="M21.661 17.8625C21.3413 18.0301 21.0115 18.1777 20.6735 18.3045C19.5971 18.707 18.4571 18.9123 17.3079 18.9105C12.8715 18.9105 9.00697 15.8587 9.00697 11.9427C9.01274 11.4178 9.15849 10.904 9.42919 10.4543C9.69989 10.0045 10.0857 9.63521 10.5468 9.3844C6.5348 9.5526 5.50342 13.7344 5.50342 16.1841C5.50342 23.1097 11.8868 23.8126 13.2622 23.8126C14.1217 23.779 14.9734 23.6354 15.7964 23.3852C15.8374 23.3715 15.8784 23.3577 15.9192 23.3437C18.5022 22.45 20.7038 20.7035 22.1619 18.3918C22.2059 18.3211 22.2252 18.2378 22.2168 18.155C22.2085 18.0721 22.1729 17.9944 22.1156 17.9339C22.0584 17.8734 21.9828 17.8336 21.9005 17.8207C21.8182 17.8078 21.734 17.8225 21.661 17.8625Z" fill="url(#paint1_radial_6094_101405)"/>
<path d="M9.90996 22.6325C9.0735 22.1126 8.34894 21.4314 7.77854 20.6285C7.12916 19.7369 6.68247 18.7141 6.46976 17.6318C6.25704 16.5495 6.28343 15.4337 6.54708 14.3626C6.81074 13.2916 7.30528 12.2911 7.9961 11.4311C8.68692 10.5712 9.55732 9.87266 10.5464 9.38435C10.9946 9.14252 11.4946 9.01268 12.0038 9.0059C12.4717 9.00904 12.9325 9.12037 13.3503 9.33118C13.768 9.54199 14.1313 9.84658 14.4118 10.2211C14.7905 10.7266 14.9992 11.3391 15.0078 11.9706C15.0081 11.9509 17.3013 4.50769 7.50322 4.50769C3.38826 4.50769 -0.000455763 8.4142 -0.000455763 11.8404C-0.0172167 13.6541 0.370784 15.4487 1.13528 17.0935C2.38416 19.7559 4.56685 21.8672 7.26925 23.027C9.97166 24.1867 13.0058 24.3142 15.7959 23.3852C14.8188 23.693 13.7865 23.7851 12.7703 23.6551C11.7541 23.5252 10.7782 23.1763 9.90996 22.6325Z" fill="url(#paint2_linear_6094_101405)"/>
<path opacity="0.41" d="M9.90996 22.6325C9.0735 22.1126 8.34894 21.4314 7.77854 20.6285C7.12916 19.7369 6.68247 18.7141 6.46976 17.6318C6.25704 16.5495 6.28343 15.4337 6.54708 14.3626C6.81074 13.2916 7.30528 12.2911 7.9961 11.4311C8.68692 10.5712 9.55732 9.87266 10.5464 9.38435C10.9946 9.14252 11.4946 9.01268 12.0038 9.0059C12.4717 9.00904 12.9325 9.12037 13.3503 9.33118C13.768 9.54199 14.1313 9.84658 14.4118 10.2211C14.7905 10.7266 14.9992 11.3391 15.0078 11.9706C15.0081 11.9509 17.3013 4.50769 7.50322 4.50769C3.38826 4.50769 -0.000455763 8.4142 -0.000455763 11.8404C-0.0172167 13.6541 0.370784 15.4487 1.13528 17.0935C2.38416 19.7559 4.56685 21.8672 7.26925 23.027C9.97166 24.1867 13.0058 24.3142 15.7959 23.3852C14.8188 23.693 13.7865 23.7851 12.7703 23.6551C11.7541 23.5252 10.7782 23.1763 9.90996 22.6325Z" fill="url(#paint3_radial_6094_101405)"/>
<path d="M14.2799 13.9554C14.2039 14.0538 13.9702 14.1895 13.9702 14.4864C13.9837 14.6267 14.0311 14.7616 14.1082 14.8796C14.1853 14.9975 14.2898 15.0951 14.4128 15.1638C15.761 16.1047 18.3021 15.9779 18.3089 15.9779C19.3083 15.9746 20.2884 15.703 21.147 15.1916C22.0134 14.6858 22.7325 13.9623 23.233 13.0927C23.7334 12.2232 23.9978 11.238 23.9999 10.2347C24.0108 8.79316 23.6444 7.37379 22.9371 6.11759C20.9502 2.23462 16.6615 1.58534e-07 11.9984 1.58534e-07C8.84496 -0.000512138 5.81817 1.2406 3.57289 3.45479C1.32762 5.66897 0.0444282 8.67817 0.000976562 11.8313C0.0455416 8.40538 3.45039 5.63893 7.49778 5.63893C8.86484 5.65299 10.211 5.97582 11.4358 6.58332C12.6515 7.18696 13.6588 8.14061 14.328 9.32154C14.7734 10.1762 15.0074 11.1252 15.0105 12.0889C14.962 12.7708 14.7072 13.4218 14.2799 13.9554Z" fill="url(#paint4_radial_6094_101405)"/>
<path d="M14.2799 13.9554C14.2039 14.0538 13.9702 14.1895 13.9702 14.4864C13.9837 14.6267 14.0311 14.7616 14.1082 14.8796C14.1853 14.9975 14.2898 15.0951 14.4128 15.1638C15.761 16.1047 18.3021 15.9779 18.3089 15.9779C19.3083 15.9746 20.2884 15.703 21.147 15.1916C22.0134 14.6858 22.7325 13.9623 23.233 13.0927C23.7334 12.2232 23.9978 11.238 23.9999 10.2347C24.0108 8.79316 23.6444 7.37379 22.9371 6.11759C20.9502 2.23462 16.6615 1.58534e-07 11.9984 1.58534e-07C8.84496 -0.000512138 5.81817 1.2406 3.57289 3.45479C1.32762 5.66897 0.0444282 8.67817 0.000976562 11.8313C0.0455416 8.40538 3.45039 5.63893 7.49778 5.63893C8.86484 5.65299 10.211 5.97582 11.4358 6.58332C12.6515 7.18696 13.6588 8.14061 14.328 9.32154C14.7734 10.1762 15.0074 11.1252 15.0105 12.0889C14.962 12.7708 14.7072 13.4218 14.2799 13.9554Z" fill="url(#paint5_radial_6094_101405)"/>
</g>
<defs>
<linearGradient id="paint0_linear_6094_101405" x1="5.50342" y1="16.5985" x2="22.2223" y2="16.5985" gradientUnits="userSpaceOnUse">
<stop stop-color="#0C59A4"/>
<stop offset="1" stop-color="#114A8B"/>
</linearGradient>
<radialGradient id="paint1_radial_6094_101405" cx="0" cy="0" r="1" gradientUnits="userSpaceOnUse" gradientTransform="translate(14.7379 16.7234) scale(8.94225 8.5047)">
<stop offset="0.71659" stop-opacity="0"/>
<stop offset="0.9459" stop-opacity="0.53"/>
<stop offset="1"/>
</radialGradient>
<linearGradient id="paint2_linear_6094_101405" x1="14.3173" y1="9.3453" x2="3.87404" y2="20.7205" gradientUnits="userSpaceOnUse">
<stop stop-color="#1B9DE2"/>
<stop offset="0.16164" stop-color="#1595DF"/>
<stop offset="0.66749" stop-color="#0680D7"/>
<stop offset="1" stop-color="#0078D4"/>
</linearGradient>
<radialGradient id="paint3_radial_6094_101405" cx="0" cy="0" r="1" gradientTransform="matrix(1.99317 -13.2796 -10.7008 -1.60603 6.68437 18.6247)" gradientUnits="userSpaceOnUse">
<stop offset="0.76293" stop-opacity="0"/>
<stop offset="0.9459" stop-opacity="0.5"/>
<stop offset="1"/>
</radialGradient>
<radialGradient id="paint4_radial_6094_101405" cx="0" cy="0" r="1" gradientTransform="matrix(-0.705031 18.9648 40.3919 1.50172 2.36609 4.38801)" gradientUnits="userSpaceOnUse">
<stop stop-color="#35C1F1"/>
<stop offset="0.11079" stop-color="#34C1ED"/>
<stop offset="0.23164" stop-color="#2FC2DF"/>
<stop offset="0.31446" stop-color="#2BC3D2"/>
<stop offset="0.67338" stop-color="#36C752"/>
</radialGradient>
<radialGradient id="paint5_radial_6094_101405" cx="0" cy="0" r="1" gradientTransform="matrix(2.56507 8.75749 7.15005 -2.09419 22.732 7.27263)" gradientUnits="userSpaceOnUse">
<stop stop-color="#66EB6E"/>
<stop offset="1" stop-color="#66EB6E" stop-opacity="0"/>
</radialGradient>
<clipPath id="clip0_6094_101405">
<rect width="24" height="24" fill="white"/>
</clipPath>
</defs>
</svg>
