<svg width="256" height="256" viewBox="0 0 256 256" fill="none" xmlns="http://www.w3.org/2000/svg">
<path d="M17 63C17 50.8497 26.8497 41 39 41H193C218.405 41 239 61.5949 239 87V193C239 205.15 229.15 215 217 215H63C37.5949 215 17 194.405 17 169V63Z" fill="url(#paint0_linear_8754_88519)"/>
<path d="M22 63C22 53.6112 29.6112 46 39 46H193C215.644 46 234 64.3563 234 87V193C234 202.389 226.389 210 217 210H63C40.3563 210 22 191.644 22 169V63Z" fill="url(#paint1_linear_8754_88519)"/>
<path d="M22 63C22 53.6112 29.6112 46 39 46H193C215.644 46 234 64.3563 234 87V193C234 202.389 226.389 210 217 210H63C40.3563 210 22 191.644 22 169V63Z" fill="url(#paint2_radial_8754_88519)"/>
<path d="M176 178C176 183.523 171.523 188 166 188H122V166C122 148.327 107.673 134 90 134H80V103C80 94.7157 86.7157 88 95 88H176V178Z" fill="url(#paint3_radial_8754_88519)"/>
<path d="M176 178C176 183.523 171.523 188 166 188H122V166C122 148.327 107.673 134 90 134H80V103C80 94.7157 86.7157 88 95 88H176V178Z" fill="url(#paint4_radial_8754_88519)" fill-opacity="0.7"/>
<path d="M136.84 107.998C131.871 108.564 128 112.78 128 117.912V137.998C128 143.521 123.523 147.998 118 147.998H116.459C110.699 139.548 100.998 134 90 134H80V122.998C80 114.714 86.7157 107.998 95 107.998H136.84ZM144 107.998H136.84C137.251 107.951 137.67 107.926 138.095 107.931L144 107.998Z" fill="url(#paint5_linear_8754_88519)"/>
<path d="M136.84 107.998C131.871 108.564 128 112.78 128 117.912V137.998C128 143.521 123.523 147.998 118 147.998H116.459C110.699 139.548 100.998 134 90 134H80V122.998C80 114.714 86.7157 107.998 95 107.998H136.84ZM144 107.998H136.84C137.251 107.951 137.67 107.926 138.095 107.931L144 107.998Z" fill="url(#paint6_linear_8754_88519)" fill-opacity="0.3"/>
<path d="M80 88C80 76.9543 88.9543 68 100 68H140V108H100C88.9543 108 80 116.954 80 128V88Z" fill="url(#paint7_linear_8754_88519)"/>
<path d="M80 88C80 76.9543 88.9543 68 100 68H140V108H100C88.9543 108 80 116.954 80 128V88Z" fill="url(#paint8_radial_8754_88519)"/>
<path d="M80 88C80 76.9543 88.9543 68 100 68H140V108H100C88.9543 108 80 116.954 80 128V88Z" fill="url(#paint9_linear_8754_88519)"/>
<rect width="48" height="40" rx="10" transform="matrix(-1 0 0 1 176 68)" fill="url(#paint10_radial_8754_88519)"/>
<rect x="10" y="142" width="104" height="104" rx="24" fill="url(#paint11_radial_8754_88519)"/>
<rect x="10" y="142" width="104" height="104" rx="24" fill="url(#paint12_radial_8754_88519)" fill-opacity="0.3"/>
<path d="M87.7812 221.998H72.6641L63.1719 204.151C62.8333 203.527 62.5729 203.032 62.3906 202.668C62.2344 202.277 62.0651 201.834 61.8828 201.34H61.7266C61.4922 201.965 61.2708 202.472 61.0625 202.863C60.8542 203.253 60.6068 203.735 60.3203 204.308L50.4766 221.998H36.2188L53.3281 193.959L37.3906 165.998H52.3125L60.75 181.931C61.0885 182.582 61.375 183.155 61.6094 183.649C61.8698 184.118 62.1302 184.678 62.3906 185.329H62.5469C62.9115 184.574 63.1979 183.975 63.4062 183.532C63.6406 183.09 63.9531 182.504 64.3438 181.775L73.0938 165.998H87.3125L71.1406 193.529L87.7812 221.998Z" fill="white"/>
<defs>
<linearGradient id="paint0_linear_8754_88519" x1="88.6875" y1="41" x2="107.174" y2="217.901" gradientUnits="userSpaceOnUse">
<stop stop-color="#BBBBBB"/>
<stop offset="1" stop-color="#888888"/>
</linearGradient>
<linearGradient id="paint1_linear_8754_88519" x1="80.8889" y1="46" x2="97.0369" y2="212.994" gradientUnits="userSpaceOnUse">
<stop stop-color="white"/>
<stop offset="1" stop-color="#EBEBEB"/>
</linearGradient>
<radialGradient id="paint2_radial_8754_88519" cx="0" cy="0" r="1" gradientTransform="matrix(111.889 129.833 -167.833 48.6875 89.7222 88.7083)" gradientUnits="userSpaceOnUse">
<stop offset="0.177083" stop-color="white"/>
<stop offset="1" stop-color="#EFEFEF"/>
</radialGradient>
<radialGradient id="paint3_radial_8754_88519" cx="0" cy="0" r="1" gradientTransform="matrix(-90.6667 -102.778 76.3958 -73.0965 176 196.333)" gradientUnits="userSpaceOnUse">
<stop offset="0.0647233" stop-color="#379539"/>
<stop offset="0.422149" stop-color="#297C2D"/>
<stop offset="0.703448" stop-color="#15561C"/>
</radialGradient>
<radialGradient id="paint4_radial_8754_88519" cx="0" cy="0" r="1" gradientTransform="matrix(-38.3333 -39.9306 29.6813 -30.9053 109.333 124.111)" gradientUnits="userSpaceOnUse">
<stop stop-color="#073B10"/>
<stop offset="0.992234" stop-color="#084A13" stop-opacity="0"/>
</radialGradient>
<linearGradient id="paint5_linear_8754_88519" x1="80" y1="152.871" x2="129.013" y2="152.871" gradientUnits="userSpaceOnUse">
<stop stop-color="#52D17C"/>
<stop offset="0.328512" stop-color="#4AA647"/>
</linearGradient>
<linearGradient id="paint6_linear_8754_88519" x1="128" y1="107.761" x2="128" y2="170.427" gradientUnits="userSpaceOnUse">
<stop stop-color="#29852F"/>
<stop offset="0.499968" stop-color="#4AA647" stop-opacity="0"/>
</linearGradient>
<linearGradient id="paint7_linear_8754_88519" x1="82.21" y1="116.632" x2="137.648" y2="68.5494" gradientUnits="userSpaceOnUse">
<stop stop-color="#66D052"/>
<stop offset="1" stop-color="#85E972"/>
</linearGradient>
<radialGradient id="paint8_radial_8754_88519" cx="0" cy="0" r="1" gradientUnits="userSpaceOnUse" gradientTransform="translate(137.84 93.5446) rotate(-180) scale(30.0628 63.6467)">
<stop offset="0.292495" stop-color="#4EB43B"/>
<stop offset="1" stop-color="#72CC61" stop-opacity="0"/>
</radialGradient>
<linearGradient id="paint9_linear_8754_88519" x1="107.049" y1="95.9742" x2="80" y2="95.9742" gradientUnits="userSpaceOnUse">
<stop offset="0.183694" stop-color="#C0E075" stop-opacity="0"/>
<stop offset="1" stop-color="#D1EB95"/>
</linearGradient>
<radialGradient id="paint10_radial_8754_88519" cx="0" cy="0" r="1" gradientTransform="matrix(54.115 -45.598 -44.382 -55.5976 -6.11501 45.598)" gradientUnits="userSpaceOnUse">
<stop offset="0.439983" stop-color="#79E96D"/>
<stop offset="1" stop-color="#D0EB76"/>
</radialGradient>
<radialGradient id="paint11_radial_8754_88519" cx="0" cy="0" r="1" gradientUnits="userSpaceOnUse" gradientTransform="translate(10 142) rotate(45) scale(147.078 418.691)">
<stop stop-color="#20A85E"/>
<stop offset="0.94375" stop-color="#09442A"/>
</radialGradient>
<radialGradient id="paint12_radial_8754_88519" cx="0" cy="0" r="1" gradientUnits="userSpaceOnUse" gradientTransform="translate(62 204.4) rotate(90) scale(72.8 83.85)">
<stop offset="0.580357" stop-color="#33A662" stop-opacity="0"/>
<stop offset="0.973806" stop-color="#98F0B0"/>
</radialGradient>
</defs>
</svg>
