<svg width="257" height="256" viewBox="0 0 257 256" fill="none" xmlns="http://www.w3.org/2000/svg">
<path d="M32.25 77.998C32.25 61.4295 45.6815 47.998 62.25 47.998H224.25V227.998C224.25 239.044 215.296 247.998 204.25 247.998H72.25C50.1586 247.998 32.25 230.089 32.25 207.998V77.998Z" fill="url(#paint0_radial_182_7627)"/>
<path d="M32.25 77.998C32.25 61.4295 45.6815 47.998 62.25 47.998H224.25V227.998C224.25 239.044 215.296 247.998 204.25 247.998H72.25C50.1586 247.998 32.25 230.089 32.25 207.998V77.998Z" fill="url(#paint1_radial_182_7627)" fill-opacity="0.7"/>
<path d="M32.25 117.998C32.25 101.43 45.6815 87.998 62.25 87.998H160.25L148.44 87.864C137.327 87.7378 128.25 96.7121 128.25 107.826V147.998C128.25 159.044 119.296 167.998 108.25 167.998H72.25C50.1586 167.998 32.25 185.907 32.25 207.998V117.998Z" fill="url(#paint2_linear_182_7627)"/>
<path d="M32.25 117.998C32.25 101.43 45.6815 87.998 62.25 87.998H160.25L148.44 87.864C137.327 87.7378 128.25 96.7121 128.25 107.826V147.998C128.25 159.044 119.296 167.998 108.25 167.998H72.25C50.1586 167.998 32.25 185.907 32.25 207.998V117.998Z" fill="url(#paint3_linear_182_7627)" fill-opacity="0.3"/>
<path d="M32.25 47.998C32.25 25.9067 50.1586 7.99805 72.25 7.99805H152.25V87.998H72.25C50.1586 87.998 32.25 105.907 32.25 127.998V47.998Z" fill="url(#paint4_linear_182_7627)"/>
<path d="M32.25 47.998C32.25 25.9067 50.1586 7.99805 72.25 7.99805H152.25V87.998H72.25C50.1586 87.998 32.25 105.907 32.25 127.998V47.998Z" fill="url(#paint5_radial_182_7627)"/>
<path d="M32.25 47.998C32.25 25.9067 50.1586 7.99805 72.25 7.99805H152.25V87.998H72.25C50.1586 87.998 32.25 105.907 32.25 127.998V47.998Z" fill="url(#paint6_linear_182_7627)"/>
<rect width="96" height="80" rx="20" transform="matrix(-1 0 0 1 224.25 7.99805)" fill="url(#paint7_radial_182_7627)"/>
<rect x="0.25" y="119.998" width="104" height="104" rx="21" fill="url(#paint8_radial_182_7627)"/>
<rect x="0.25" y="119.998" width="104" height="104" rx="21" fill="url(#paint9_radial_182_7627)" fill-opacity="0.3"/>
<path d="M78.0312 199.998H62.9141L53.4219 182.151C53.0833 181.527 52.8229 181.032 52.6406 180.668C52.4844 180.277 52.3151 179.834 52.1328 179.34H51.9766C51.7422 179.965 51.5208 180.472 51.3125 180.863C51.1042 181.253 50.8568 181.735 50.5703 182.308L40.7266 199.998H26.4688L43.5781 171.959L27.6406 143.998H42.5625L51 159.931C51.3385 160.582 51.625 161.155 51.8594 161.649C52.1198 162.118 52.3802 162.678 52.6406 163.329H52.7969C53.1615 162.574 53.4479 161.975 53.6562 161.532C53.8906 161.09 54.2031 160.504 54.5938 159.775L63.3438 143.998H77.5625L61.3906 171.529L78.0312 199.998Z" fill="white"/>
<defs>
<radialGradient id="paint0_radial_182_7627" cx="0" cy="0" r="1" gradientTransform="matrix(-181.333 -205.556 152.792 -146.193 224.25 264.665)" gradientUnits="userSpaceOnUse">
<stop offset="0.0647233" stop-color="#379539"/>
<stop offset="0.422149" stop-color="#297C2D"/>
<stop offset="0.703448" stop-color="#15561C"/>
</radialGradient>
<radialGradient id="paint1_radial_182_7627" cx="0" cy="0" r="1" gradientTransform="matrix(-76.6667 -79.8611 59.3626 -61.8106 90.9167 120.22)" gradientUnits="userSpaceOnUse">
<stop stop-color="#073B10"/>
<stop offset="0.992234" stop-color="#084A13" stop-opacity="0"/>
</radialGradient>
<linearGradient id="paint2_linear_182_7627" x1="32.25" y1="147.816" x2="130.275" y2="147.816" gradientUnits="userSpaceOnUse">
<stop stop-color="#52D17C"/>
<stop offset="0.328512" stop-color="#4AA647"/>
</linearGradient>
<linearGradient id="paint3_linear_182_7627" x1="128.25" y1="87.6348" x2="128.25" y2="171.239" gradientUnits="userSpaceOnUse">
<stop stop-color="#29852F"/>
<stop offset="0.499968" stop-color="#4AA647" stop-opacity="0"/>
</linearGradient>
<linearGradient id="paint4_linear_182_7627" x1="36.6701" y1="105.261" x2="147.546" y2="9.09691" gradientUnits="userSpaceOnUse">
<stop stop-color="#66D052"/>
<stop offset="1" stop-color="#85E972"/>
</linearGradient>
<radialGradient id="paint5_radial_182_7627" cx="0" cy="0" r="1" gradientUnits="userSpaceOnUse" gradientTransform="translate(147.93 59.0872) rotate(-180) scale(60.1255 127.293)">
<stop offset="0.292495" stop-color="#4EB43B"/>
<stop offset="1" stop-color="#72CC61" stop-opacity="0"/>
</radialGradient>
<linearGradient id="paint6_linear_182_7627" x1="86.3477" y1="63.9464" x2="32.25" y2="63.9464" gradientUnits="userSpaceOnUse">
<stop offset="0.183694" stop-color="#C0E075" stop-opacity="0"/>
<stop offset="1" stop-color="#D1EB95"/>
</linearGradient>
<radialGradient id="paint7_radial_182_7627" cx="0" cy="0" r="1" gradientTransform="matrix(108.23 -91.1959 -88.7641 -111.195 -12.23 91.1959)" gradientUnits="userSpaceOnUse">
<stop offset="0.439983" stop-color="#79E96D"/>
<stop offset="1" stop-color="#D0EB76"/>
</radialGradient>
<radialGradient id="paint8_radial_182_7627" cx="0" cy="0" r="1" gradientUnits="userSpaceOnUse" gradientTransform="translate(0.25 119.998) rotate(45) scale(147.078 418.691)">
<stop stop-color="#20A85E"/>
<stop offset="0.94375" stop-color="#09442A"/>
</radialGradient>
<radialGradient id="paint9_radial_182_7627" cx="0" cy="0" r="1" gradientUnits="userSpaceOnUse" gradientTransform="translate(52.25 182.398) rotate(90) scale(72.8 83.85)">
<stop offset="0.580357" stop-color="#33A662" stop-opacity="0"/>
<stop offset="0.973806" stop-color="#98F0B0"/>
</radialGradient>
</defs>
</svg>
