<svg width="256" height="256" viewBox="0 0 256 256" fill="none" xmlns="http://www.w3.org/2000/svg">
<path d="M240 74V198C240 203.523 235.523 208 230 208H26C20.477 208 16 203.523 16 198V58C16 52.477 20.477 48 26 48H95.716C101.02 48.0001 106.107 50.1073 109.858 53.858L120 64H230C235.523 64 240 68.477 240 74Z" fill="#FFB900"/>
<rect x="24" y="72" width="208" height="128" rx="2" fill="white"/>
<path d="M16 80V198C16 203.523 20.477 208 26 208H230C235.523 208 240 203.523 240 198V74C240 68.477 235.523 64 230 64H120L109.858 74.142C106.107 77.8927 101.02 79.9999 95.716 80H16Z" fill="#FFD75E"/>
<path d="M16 80V198C16 203.523 20.477 208 26 208H230C235.523 208 240 203.523 240 198V74C240 68.477 235.523 64 230 64H120L109.858 74.142C106.107 77.8927 101.02 79.9999 95.716 80H16Z" fill="url(#paint0_linear_254652_2907)"/>
<path d="M232 206H23.9998C21.8372 206 19.7336 205.295 18.0078 203.992C19.8318 206.422 22.7278 208 25.9998 208H230C233.272 208 236.168 206.421 237.992 203.992C236.266 205.295 234.162 206 232 206Z" fill="#BF5712"/>
<path opacity="0.4" d="M120 64L109.858 74.142C106.107 77.8927 101.02 79.9999 95.716 80H16V82H96.302C101.872 82 107.212 79.788 111.151 75.85L123 64H120Z" fill="white"/>
<defs>
<linearGradient id="paint0_linear_254652_2907" x1="16" y1="64" x2="16" y2="208" gradientUnits="userSpaceOnUse">
<stop stop-color="white" stop-opacity="0.01"/>
<stop offset="0.999" stop-color="#FFD75E" stop-opacity="0.3"/>
</linearGradient>
</defs>
</svg>
