<svg width="48" height="48" viewBox="0 0 48 48" fill="none" xmlns="http://www.w3.org/2000/svg">
<rect x="0.958333" y="0.958333" width="46.0833" height="46.0833" rx="6.70833" fill="#261300" stroke="#FF8812" stroke-width="1.91667"/>
<path d="M28.8544 32H25.679L24.1095 27.5593H17.2477L15.7391 32H12.5758L19.1091 14.5535H22.3697L28.8544 32ZM23.343 25.199L20.9219 18.2399C20.8489 18.0128 20.7719 17.6478 20.6908 17.1449H20.6421C20.5691 17.6072 20.488 17.9722 20.3988 18.2399L18.002 25.199H23.343ZM32.3704 16.9259C31.9081 16.9259 31.5107 16.7759 31.1781 16.4757C30.8537 16.1756 30.6915 15.7944 30.6915 15.3321C30.6915 14.8698 30.8537 14.4845 31.1781 14.1763C31.5107 13.8681 31.9081 13.714 32.3704 13.714C32.849 13.714 33.2545 13.8681 33.5871 14.1763C33.9196 14.4845 34.0859 14.8698 34.0859 15.3321C34.0859 15.7701 33.9196 16.1473 33.5871 16.4636C33.2545 16.7718 32.849 16.9259 32.3704 16.9259ZM33.7696 32H30.947V19.5417H33.7696V32Z" fill="#FF8812"/>
</svg>
