<?xml version="1.0" encoding="UTF-8"?>
<svg id="Layer_2" data-name="Layer 2" xmlns="http://www.w3.org/2000/svg" viewBox="0 0 383.52 471.52">
  <defs>
    <style>
      .cls-1 {
        fill: #fd9800;
      }

      .cls-2 {
        fill: #fcfbfb;
      }

      .cls-3 {
        fill: #fd9900;
      }

      .cls-4 {
        fill: #360404;
      }

      .cls-5 {
        fill: #fe9900;
      }

      .cls-6 {
        fill: #300;
      }

      .cls-7 {
        fill: #350200;
      }
    </style>
  </defs>
  <g id="PSD_Icon" data-name="PSD Icon">
    <g id="cXjjCv.tif">
      <g>
        <path class="cls-5" d="M273.17,0c9.66,1.74,18.66,5.11,26.2,11.5,14.05,11.9,28.19,27.82,41.45,40.95,10.04,9.95,22.67,20.54,31.73,31.19,6.18,7.26,9.29,15.95,10.97,25.24v321.16c-3.54,22.49-21.39,39.55-44.2,41.45l-295.13.03c-23.92-1.85-43.04-21.13-44.19-45.2L.03,44.71C1.14,28.63,9.95,14.12,23.98,6.23c5.69-3.2,11.25-4.59,17.49-6.23h231.7ZM44.86,16.13c-13.35,1.24-25.23,11.16-28.13,24.31-1.22,129.87-1.22,260.25,0,390.12,3.18,14.06,15.13,23.91,29.46,24.98h291.16c15.73-1.13,28.66-12.89,30.21-28.72V111.61c-.81-10.28-6.36-16.83-13.24-23.72-10.6-10.62-21.76-20.94-32.48-31.44-10.82-10.59-22.16-23.79-33.69-33.23-5.12-4.19-12.12-6.83-18.71-7.26l-224.58.17Z"/>
        <path class="cls-6" d="M44.86,16.13l224.58-.17c6.59.43,13.59,3.07,18.71,7.26,11.53,9.45,22.87,22.64,33.69,33.23,10.72,10.5,21.88,20.82,32.48,31.44,6.88,6.89,12.43,13.44,13.24,23.72v315.2c-1.55,15.83-14.48,27.59-30.21,28.72H46.19c-14.33-1.06-26.28-10.92-29.46-24.98-1.22-129.87-1.22-260.25,0-390.12,2.9-13.15,14.78-23.07,28.13-24.31ZM261.07,87.05c-22.75,2.71-21.85,40.56,6.3,37.27,21.45-2.51,20.8-40.5-6.3-37.27ZM202.51,256.23h32.96c.39,0,.96-1.16.74-1.69l-55.41-155.4-39.23-.27-1.49.5c-1.06,5.19-.54,10.33-2.59,15.39l-47.95,137.84c-.21,1.23-.49,2.77.63,3.63h29.96c.19,0,1.25-.76,1.47-1.02l11.74-35.71,55.5.07,12.03,35.32c.27.51,1.16,1.24,1.65,1.35ZM247.95,136.86l-1.02,1.47-.11,116.04.88,1.62h31.46c.24-.12,1.01-.92,1.01-1v-117.38l-.75-.75h-31.46ZM151.32,403.57h10.99l4.94-19.19,20.01-.27,5.01,19.46h11.98l-20.7-69.46-13.75.04-18.48,69.42ZM225.73,334.15h-11.49v69.43h11.49v-69.43Z"/>
        <path class="cls-3" d="M202.51,256.23c-.49-.1-1.38-.84-1.65-1.35l-12.03-35.32-55.5-.07-11.74,35.71c-.22.26-1.29,1.02-1.47,1.02h-29.96c-1.12-.86-.84-2.4-.63-3.63l47.95-137.84c2.05-5.06,1.53-10.2,2.59-15.39l1.49-.5,39.23.27,55.41,155.4c.22.53-.36,1.69-.74,1.69h-32.96ZM142.34,188.8h36.95l-18.72-60.94-18.23,60.94Z"/>
        <path class="cls-3" d="M247.95,136.86h31.46l.75.75v117.38c0,.09-.77.88-1.01.99h-31.46s-.88-1.6-.88-1.6l.11-116.04,1.02-1.47Z"/>
        <path class="cls-2" d="M151.32,403.57l18.48-69.42,13.75-.04,20.7,69.46h-11.98l-5.01-19.46-20.01.27-4.94,19.19h-10.99ZM184.28,374.1l-7.48-28.47-6.5,28.47h13.98Z"/>
        <path class="cls-1" d="M261.07,87.05c27.09-3.23,27.75,34.76,6.3,37.27-28.15,3.29-29.04-34.56-6.3-37.27Z"/>
        <rect class="cls-2" x="214.24" y="334.15" width="11.49" height="69.43"/>
        <polygon class="cls-7" points="142.34 188.8 160.57 127.86 179.29 188.8 142.34 188.8"/>
        <polygon class="cls-4" points="184.28 374.1 170.3 374.1 176.8 345.63 184.28 374.1"/>
      </g>
    </g>
  </g>
</svg>