<svg width="256" height="256" viewBox="0 0 256 256" fill="none" xmlns="http://www.w3.org/2000/svg">
<path opacity="0.67" d="M74 24C68.4772 24 64 28.4772 64 34V89.2688C61.2287 90.0708 58.5571 91.0834 56 92.2865V34C56 24.0589 64.0589 16 74 16H214C223.941 16 232 24.0589 232 34V222C232 231.941 223.941 240 214 240H74C64.0589 240 56 231.941 56 222V199H64V222C64 227.523 68.4772 232 74 232H214C219.523 232 224 227.523 224 222V34C224 28.4772 219.523 24 214 24H74Z" fill="#605E5C"/>
<path d="M64 34C64 28.4772 68.4772 24 74 24H214C219.523 24 224 28.4772 224 34V222C224 227.523 219.523 232 214 232H74C68.4772 232 64 227.523 64 222V199H79.7488C106.442 199 129.861 180.344 134.9 154.135C136.721 145.074 136.276 135.704 133.602 126.857C130.928 118.01 126.109 109.961 119.574 103.426C113.039 96.8905 104.99 92.0718 96.1431 89.398C87.2962 86.7243 77.9255 86.2785 68.8647 88.1003C67.2122 88.418 65.5897 88.8088 64 89.2688V34Z" fill="white"/>
<path d="M134.9 154.135C136.721 145.074 136.276 135.704 133.602 126.857C130.928 118.01 126.109 109.961 119.574 103.426C113.039 96.8905 104.99 92.0718 96.1431 89.398C87.2962 86.7243 77.9255 86.2785 68.8647 88.1003C42.6557 93.139 24 116.558 24 143.251V199L25.8493 198.959L26.9511 198.896C28.3527 198.792 29.7469 198.605 31.1264 198.336C39.3518 196.745 46.7685 192.344 52.107 185.887C57.4455 179.431 60.3739 171.319 60.3909 162.941V143.28C60.3365 139.379 61.4469 135.552 63.58 132.286C65.7131 129.02 68.7719 126.465 72.3652 124.947C75.9585 123.429 79.9228 123.018 83.7512 123.765C87.5796 124.513 91.0979 126.386 93.8561 129.144C96.6143 131.902 98.487 135.42 99.2347 139.249C99.9823 143.077 99.5709 147.042 98.0531 150.635C96.5353 154.228 93.9801 157.287 90.7143 159.42C87.4485 161.553 83.6206 162.663 79.7203 162.609H67.3844C67.388 169.84 65.5833 176.958 62.1344 183.313C58.6856 189.669 53.7021 195.062 47.6375 199H79.7488C106.442 199 129.861 180.344 134.9 154.135Z" fill="#9354FF"/>
<path d="M132.875 189H203.492C205.977 189 207.992 186.985 207.992 184.5C207.992 182.015 205.977 180 203.492 180H139.558C137.57 183.191 135.332 186.198 132.875 189Z" fill="#8230FF"/>
<path d="M146.852 164H203.504C205.989 164 208.004 161.985 208.004 159.5C208.004 157.015 205.989 155 203.504 155H148.98C148.874 155.614 148.76 156.226 148.637 156.838C148.166 159.281 147.568 161.67 146.852 164Z" fill="#9354FF"/>
<path d="M149.878 139H203.546C206.032 139 208.046 136.985 208.046 134.5C208.046 132.015 206.032 130 203.546 130H148.766C149.331 132.976 149.702 135.983 149.878 139Z" fill="#AB85FF"/>
<path d="M143.681 114H203.55C206.035 114 208.05 111.985 208.05 109.5C208.05 107.015 206.035 105 203.55 105H138.75C140.61 107.873 142.258 110.881 143.681 114Z" fill="#C2AAFE"/>
</svg>
