<svg width="12" height="12" viewBox="0 0 12 12" fill="none" xmlns="http://www.w3.org/2000/svg">
<path d="M11.959 1.92773C11.959 2.20898 11.9062 2.48242 11.8008 2.74805C11.6953 3.00977 11.543 3.24023 11.3438 3.43945L3.85547 10.9277C3.80859 10.9746 3.75391 11.0137 3.69141 11.0449C3.63281 11.0762 3.57031 11.1016 3.50391 11.1211L0.603516 11.8477C0.564453 11.8555 0.535156 11.8594 0.515625 11.8594C0.414062 11.8594 0.326172 11.8242 0.251953 11.7539C0.177734 11.6797 0.140625 11.5918 0.140625 11.4902C0.140625 11.4668 0.144531 11.4355 0.152344 11.3965L0.878906 8.49609C0.898438 8.42969 0.923828 8.36719 0.955078 8.30859C0.986328 8.24609 1.02539 8.19141 1.07227 8.14453L8.64258 0.574219C8.82617 0.390625 9.03906 0.25 9.28125 0.152344C9.52734 0.0507813 9.7793 0 10.0371 0C10.3066 0 10.5586 0.0507813 10.793 0.152344C11.0273 0.25 11.2305 0.386719 11.4023 0.5625C11.5781 0.734375 11.7148 0.9375 11.8125 1.17188C11.9102 1.40625 11.959 1.6582 11.959 1.92773ZM11.209 1.95117C11.209 1.7832 11.1797 1.62695 11.1211 1.48242C11.0664 1.33398 10.9863 1.20508 10.8809 1.0957C10.7793 0.986328 10.6562 0.902344 10.5117 0.84375C10.3672 0.78125 10.209 0.75 10.0371 0.75C9.88867 0.75 9.75781 0.771484 9.64453 0.814453C9.53125 0.853516 9.42578 0.908203 9.32812 0.978516C9.23438 1.04883 9.14453 1.12891 9.05859 1.21875C8.97266 1.30859 8.88086 1.40234 8.7832 1.5L10.5 3.2168C10.5977 3.12305 10.6895 3.03125 10.7754 2.94141C10.8613 2.85156 10.9355 2.75781 10.998 2.66016C11.0645 2.5625 11.1152 2.45703 11.1504 2.34375C11.1895 2.23047 11.209 2.09961 11.209 1.95117ZM1.03125 10.9688L3.32227 10.3945L9.97266 3.74414L8.25586 2.02734L1.60547 8.67773L1.03125 10.9688Z" fill="black" fill-opacity="0.8956"/>
</svg>
