<svg width="16" height="14" viewBox="0 0 16 14" fill="none" xmlns="http://www.w3.org/2000/svg">
<path d="M2.44531 14C2.11719 14 1.80469 13.9349 1.50781 13.8047C1.21094 13.6693 0.950521 13.4922 0.726562 13.2734C0.507812 13.0495 0.330729 12.7891 0.195312 12.4922C0.0651042 12.1953 0 11.8828 0 11.5547V2.44531C0 2.11719 0.0651042 1.80469 0.195312 1.50781C0.330729 1.21094 0.507812 0.953125 0.726562 0.734375C0.950521 0.510417 1.21094 0.333333 1.50781 0.203125C1.80469 0.0677083 2.11719 0 2.44531 0H5.5C5.85938 0 6.16667 0.0572917 6.42188 0.171875C6.68229 0.28125 6.91667 0.429688 7.125 0.617188C7.33333 0.804688 7.52604 1.01823 7.70312 1.25781C7.88021 1.4974 8.0625 1.74479 8.25 2H12.5391C12.862 2 13.1719 2.0651 13.4688 2.19531C13.7656 2.32552 14.026 2.5026 14.25 2.72656C14.474 2.94531 14.6536 3.20052 14.7891 3.49219C14.9245 3.78385 14.9948 4.09115 15 4.41406C15.2448 4.60677 15.4349 4.84115 15.5703 5.11719C15.7057 5.39323 15.7734 5.6875 15.7734 6C15.7734 6.04688 15.7734 6.09375 15.7734 6.14062C15.7734 6.18229 15.7682 6.22656 15.7578 6.27344L14.9844 11.8438C14.9427 12.1406 14.849 12.4219 14.7031 12.6875C14.5573 12.9479 14.375 13.1771 14.1562 13.375C13.9375 13.5677 13.6901 13.7214 13.4141 13.8359C13.138 13.9453 12.849 14 12.5469 14H2.44531ZM13.9141 4.00781C13.862 3.85677 13.7891 3.72135 13.6953 3.60156C13.6016 3.47656 13.4922 3.36979 13.3672 3.28125C13.2422 3.19271 13.1068 3.125 12.9609 3.07812C12.8151 3.02604 12.6615 3 12.5 3H7.75L6.70312 1.60156C6.5625 1.41406 6.38542 1.26823 6.17188 1.16406C5.95833 1.05469 5.73438 1 5.5 1H2.5C2.29688 1 2.10417 1.03906 1.92188 1.11719C1.73958 1.19531 1.57812 1.30469 1.4375 1.44531C1.30208 1.58073 1.19531 1.73958 1.11719 1.92188C1.03906 2.10417 1 2.29688 1 2.5V11.5C1 11.5312 1 11.5625 1 11.5938C1.00521 11.6198 1.00781 11.6484 1.00781 11.6797L2.26562 5.59375C2.3125 5.36458 2.39583 5.15365 2.51562 4.96094C2.64062 4.76302 2.78906 4.59375 2.96094 4.45312C3.13802 4.3125 3.33333 4.20312 3.54688 4.125C3.76562 4.04167 3.99219 4 4.22656 4H13.7812C13.8073 4 13.8281 4 13.8438 4C13.8646 4 13.888 4.0026 13.9141 4.00781ZM12.5078 13C12.6953 13 12.8724 12.9688 13.0391 12.9062C13.2109 12.8385 13.362 12.7474 13.4922 12.6328C13.6276 12.513 13.737 12.375 13.8203 12.2188C13.9089 12.0625 13.9661 11.8906 13.9922 11.7031L14.7656 6.14062C14.7708 6.11458 14.7734 6.09115 14.7734 6.07031C14.7734 6.04948 14.7734 6.02604 14.7734 6C14.7734 5.86458 14.7474 5.73698 14.6953 5.61719C14.6432 5.49219 14.5729 5.38542 14.4844 5.29688C14.3958 5.20312 14.2917 5.13021 14.1719 5.07812C14.0521 5.02604 13.9219 5 13.7812 5H4.22656C4.10677 5 3.99219 5.02083 3.88281 5.0625C3.77865 5.09896 3.68229 5.15365 3.59375 5.22656C3.50521 5.29427 3.42969 5.3776 3.36719 5.47656C3.30469 5.57552 3.26302 5.68229 3.24219 5.79688L1.79688 12.8203C2.02083 12.9401 2.25521 13 2.5 13H12.5078Z" fill="black" fill-opacity="0.8956"/>
</svg>
