<svg width="256" height="256" viewBox="0 0 256 256" fill="none" xmlns="http://www.w3.org/2000/svg">
<path d="M52 232H204C206.206 232 208 230.206 208 228V72H172C165.383 72 160 66.617 160 60V24H52C49.794 24 48 25.794 48 28V228C48 230.206 49.794 232 52 232Z" fill="white"/>
<path d="M204.344 64.0002L168 27.6572V60.0002C168 62.2062 169.794 64.0002 172 64.0002H204.344Z" fill="white"/>
<path opacity="0.67" fill-rule="evenodd" clip-rule="evenodd" d="M216 68C215.997 67.4086 215.862 66.8253 215.604 66.293C215.073 64.2249 213.995 62.3375 212.485 60.828L171.172 19.516C168.927 17.2573 165.871 15.9911 162.686 16H52C45.383 16 40 21.383 40 28V228C40 234.617 45.383 240 52 240H204C210.617 240 216 234.617 216 228V69.314C216 69.029 215.98 68.7476 215.96 68.4663V68.4662L215.957 68.428C215.962 68.3825 215.968 68.3374 215.974 68.2923C215.987 68.1961 216 68.1002 216 68ZM204.344 64H172C169.794 64 168 62.206 168 60V27.657L204.344 64ZM52 232H204C206.206 232 208 230.206 208 228V72H172C165.383 72 160 66.617 160 60V24H52C49.794 24 48 25.794 48 28V228C48 230.206 49.794 232 52 232Z" fill="#605E5C"/>
<path fill-rule="evenodd" clip-rule="evenodd" d="M188 101H68C65.7909 101 64 99.2091 64 97C64 94.7909 65.7909 93 68 93H188C190.209 93 192 94.7909 192 97C192 99.2091 190.209 101 188 101ZM188 117H68C65.7909 117 64 115.209 64 113C64 110.791 65.7909 109 68 109H188C190.209 109 192 110.791 192 113C192 115.209 190.209 117 188 117Z" fill="#C8C6C4"/>
<path d="M127.78 95.53H128.72C128.737 95.53 128.75 95.5166 128.75 95.5C128.75 95.4834 128.737 95.47 128.72 95.47H127.78C127.763 95.47 127.75 95.4834 127.75 95.5C127.75 95.5166 127.763 95.53 127.78 95.53Z" fill="#D2D0CE"/>
<path fill-rule="evenodd" clip-rule="evenodd" d="M188 134H68C65.7909 134 64 132.209 64 130C64 127.791 65.7909 126 68 126H188C190.209 126 192 127.791 192 130C192 132.209 190.209 134 188 134ZM188 150H68C65.7909 150 64 148.209 64 146C64 143.791 65.7909 142 68 142H188C190.209 142 192 143.791 192 146C192 148.209 190.209 150 188 150Z" fill="#C8C6C4"/>
<path d="M127.78 128.53H128.72C128.737 128.53 128.75 128.517 128.75 128.5C128.75 128.483 128.737 128.47 128.72 128.47H127.78C127.763 128.47 127.75 128.483 127.75 128.5C127.75 128.517 127.763 128.53 127.78 128.53Z" fill="#D2D0CE"/>
<path fill-rule="evenodd" clip-rule="evenodd" d="M159 220H97C92.589 220 89 216.411 89 212V171C89 166.589 92.589 163 97 163H159C163.411 163 167 166.589 167 171V212C167 216.411 163.411 220 159 220ZM82.003 168.118L39.116 168C36.907 167.994 35.111 169.705 35.105 171.822L35 210.035C34.994 212.152 36.78 213.873 38.99 213.879L81.997 213.998C82.2628 213.999 82.5179 213.894 82.7061 213.706C82.8942 213.519 83 213.264 83 212.998V169.118C83 168.567 82.5541 168.12 82.003 168.118ZM173.997 213.882L216.883 214H216.884C219.093 214.006 220.888 212.295 220.894 210.178L221 171.965C221.005 169.848 219.22 168.127 217.01 168.121L174.003 168.002C173.737 168.001 173.482 168.106 173.294 168.294C173.106 168.481 173 168.736 173 169.002V212.882C173 213.433 173.446 213.88 173.997 213.882ZM97 210V173C97 171.895 97.8954 171 99 171H157C158.105 171 159 171.895 159 173L159.005 210C159.005 211.105 158.11 212 157.005 212H99C97.8954 212 97 211.105 97 210Z" fill="#D65532"/>
</svg>
