<svg width="20" height="20" viewBox="0 0 20 20" fill="none" xmlns="http://www.w3.org/2000/svg">
<g filter="url(#filter0_dd_5287_187255)">
<path d="M17 16.5H7C6.86739 16.5 6.74021 16.4473 6.64645 16.3536C6.55268 16.2598 6.5 16.1326 6.5 16V2C6.5 1.86739 6.55268 1.74021 6.64645 1.64645C6.74021 1.55268 6.86739 1.5 7 1.5H14.293C14.4254 1.50003 14.5523 1.55253 14.646 1.646L17.354 4.354C17.4475 4.44771 17.5 4.57465 17.5 4.707V16C17.5 16.1326 17.4473 16.2598 17.3536 16.3536C17.2598 16.4473 17.1326 16.5 17 16.5Z" fill="#FAFAFA"/>
<path d="M17 17H7C6.73478 17 6.48043 16.8946 6.29289 16.7071C6.10536 16.5196 6 16.2652 6 16V2C6 1.73479 6.10536 1.48043 6.29289 1.2929C6.48043 1.10536 6.73478 1 7 1H14.293C14.4244 0.999648 14.5545 1.02536 14.6759 1.07566C14.7972 1.12595 14.9074 1.19983 15 1.293L17.707 4C17.8002 4.09261 17.8741 4.20278 17.9243 4.32414C17.9746 4.4455 18.0004 4.57564 18 4.707V16C18 16.2652 17.8946 16.5196 17.7071 16.7071C17.5196 16.8946 17.2652 17 17 17ZM7 2V16H17V4.707L14.293 2H7Z" fill="#797774"/>
<path d="M17.5 5H15C14.7348 5 14.4804 4.89464 14.2929 4.70711C14.1054 4.51957 14 4.26522 14 4V1.5H15V4H17.5V5Z" fill="#797774"/>
<path d="M13 10V7C12.4067 7 11.8266 7.17595 11.3333 7.50559C10.8399 7.83524 10.4554 8.30377 10.2284 8.85195C10.0013 9.40013 9.94189 10.0033 10.0576 10.5853C10.1734 11.1672 10.4591 11.7018 10.8787 12.1213C11.2982 12.5409 11.8328 12.8266 12.4147 12.9424C12.9967 13.0581 13.5999 12.9987 14.1481 12.7716C14.6962 12.5446 15.1648 12.1601 15.4944 11.6667C15.8241 11.1734 16 10.5933 16 10H13Z" fill="#ED6C47"/>
<path d="M14 6V9H17C17 8.20435 16.6839 7.44129 16.1213 6.87868C15.5587 6.31607 14.7956 6 14 6Z" fill="#FF8F6B"/>
<path d="M13 7C12.2044 7 11.4413 7.31607 10.8787 7.87868C10.3161 8.44129 10 9.20435 10 10H13V7Z" fill="#FF8F6B"/>
<path d="M12 6H11V14H12V6Z" fill="#FAFAFA"/>
<path d="M10.1 5H2.9C2.40294 5 2 5.40294 2 5.9V13.1C2 13.5971 2.40294 14 2.9 14H10.1C10.5971 14 11 13.5971 11 13.1V5.9C11 5.40294 10.5971 5 10.1 5Z" fill="#C43E1C"/>
<path d="M6.887 6.99652C7.35485 6.96487 7.81787 7.10734 8.187 7.39652C8.34241 7.54535 8.46333 7.72643 8.54125 7.92701C8.61917 8.12759 8.65219 8.34281 8.638 8.55752C8.64328 8.86167 8.56623 9.16159 8.415 9.42552C8.26528 9.68006 8.04461 9.88544 7.78 10.0165C7.48389 10.1624 7.157 10.2347 6.827 10.2275H5.927V11.9965H5V6.99652H6.887ZM5.925 9.46552H6.725C6.97804 9.48298 7.22827 9.40362 7.425 9.24352C7.50825 9.15866 7.5726 9.05713 7.61379 8.94562C7.65498 8.8341 7.67209 8.71513 7.664 8.59652C7.664 8.04652 7.36 7.77119 6.752 7.77052H5.925V9.46552Z" fill="white"/>
<path opacity="0.5" d="M14 6V9H17C17 8.20435 16.6839 7.44129 16.1213 6.87868C15.5587 6.31607 14.7956 6 14 6Z" fill="white"/>
</g>
<defs>
<filter id="filter0_dd_5287_187255" x="0.2" y="5.96046e-08" width="19.6" height="19.6" filterUnits="userSpaceOnUse" color-interpolation-filters="sRGB">
<feFlood flood-opacity="0" result="BackgroundImageFix"/>
<feColorMatrix in="SourceAlpha" type="matrix" values="0 0 0 0 0 0 0 0 0 0 0 0 0 0 0 0 0 0 127 0" result="hardAlpha"/>
<feOffset dy="0.15"/>
<feGaussianBlur stdDeviation="0.225"/>
<feColorMatrix type="matrix" values="0 0 0 0 0 0 0 0 0 0 0 0 0 0 0 0 0 0 0.11 0"/>
<feBlend mode="normal" in2="BackgroundImageFix" result="effect1_dropShadow_5287_187255"/>
<feColorMatrix in="SourceAlpha" type="matrix" values="0 0 0 0 0 0 0 0 0 0 0 0 0 0 0 0 0 0 127 0" result="hardAlpha"/>
<feOffset dy="0.8"/>
<feGaussianBlur stdDeviation="0.9"/>
<feColorMatrix type="matrix" values="0 0 0 0 0 0 0 0 0 0 0 0 0 0 0 0 0 0 0.13 0"/>
<feBlend mode="normal" in2="effect1_dropShadow_5287_187255" result="effect2_dropShadow_5287_187255"/>
<feBlend mode="normal" in="SourceGraphic" in2="effect2_dropShadow_5287_187255" result="shape"/>
</filter>
</defs>
</svg>
