<svg width="256" height="256" viewBox="0 0 256 256" fill="none" xmlns="http://www.w3.org/2000/svg">
<path d="M17 63C17 50.8497 26.8497 41 39 41H193C218.405 41 239 61.5949 239 87V193C239 205.15 229.15 215 217 215H63C37.5949 215 17 194.405 17 169V63Z" fill="url(#paint0_linear_8754_86139)"/>
<path d="M22 63C22 53.6112 29.6112 46 39 46H193C215.644 46 234 64.3563 234 87V193C234 202.389 226.389 210 217 210H63C40.3563 210 22 191.644 22 169V63Z" fill="url(#paint1_linear_8754_86139)"/>
<path d="M22 63C22 53.6112 29.6112 46 39 46H193C215.644 46 234 64.3563 234 87V193C234 202.389 226.389 210 217 210H63C40.3563 210 22 191.644 22 169V63Z" fill="url(#paint2_radial_8754_86139)"/>
<path d="M127.997 71C159.476 71 184.994 96.5206 184.994 128.002C184.994 159.483 159.476 185.005 127.997 185.005C125.972 185.005 123.971 184.898 122 184.691V166C122 148.327 107.673 134 90 134H71.3125C71.1064 132.029 71 130.028 71 128.002C71.0001 96.5206 96.5185 71 127.997 71Z" fill="url(#paint3_linear_8754_86139)"/>
<path d="M127.997 71C159.476 71 184.994 96.5206 184.994 128.002C184.994 159.483 159.476 185.005 127.997 185.005C125.972 185.005 123.971 184.898 122 184.691V166C122 148.327 107.673 134 90 134H71.3125C71.1064 132.029 71 130.028 71 128.002C71.0001 96.5206 96.5185 71 127.997 71Z" fill="url(#paint4_radial_8754_86139)"/>
<path d="M127.997 71C159.476 71 184.994 96.5206 184.994 128.002C184.994 159.483 159.476 185.005 127.997 185.005C125.972 185.005 123.971 184.898 122 184.691V166C122 148.327 107.673 134 90 134H71.3125C71.1064 132.029 71 130.028 71 128.002C71.0001 96.5206 96.5185 71 127.997 71Z" fill="url(#paint5_radial_8754_86139)" fill-opacity="0.5"/>
<path d="M128.003 71C159.481 71 185 96.5206 185 128.002C185 138.488 182.168 148.312 177.229 156.753L178.169 154.667C183.811 142.142 174.644 127.968 160.906 127.979L138.22 127.995C132.58 127.999 128.006 123.428 128.006 117.788L128.005 95.0615C128.005 81.3194 113.816 72.1622 101.294 77.8232L99.4717 78.6475V78.6445C107.863 73.7828 117.608 71.0001 128.003 71Z" fill="url(#paint6_radial_8754_86139)"/>
<path d="M128.003 71C159.481 71 185 96.5206 185 128.002C185 138.488 182.168 148.312 177.229 156.753L178.169 154.667C183.811 142.142 174.644 127.968 160.906 127.979L138.22 127.995C132.58 127.999 128.006 123.428 128.006 117.788L128.005 95.0615C128.005 81.3194 113.816 72.1622 101.294 77.8232L99.4717 78.6475V78.6445C107.863 73.7828 117.608 71.0001 128.003 71Z" fill="url(#paint7_radial_8754_86139)"/>
<rect x="10" y="142" width="104" height="104" rx="24" fill="url(#paint8_radial_8754_86139)"/>
<rect x="10" y="142" width="104" height="104" rx="24" fill="url(#paint9_radial_8754_86139)" fill-opacity="0.3"/>
<path d="M58.1484 203.761V221.998H45.5312V165.998H65.0234C72.0026 165.998 77.3151 167.521 80.9609 170.567C84.6328 173.613 86.4688 178.13 86.4688 184.118C86.4688 190.288 84.4115 195.105 80.2969 198.567C76.2083 202.03 70.7135 203.761 63.8125 203.761H58.1484ZM58.1484 175.683V194.076H63.4219C66.5469 194.076 68.9557 193.256 70.6484 191.616C72.3411 189.976 73.1875 187.62 73.1875 184.548C73.1875 181.71 72.3542 179.523 70.6875 177.987C69.0469 176.451 66.6901 175.683 63.6172 175.683H58.1484Z" fill="white"/>
<defs>
<linearGradient id="paint0_linear_8754_86139" x1="88.6875" y1="41" x2="107.174" y2="217.901" gradientUnits="userSpaceOnUse">
<stop stop-color="#BBBBBB"/>
<stop offset="1" stop-color="#888888"/>
</linearGradient>
<linearGradient id="paint1_linear_8754_86139" x1="80.8889" y1="46" x2="97.0369" y2="212.994" gradientUnits="userSpaceOnUse">
<stop stop-color="white"/>
<stop offset="1" stop-color="#EBEBEB"/>
</linearGradient>
<radialGradient id="paint2_radial_8754_86139" cx="0" cy="0" r="1" gradientTransform="matrix(111.889 129.833 -167.833 48.6875 89.7222 88.7083)" gradientUnits="userSpaceOnUse">
<stop offset="0.177083" stop-color="white"/>
<stop offset="1" stop-color="#EFEFEF"/>
</radialGradient>
<linearGradient id="paint3_linear_8754_86139" x1="122.214" y1="67.3709" x2="52.3749" y2="134.183" gradientUnits="userSpaceOnUse">
<stop offset="0.0582736" stop-color="#FF7F48"/>
<stop offset="1" stop-color="#E5495B"/>
</linearGradient>
<radialGradient id="paint4_radial_8754_86139" cx="0" cy="0" r="1" gradientUnits="userSpaceOnUse" gradientTransform="translate(150.528 104.079) rotate(135) scale(114.446 192.628)">
<stop offset="0.151523" stop-color="#AA1D2D"/>
<stop offset="0.380855" stop-color="#D12B18" stop-opacity="0.44"/>
<stop offset="0.601996" stop-color="#FF3C00" stop-opacity="0"/>
</radialGradient>
<radialGradient id="paint5_radial_8754_86139" cx="0" cy="0" r="1" gradientUnits="userSpaceOnUse" gradientTransform="translate(51.1051 174.337) rotate(-25.2832) scale(108.489 196.544)">
<stop offset="0.4067" stop-color="#FF66FB"/>
<stop offset="1" stop-color="#EA3D01" stop-opacity="0"/>
</radialGradient>
<radialGradient id="paint6_radial_8754_86139" cx="0" cy="0" r="1" gradientTransform="matrix(52.1152 -59.6913 55.6221 46.3209 121.632 135.876)" gradientUnits="userSpaceOnUse">
<stop stop-color="#FD6EF9"/>
<stop offset="0.637205" stop-color="#FF9944"/>
<stop offset="0.85186" stop-color="#FCC479"/>
</radialGradient>
<radialGradient id="paint7_radial_8754_86139" cx="0" cy="0" r="1" gradientTransform="matrix(-5.88676 39.9069 -90.2412 -12.6972 116.447 78.5365)" gradientUnits="userSpaceOnUse">
<stop offset="0.144283" stop-color="#FF8D13"/>
<stop offset="0.537266" stop-color="#FF7F29" stop-opacity="0"/>
</radialGradient>
<radialGradient id="paint8_radial_8754_86139" cx="0" cy="0" r="1" gradientUnits="userSpaceOnUse" gradientTransform="translate(9.9873 142) rotate(45) scale(147.078)">
<stop stop-color="#F8193E"/>
<stop offset="0.939062" stop-color="#920616"/>
</radialGradient>
<radialGradient id="paint9_radial_8754_86139" cx="0" cy="0" r="1" gradientUnits="userSpaceOnUse" gradientTransform="translate(61.9873 204.4) rotate(90) scale(72.8 82.875)">
<stop offset="0.575893" stop-color="#FFB055" stop-opacity="0"/>
<stop offset="0.973806" stop-color="#FFF2BE"/>
</radialGradient>
</defs>
</svg>
