<svg width="12" height="11" viewBox="0 0 12 11" fill="none" xmlns="http://www.w3.org/2000/svg">
<path d="M9.79688 0.5C10.0898 0.5 10.3691 0.560547 10.6348 0.681641C10.9043 0.798828 11.1387 0.958984 11.3379 1.16211C11.541 1.36133 11.7012 1.5957 11.8184 1.86523C11.9395 2.13086 12 2.41016 12 2.70312V7.29688C12 7.58984 11.9395 7.87109 11.8184 8.14062C11.7012 8.40625 11.541 8.64062 11.3379 8.84375C11.1387 9.04297 10.9043 9.20312 10.6348 9.32422C10.3691 9.44141 10.0898 9.5 9.79688 9.5H7.10156L6.35156 8.75H9.7793C9.97461 8.75 10.1602 8.71094 10.3359 8.63281C10.5156 8.55078 10.6719 8.44336 10.8047 8.31055C10.9414 8.17383 11.0488 8.01758 11.127 7.8418C11.209 7.66211 11.25 7.47461 11.25 7.2793V2.7207C11.25 2.52539 11.209 2.33984 11.127 2.16406C11.0488 1.98438 10.9414 1.82812 10.8047 1.69531C10.6719 1.55859 10.5156 1.45117 10.3359 1.37305C10.1602 1.29102 9.97461 1.25 9.7793 1.25H2.2207C2.01758 1.25 1.82617 1.29102 1.64648 1.37305C1.4707 1.45508 1.31641 1.56445 1.18359 1.70117C1.05078 1.83789 0.945312 1.99805 0.867188 2.18164C0.789062 2.36133 0.75 2.55078 0.75 2.75V3.8457C0.476562 4.01367 0.226563 4.2207 0 4.4668V2.70312C0 2.41016 0.0585938 2.13086 0.175781 1.86523C0.296875 1.5957 0.457031 1.36133 0.65625 1.16211C0.859375 0.958984 1.09375 0.798828 1.35938 0.681641C1.62891 0.560547 1.91016 0.5 2.20312 0.5H9.79688ZM9.375 3.5C9.47656 3.5 9.56445 3.53711 9.63867 3.61133C9.71289 3.68555 9.75 3.77344 9.75 3.875C9.75 3.97656 9.71289 4.06445 9.63867 4.13867C9.56445 4.21289 9.47656 4.25 9.375 4.25H5.0332C4.66211 3.91016 4.24023 3.66016 3.76758 3.5H9.375ZM6.75 10.625C6.75 10.7266 6.71289 10.8145 6.63867 10.8887C6.56445 10.9629 6.47656 11 6.375 11C6.26953 11 6.17969 10.9629 6.10547 10.8887L4.19531 8.97852C3.95312 9.1582 3.69727 9.29102 3.42773 9.37695C3.1582 9.45898 2.875 9.5 2.57812 9.5C2.22266 9.5 1.88867 9.42969 1.57617 9.28906C1.26367 9.14453 0.990234 8.95312 0.755859 8.71484C0.521484 8.47266 0.335938 8.19336 0.199219 7.87695C0.0664062 7.55664 0 7.22266 0 6.875C0 6.51562 0.0683594 6.17773 0.205078 5.86133C0.345703 5.54102 0.535156 5.26172 0.773438 5.02344C1.01172 4.78516 1.28906 4.59766 1.60547 4.46094C1.92578 4.32031 2.26562 4.25 2.625 4.25C2.97266 4.25 3.30469 4.31836 3.62109 4.45508C3.94141 4.58789 4.2207 4.77148 4.45898 5.00586C4.70117 5.24023 4.89258 5.51367 5.0332 5.82617C5.17773 6.13867 5.25 6.47266 5.25 6.82812C5.25 7.12891 5.20703 7.41406 5.12109 7.68359C5.03906 7.95312 4.90625 8.20703 4.72266 8.44531L6.63867 10.3613C6.71289 10.4355 6.75 10.5234 6.75 10.625ZM2.625 8.75H2.66602C2.91992 8.75 3.1582 8.69922 3.38086 8.59766C3.60352 8.49609 3.79688 8.35938 3.96094 8.1875C4.12891 8.01562 4.25977 7.81641 4.35352 7.58984C4.45117 7.36328 4.5 7.125 4.5 6.875C4.5 6.61328 4.45117 6.36914 4.35352 6.14258C4.25586 5.91602 4.12109 5.71875 3.94922 5.55078C3.78125 5.37891 3.58398 5.24414 3.35742 5.14648C3.13086 5.04883 2.88672 5 2.625 5C2.36328 5 2.11914 5.04883 1.89258 5.14648C1.66602 5.24414 1.4668 5.37891 1.29492 5.55078C1.12695 5.71875 0.994141 5.91602 0.896484 6.14258C0.798828 6.36914 0.75 6.61328 0.75 6.875C0.75 7.13672 0.798828 7.38086 0.896484 7.60742C0.994141 7.83398 1.12695 8.0332 1.29492 8.20508C1.4668 8.37305 1.66602 8.50586 1.89258 8.60352C2.11914 8.70117 2.36328 8.75 2.625 8.75ZM9.375 5.75C9.47656 5.75 9.56445 5.78711 9.63867 5.86133C9.71289 5.93555 9.75 6.02344 9.75 6.125C9.75 6.22656 9.71289 6.31445 9.63867 6.38867C9.56445 6.46289 9.47656 6.5 9.375 6.5H6.16406C6.15625 6.37109 6.13867 6.24414 6.11133 6.11914C6.08398 5.99414 6.04883 5.87109 6.00586 5.75H9.375Z" fill="black" fill-opacity="0.8956"/>
</svg>
