<svg xmlns="http://www.w3.org/2000/svg" viewBox="0 0 2048 2048">
  <path d="M1728 128q39 0 74 15t61 41 42 62 15 74v302q0 56-30 103t-81 71l-590 273q60 29 107 72t79 96 50 115 17 128q0 91-36 171t-98 140-143 94-171 35q-89 0-170-34t-143-95-98-140-37-171q0-66 17-127t49-115 80-97 107-72L240 796q-51-24-81-70t-31-104V320q0-39 15-74t41-61 62-42 74-15h1408zM256 622q0 19 10 34t27 24l347 160V256H320q-26 0-45 19t-19 45v302zm1024 277V256H768v643l256 118 256-118zm512-579q0-26-19-45t-45-19h-320v584l347-160q17-8 27-23t10-35V320zm-768 832h-7q-65 0-122 26t-99 70-67 102-25 122q0 67 25 125t68 101 102 69 125 25q67 0 125-25t101-68 69-102 25-125q0-67-25-125t-68-101-102-69-125-25z" />
</svg>