<svg width="16" height="16" viewBox="0 0 16 16" fill="none" xmlns="http://www.w3.org/2000/svg">
<g clip-path="url(#clip0_700_109504)">
<path fill-rule="evenodd" clip-rule="evenodd" d="M10.9 0.29001L11.25 1.36001L11.26 1.40001C11.36 1.72001 11.55 2.02001 11.79 2.26001C12.03 2.50001 12.32 2.68001 12.65 2.79001L13.72 3.14001H13.74C13.82 3.16001 13.89 3.22001 13.94 3.29001C13.99 3.36001 14.02 3.45001 14.02 3.53001C14.02 3.61001 13.99 3.70001 13.94 3.77001C13.89 3.84001 13.82 3.89001 13.74 3.92001L12.67 4.27001C12.35 4.37001 12.05 4.56001 11.81 4.80001C11.57 5.04001 11.39 5.33001 11.28 5.66001L10.93 6.73001C10.91 6.81001 10.85 6.88001 10.78 6.93001C10.71 6.98001 10.62 7.01001 10.54 7.01001C10.46 7.01001 10.37 6.98001 10.3 6.93001L10.28 6.91001C10.22 6.86001 10.18 6.79001 10.15 6.72001L9.80001 5.65001L9.79999 5.64996C9.78 5.58998 9.76 5.53 9.74001 5.48001C9.63001 5.22001 9.47001 4.98001 9.27001 4.78001C9.25001 4.76001 9.23001 4.74251 9.21001 4.72501C9.19001 4.70751 9.17001 4.69001 9.15001 4.67001C8.93001 4.48001 8.68001 4.33001 8.40001 4.24001L7.33001 3.89001C7.25001 3.87001 7.18001 3.81001 7.13001 3.74001C7.08001 3.67001 7.05001 3.58001 7.05001 3.50001C7.05001 3.42001 7.08001 3.33001 7.13001 3.26001C7.18001 3.19001 7.25001 3.14001 7.33001 3.11001L8.40001 2.76001C8.72001 2.65001 9.01001 2.46001 9.25001 2.22001C9.48001 1.98001 9.66001 1.68001 9.77001 1.36001L10.12 0.29001C10.14 0.21001 10.2 0.14001 10.27 0.0900098C10.34 0.0400098 10.43 0.0100098 10.51 0.0100098C10.59 0.0100098 10.68 0.0400098 10.75 0.0900098C10.82 0.14001 10.87 0.21001 10.9 0.29001ZM15.81 8.22001L15.04 7.97001V7.98001C14.8 7.90001 14.59 7.77001 14.42 7.60001C14.25 7.42001 14.12 7.21001 14.04 6.98001L13.79 6.22001C13.77 6.16001 13.73 6.11001 13.68 6.07001C13.63 6.03001 13.57 6.01001 13.51 6.01001C13.45 6.01001 13.39 6.03001 13.34 6.07001C13.29 6.11001 13.25 6.16001 13.23 6.22001L12.98 6.98001C12.91 7.21001 12.78 7.42001 12.61 7.59001C12.44 7.76001 12.23 7.89001 12 7.97001L11.23 8.22001C11.17 8.24001 11.12 8.28001 11.08 8.33001C11.04 8.38001 11.02 8.44001 11.02 8.50001C11.02 8.56001 11.04 8.62001 11.08 8.67001C11.12 8.72001 11.17 8.76001 11.23 8.78001L12 9.03001C12.23 9.10001 12.45 9.24001 12.62 9.41001C12.79 9.58001 12.92 9.80001 13 10.03L13.25 10.79C13.27 10.85 13.31 10.9 13.36 10.94C13.41 10.98 13.47 11 13.53 11C13.59 11 13.65 10.98 13.7 10.94C13.75 10.9 13.79 10.85 13.81 10.79L14.06 10.03C14.14 9.79001 14.27 9.58001 14.44 9.41001C14.62 9.24001 14.83 9.11001 15.06 9.03001L15.83 8.78001C15.89 8.76001 15.94 8.72001 15.98 8.67001C16.02 8.62001 16.04 8.56001 16.04 8.50001C16.04 8.44001 16.02 8.38001 15.98 8.33001C15.94 8.28001 15.89 8.24001 15.83 8.22001H15.81ZM9.68198 9.682C9.8554 9.50857 10.0147 9.32114 10.158 9.12153C10.1825 9.16564 10.2098 9.20854 10.24 9.25002C10.39 9.46002 10.61 9.63002 10.87 9.72002L10.9421 9.74373C10.8731 9.83799 10.8013 9.92997 10.7266 10.0195L14.8536 14.1465C15.0488 14.3417 15.0488 14.6583 14.8536 14.8536C14.6583 15.0488 14.3417 15.0488 14.1464 14.8536L10.0195 10.7266C9.06604 11.5213 7.83855 12 6.5 12C3.46243 12 1 9.53758 1 6.50002C1 3.46245 3.46243 1.00002 6.5 1.00002C7.24142 1.00002 7.94857 1.14672 8.59401 1.41268C8.56477 1.45064 8.53337 1.48665 8.5 1.52002C8.38 1.65002 8.21 1.75002 8.04 1.81002L7.2573 2.06346C7.01109 2.02174 6.75808 2.00002 6.5 2.00002C4.01472 2.00002 2 4.01473 2 6.50002C2 8.9853 4.01472 11 6.5 11C7.74278 11 8.86709 10.4969 9.68198 9.682Z" fill="black"/>
</g>
<defs>
<clipPath id="clip0_700_109504">
<rect width="16" height="16" fill="white"/>
</clipPath>
</defs>
</svg>
