<svg width="16" height="16" viewBox="0 0 16 16" fill="none" xmlns="http://www.w3.org/2000/svg">
<g clip-path="url(#clip0_41_9177)">
<path fill-rule="evenodd" clip-rule="evenodd" d="M10.9 0.289766L11.25 1.35977L11.26 1.39977C11.36 1.71977 11.55 2.01977 11.79 2.25977C12.03 2.49977 12.32 2.67977 12.65 2.78977L13.72 3.13977H13.74C13.82 3.15977 13.89 3.21977 13.94 3.28977C13.99 3.35977 14.02 3.44977 14.02 3.52977C14.02 3.60977 13.99 3.69977 13.94 3.76977C13.89 3.83977 13.82 3.88977 13.74 3.91977L12.67 4.26977C12.35 4.36977 12.05 4.55977 11.81 4.79977C11.57 5.03977 11.39 5.32977 11.28 5.65977L10.93 6.72977C10.91 6.80977 10.85 6.87977 10.78 6.92977C10.71 6.97977 10.62 7.00977 10.54 7.00977C10.46 7.00977 10.37 6.97977 10.3 6.92977L10.28 6.90977C10.22 6.85977 10.18 6.78977 10.15 6.71977L9.80001 5.64977L9.79999 5.64971C9.78 5.58973 9.76 5.52975 9.74001 5.47977C9.63001 5.21977 9.47001 4.97977 9.27001 4.77977C9.25001 4.75977 9.23001 4.74227 9.21001 4.72477C9.19001 4.70727 9.17001 4.68977 9.15001 4.66977C8.93001 4.47977 8.68001 4.32977 8.40001 4.23977L7.33001 3.88977C7.25001 3.86977 7.18001 3.80977 7.13001 3.73977C7.08001 3.66977 7.05001 3.57977 7.05001 3.49977C7.05001 3.41977 7.08001 3.32977 7.13001 3.25977C7.18001 3.18977 7.25001 3.13977 7.33001 3.10977L8.40001 2.75977C8.72001 2.64977 9.01001 2.45977 9.25001 2.21977C9.48001 1.97977 9.66001 1.67977 9.77001 1.35977L10.12 0.289766C10.14 0.209766 10.2 0.139766 10.27 0.0897657C10.34 0.0397657 10.43 0.00976562 10.51 0.00976562C10.59 0.00976562 10.68 0.0397657 10.75 0.0897657C10.82 0.139766 10.87 0.209766 10.9 0.289766ZM15.81 8.21977L15.04 7.96977V7.97977C14.8 7.89977 14.59 7.76977 14.42 7.59977C14.25 7.41977 14.12 7.20977 14.04 6.97977L13.79 6.21977C13.77 6.15977 13.73 6.10977 13.68 6.06977C13.63 6.02977 13.57 6.00977 13.51 6.00977C13.45 6.00977 13.39 6.02977 13.34 6.06977C13.29 6.10977 13.25 6.15977 13.23 6.21977L12.98 6.97977C12.91 7.20977 12.78 7.41977 12.61 7.58977C12.44 7.75977 12.23 7.88977 12 7.96977L11.23 8.21977C11.17 8.23977 11.12 8.27977 11.08 8.32977C11.04 8.37977 11.02 8.43976 11.02 8.49977C11.02 8.55977 11.04 8.61977 11.08 8.66977C11.12 8.71977 11.17 8.75977 11.23 8.77977L12 9.02977C12.23 9.09977 12.45 9.23977 12.62 9.40977C12.79 9.57977 12.92 9.79977 13 10.0298L13.25 10.7898C13.27 10.8498 13.31 10.8998 13.36 10.9398C13.41 10.9798 13.47 10.9998 13.53 10.9998C13.59 10.9998 13.65 10.9798 13.7 10.9398C13.75 10.8998 13.79 10.8498 13.81 10.7898L14.06 10.0298C14.14 9.78977 14.27 9.57977 14.44 9.40977C14.62 9.23977 14.83 9.10977 15.06 9.02977L15.83 8.77977C15.89 8.75977 15.94 8.71977 15.98 8.66977C16.02 8.61977 16.04 8.55977 16.04 8.49977C16.04 8.43976 16.02 8.37977 15.98 8.32977C15.94 8.27977 15.89 8.23977 15.83 8.21977H15.81ZM10.0016 8.4347C9.81941 8.76339 9.59219 9.06384 9.32812 9.3279C8.60345 10.0526 7.60478 10.4998 6.5 10.4998C4.29086 10.4998 2.5 8.70891 2.5 6.49977C2.5 4.31363 4.25377 2.53709 6.43116 2.50035C6.58261 2.34854 6.7702 2.23037 6.99 2.14977L8.04 1.80977C8.21 1.74977 8.38 1.64977 8.5 1.51977C8.53337 1.4864 8.56477 1.4504 8.59401 1.41243C7.94857 1.14647 7.24142 0.999771 6.5 0.999771C3.46243 0.999771 1 3.4622 1 6.49977C1 9.53734 3.46243 11.9998 6.5 11.9998C7.74825 11.9998 8.89938 11.5822 9.82227 10.8816L13.9697 15.03C14.2626 15.3229 14.7374 15.3229 15.0303 15.03C15.3232 14.7372 15.3232 14.2624 15.0303 13.9695L11.9076 10.8461H11.907L10.7157 9.65485C10.5229 9.55856 10.3593 9.41682 10.24 9.24977C10.08 9.02977 10 8.76977 10 8.49977C10 8.47807 10.0005 8.45637 10.0016 8.4347Z" fill="#005FB8"/>
<path fill-rule="evenodd" clip-rule="evenodd" d="M10.9 0.289766L11.25 1.35977L11.26 1.39977C11.36 1.71977 11.55 2.01977 11.79 2.25977C12.03 2.49977 12.32 2.67977 12.65 2.78977L13.72 3.13977H13.74C13.82 3.15977 13.89 3.21977 13.94 3.28977C13.99 3.35977 14.02 3.44977 14.02 3.52977C14.02 3.60977 13.99 3.69977 13.94 3.76977C13.89 3.83977 13.82 3.88977 13.74 3.91977L12.67 4.26977C12.35 4.36977 12.05 4.55977 11.81 4.79977C11.57 5.03977 11.39 5.32977 11.28 5.65977L10.93 6.72977C10.91 6.80977 10.85 6.87977 10.78 6.92977C10.71 6.97977 10.62 7.00977 10.54 7.00977C10.46 7.00977 10.37 6.97977 10.3 6.92977L10.28 6.90977C10.22 6.85977 10.18 6.78977 10.15 6.71977L9.80001 5.64977L9.79999 5.64971C9.78 5.58973 9.76 5.52975 9.74001 5.47977C9.63001 5.21977 9.47001 4.97977 9.27001 4.77977C9.25001 4.75977 9.23001 4.74227 9.21001 4.72477C9.19001 4.70727 9.17001 4.68977 9.15001 4.66977C8.93001 4.47977 8.68001 4.32977 8.40001 4.23977L7.33001 3.88977C7.25001 3.86977 7.18001 3.80977 7.13001 3.73977C7.08001 3.66977 7.05001 3.57977 7.05001 3.49977C7.05001 3.41977 7.08001 3.32977 7.13001 3.25977C7.18001 3.18977 7.25001 3.13977 7.33001 3.10977L8.40001 2.75977C8.72001 2.64977 9.01001 2.45977 9.25001 2.21977C9.48001 1.97977 9.66001 1.67977 9.77001 1.35977L10.12 0.289766C10.14 0.209766 10.2 0.139766 10.27 0.0897657C10.34 0.0397657 10.43 0.00976562 10.51 0.00976562C10.59 0.00976562 10.68 0.0397657 10.75 0.0897657C10.82 0.139766 10.87 0.209766 10.9 0.289766ZM15.81 8.21977L15.04 7.96977V7.97977C14.8 7.89977 14.59 7.76977 14.42 7.59977C14.25 7.41977 14.12 7.20977 14.04 6.97977L13.79 6.21977C13.77 6.15977 13.73 6.10977 13.68 6.06977C13.63 6.02977 13.57 6.00977 13.51 6.00977C13.45 6.00977 13.39 6.02977 13.34 6.06977C13.29 6.10977 13.25 6.15977 13.23 6.21977L12.98 6.97977C12.91 7.20977 12.78 7.41977 12.61 7.58977C12.44 7.75977 12.23 7.88977 12 7.96977L11.23 8.21977C11.17 8.23977 11.12 8.27977 11.08 8.32977C11.04 8.37977 11.02 8.43976 11.02 8.49977C11.02 8.55977 11.04 8.61977 11.08 8.66977C11.12 8.71977 11.17 8.75977 11.23 8.77977L12 9.02977C12.23 9.09977 12.45 9.23977 12.62 9.40977C12.79 9.57977 12.92 9.79977 13 10.0298L13.25 10.7898C13.27 10.8498 13.31 10.8998 13.36 10.9398C13.41 10.9798 13.47 10.9998 13.53 10.9998C13.59 10.9998 13.65 10.9798 13.7 10.9398C13.75 10.8998 13.79 10.8498 13.81 10.7898L14.06 10.0298C14.14 9.78977 14.27 9.57977 14.44 9.40977C14.62 9.23977 14.83 9.10977 15.06 9.02977L15.83 8.77977C15.89 8.75977 15.94 8.71977 15.98 8.66977C16.02 8.61977 16.04 8.55977 16.04 8.49977C16.04 8.43976 16.02 8.37977 15.98 8.32977C15.94 8.27977 15.89 8.23977 15.83 8.21977H15.81ZM10.0016 8.4347C9.81941 8.76339 9.59219 9.06384 9.32812 9.3279C8.60345 10.0526 7.60478 10.4998 6.5 10.4998C4.29086 10.4998 2.5 8.70891 2.5 6.49977C2.5 4.31363 4.25377 2.53709 6.43116 2.50035C6.58261 2.34854 6.7702 2.23037 6.99 2.14977L8.04 1.80977C8.21 1.74977 8.38 1.64977 8.5 1.51977C8.53337 1.4864 8.56477 1.4504 8.59401 1.41243C7.94857 1.14647 7.24142 0.999771 6.5 0.999771C3.46243 0.999771 1 3.4622 1 6.49977C1 9.53734 3.46243 11.9998 6.5 11.9998C7.74825 11.9998 8.89938 11.5822 9.82227 10.8816L13.9697 15.03C14.2626 15.3229 14.7374 15.3229 15.0303 15.03C15.3232 14.7372 15.3232 14.2624 15.0303 13.9695L11.9076 10.8461H11.907L10.7157 9.65485C10.5229 9.55856 10.3593 9.41682 10.24 9.24977C10.08 9.02977 10 8.76977 10 8.49977C10 8.47807 10.0005 8.45637 10.0016 8.4347Z" fill="url(#paint0_linear_41_9177)"/>
</g>
<defs>
<linearGradient id="paint0_linear_41_9177" x1="1" y1="7.62977" x2="16.04" y2="7.62977" gradientUnits="userSpaceOnUse">
<stop stop-color="#0078D4"/>
<stop offset="0.415684" stop-color="#464FEB"/>
<stop offset="0.866289" stop-color="#D660FF"/>
<stop offset="1" stop-color="#FEA874"/>
</linearGradient>
<clipPath id="clip0_41_9177">
<rect width="16" height="16" fill="white"/>
</clipPath>
</defs>
</svg>
