<svg width="16" height="17" viewBox="0 0 16 17" fill="none" xmlns="http://www.w3.org/2000/svg">
<path d="M10.6968 1.04178C10.5303 0.97519 10.3638 1.04178 10.264 1.20824C9.79785 2.00729 8.93222 2.53998 7.93341 2.53998C6.93461 2.53998 6.06898 2.00729 5.60287 1.17495C5.50299 1.04178 5.33652 0.975191 5.17006 1.00848C4.30443 1.30813 3.50538 1.77423 2.80622 2.37352C2.67304 2.4734 2.63975 2.67316 2.73963 2.83963C3.20574 3.63867 3.27232 4.67077 2.77292 5.5031C2.27352 6.36874 1.3746 6.83484 0.442378 6.83484C0.275911 6.83484 0.109443 6.96802 0.109443 7.13449C-0.0570242 8.03341 -0.0237286 8.96563 0.142739 9.86455C0.176032 10.031 0.309208 10.1642 0.508969 10.1642C1.44119 10.1642 2.34011 10.6303 2.83951 11.4959C3.33892 12.3616 3.30562 13.3604 2.83951 14.1594C2.73963 14.2926 2.77292 14.4923 2.90609 14.6255C3.23903 14.9252 3.63856 15.1915 4.03808 15.4246C4.4376 15.6576 4.87041 15.8574 5.30323 16.0238C5.4697 16.0904 5.63616 16.0238 5.73604 15.8574C6.20215 15.0583 7.06778 14.5256 8.06658 14.5256C9.06539 14.5256 9.93102 15.0583 10.3971 15.8907C10.497 16.0238 10.6635 16.0904 10.8299 16.0571C11.6956 15.7575 12.4946 15.2914 13.1938 14.6921C13.327 14.5922 13.3603 14.3925 13.2604 14.2593C12.7943 13.4602 12.7277 12.4282 13.2271 11.5958C13.7265 10.7302 14.6254 10.2641 15.5576 10.2641C15.7241 10.2641 15.8906 10.1309 15.8906 9.96443C16.057 9.06551 16.0237 8.13329 15.8573 7.23437C15.824 7.0679 15.6908 6.93473 15.491 6.93473C14.5588 6.93473 13.6599 6.46862 13.1605 5.60299C12.6611 4.73736 12.6944 3.73855 13.1605 2.93951C13.2604 2.80633 13.2271 2.60657 13.0939 2.4734C12.761 2.17376 12.3614 1.90741 11.9619 1.67435C11.5291 1.37471 11.1296 1.20824 10.6968 1.04178Z" fill="url(#paint0_linear_4980_167668)"/>
<path d="M8 12.6719C10.2091 12.6719 12 10.881 12 8.67187C12 6.46274 10.2091 4.67188 8 4.67188C5.79086 4.67188 4 6.46274 4 8.67187C4 10.881 5.79086 12.6719 8 12.6719Z" fill="url(#paint1_linear_4980_167668)"/>
<path d="M7.9987 11.3333C9.47146 11.3333 10.6654 10.1394 10.6654 8.66667C10.6654 7.19391 9.47146 6 7.9987 6C6.52594 6 5.33203 7.19391 5.33203 8.66667C5.33203 10.1394 6.52594 11.3333 7.9987 11.3333Z" fill="url(#paint2_linear_4980_167668)"/>
<defs>
<linearGradient id="paint0_linear_4980_167668" x1="11.9619" y1="15.4328" x2="3.97149" y2="1.59299" gradientUnits="userSpaceOnUse">
<stop stop-color="#626F7A"/>
<stop offset="1" stop-color="#8B9299"/>
</linearGradient>
<linearGradient id="paint1_linear_4980_167668" x1="10.0003" y1="12.15" x2="5.99967" y2="5.22061" gradientUnits="userSpaceOnUse">
<stop stop-color="white"/>
<stop offset="1" stop-color="#CCCCCC"/>
</linearGradient>
<linearGradient id="paint2_linear_4980_167668" x1="9.33223" y1="10.9899" x2="6.66516" y2="6.3703" gradientUnits="userSpaceOnUse">
<stop stop-color="#114A8B"/>
<stop offset="1" stop-color="#0669BC"/>
</linearGradient>
</defs>
</svg>
