<svg width="12" height="10" viewBox="0 0 12 10" fill="none" xmlns="http://www.w3.org/2000/svg">
<path d="M10.5 4.625C10.6992 4.625 10.8887 4.66406 11.0684 4.74219C11.252 4.82031 11.4121 4.92578 11.5488 5.05859C11.6855 5.19141 11.7949 5.34766 11.877 5.52734C11.959 5.70703 12 5.89648 12 6.0957V8.0293C12 8.22461 11.959 8.41211 11.877 8.5918C11.7988 8.76758 11.6914 8.92383 11.5547 9.06055C11.4219 9.19336 11.2656 9.30078 11.0859 9.38281C10.9102 9.46094 10.7246 9.5 10.5293 9.5H1.4707C1.27539 9.5 1.08789 9.46094 0.908203 9.38281C0.732422 9.30078 0.576172 9.19336 0.439453 9.06055C0.306641 8.92383 0.199219 8.76758 0.117188 8.5918C0.0390625 8.41211 0 8.22461 0 8.0293V1.9707C0 1.77539 0.0390625 1.58984 0.117188 1.41406C0.199219 1.23438 0.306641 1.07812 0.439453 0.945312C0.576172 0.808594 0.732422 0.701172 0.908203 0.623047C1.08789 0.541016 1.27539 0.5 1.4707 0.5H7.5293C7.73242 0.5 7.92188 0.539063 8.09766 0.617188C8.27344 0.695312 8.42578 0.802734 8.55469 0.939453C8.6875 1.07227 8.79297 1.22852 8.87109 1.4082C8.94922 1.58398 8.99219 1.77148 9 1.9707C9.00391 2.01367 9.00586 2.05664 9.00586 2.09961C9.00586 2.14258 9.00586 2.18555 9.00586 2.22852C9.00586 2.31836 9.00391 2.40625 9 2.49219C9 2.57812 9 2.66406 9 2.75C9.19922 2.75 9.38867 2.78906 9.56836 2.86719C9.75195 2.94531 9.91211 3.05078 10.0488 3.18359C10.1855 3.31641 10.293 3.47266 10.3711 3.65234C10.4531 3.82812 10.4961 4.01758 10.5 4.2207V4.625ZM0.75 8C0.75 8.10547 0.769531 8.20508 0.808594 8.29883C0.847656 8.38867 0.900391 8.4668 0.966797 8.5332C1.0332 8.59961 1.11133 8.65234 1.20117 8.69141C1.29492 8.73047 1.39453 8.75 1.5 8.75H3.94922C3.81641 8.51562 3.75 8.26562 3.75 8V4.2207C3.75 4.01758 3.79102 3.82812 3.87305 3.65234C3.95508 3.47266 4.06445 3.31641 4.20117 3.18359C4.33789 3.05078 4.49609 2.94531 4.67578 2.86719C4.85938 2.78906 5.05078 2.75 5.25 2.75H8.25V2C8.25 1.89844 8.23047 1.80273 8.19141 1.71289C8.15234 1.61914 8.09766 1.53906 8.02734 1.47266C7.96094 1.40234 7.88086 1.34766 7.78711 1.30859C7.69727 1.26953 7.60156 1.25 7.5 1.25H1.5C1.39453 1.25 1.29688 1.26953 1.20703 1.30859C1.11719 1.34766 1.03711 1.40234 0.966797 1.47266C0.900391 1.53906 0.847656 1.61719 0.808594 1.70703C0.769531 1.79688 0.75 1.89453 0.75 2V8ZM7.32422 8.75C7.19141 8.51562 7.125 8.26562 7.125 8V6.0957C7.125 5.89258 7.16602 5.70312 7.24805 5.52734C7.33008 5.34766 7.43945 5.19141 7.57617 5.05859C7.71289 4.92578 7.87109 4.82031 8.05078 4.74219C8.23438 4.66406 8.42578 4.625 8.625 4.625H9.75V4.25C9.75 4.14844 9.73047 4.05273 9.69141 3.96289C9.65234 3.86914 9.59766 3.78906 9.52734 3.72266C9.46094 3.65234 9.38086 3.59766 9.28711 3.55859C9.19727 3.51953 9.10156 3.5 9 3.5H5.25C5.14453 3.5 5.04688 3.51953 4.95703 3.55859C4.86719 3.59766 4.78711 3.65234 4.7168 3.72266C4.65039 3.78906 4.59766 3.86719 4.55859 3.95703C4.51953 4.04688 4.5 4.14453 4.5 4.25V8C4.5 8.10547 4.51953 8.20508 4.55859 8.29883C4.59766 8.38867 4.65039 8.4668 4.7168 8.5332C4.7832 8.59961 4.86133 8.65234 4.95117 8.69141C5.04492 8.73047 5.14453 8.75 5.25 8.75H7.32422ZM11.25 6.125C11.25 6.02344 11.2305 5.92773 11.1914 5.83789C11.1523 5.74414 11.0977 5.66406 11.0273 5.59766C10.9609 5.52734 10.8809 5.47266 10.7871 5.43359C10.6973 5.39453 10.6016 5.375 10.5 5.375H8.625C8.51953 5.375 8.42188 5.39453 8.33203 5.43359C8.24219 5.47266 8.16211 5.52734 8.0918 5.59766C8.02539 5.66406 7.97266 5.74219 7.93359 5.83203C7.89453 5.92188 7.875 6.01953 7.875 6.125V8C7.875 8.10547 7.89453 8.20508 7.93359 8.29883C7.97266 8.38867 8.02539 8.4668 8.0918 8.5332C8.1582 8.59961 8.23633 8.65234 8.32617 8.69141C8.41992 8.73047 8.51953 8.75 8.625 8.75H10.5C10.6055 8.75 10.7031 8.73047 10.793 8.69141C10.8828 8.65234 10.9609 8.59961 11.0273 8.5332C11.0977 8.46289 11.1523 8.38281 11.1914 8.29297C11.2305 8.20312 11.25 8.10547 11.25 8V6.125Z" fill="black" fill-opacity="0.8956"/>
</svg>
