<svg width="24" height="24" viewBox="0 0 24 24" fill="none" xmlns="http://www.w3.org/2000/svg">
  <circle cx="12" cy="12" r="12" fill="#1DB954"/>
  <path d="M17.7 10.2c-3.4-2-9-2.2-12.2-1.2-.5.2-.8.7-.6 1.2.2.5.7.8 1.2.6 2.8-.9 7.4-.7 10.4 1 .5.3 1.1.1 1.4-.4.3-.5.1-1.1-.2-1.2z" fill="white"/>
  <path d="M17.2 13c-.3-.5-.9-.6-1.4-.3-2.7 1.7-6.8 2.1-10.1 1.2-.5-.1-1 .2-1.1.7-.1.5.2 1 .7 1.1 3.8 1.1 8.5.6 11.6-1.3.5-.3.6-.9.3-1.4z" fill="white"/>
  <path d="M16.6 15.6c-.2-.4-.7-.5-1.1-.3-2.3 1.4-5.2 1.7-8.6.9-.4-.1-.8.2-.9.6-.1.4.2.8.6.9 3.8.9 7.1.5 9.7-1 .4-.2.5-.7.3-1.1z" fill="white"/>
</svg>