<svg width="15" height="15" viewBox="0 0 15 15" fill="none" xmlns="http://www.w3.org/2000/svg">
<path d="M0 7.03125C0 6.38184 0.0830078 5.75928 0.249023 5.16357C0.415039 4.56299 0.649414 4.00146 0.952148 3.479C1.25977 2.95654 1.62598 2.48291 2.05078 2.05811C2.48047 1.62842 2.95654 1.26221 3.479 0.959473C4.00146 0.651855 4.56055 0.415039 5.15625 0.249023C5.75684 0.0830078 6.38184 0 7.03125 0C7.67578 0 8.2959 0.0854492 8.8916 0.256348C9.49219 0.422363 10.0537 0.65918 10.5762 0.966797C11.0986 1.26953 11.5723 1.63574 11.9971 2.06543C12.4268 2.49023 12.793 2.96387 13.0957 3.48633C13.4033 4.00879 13.6401 4.57031 13.8062 5.1709C13.9771 5.7666 14.0625 6.38672 14.0625 7.03125C14.0625 7.68066 13.9795 8.30566 13.8135 8.90625C13.6475 9.50195 13.4106 10.061 13.103 10.5835C12.8003 11.106 12.4341 11.582 12.0044 12.0117C11.5796 12.4365 11.106 12.8027 10.5835 13.1104C10.061 13.4131 9.49951 13.6475 8.89893 13.8135C8.30322 13.9795 7.68066 14.0625 7.03125 14.0625C6.38184 14.0625 5.75684 13.9795 5.15625 13.8135C4.55566 13.6475 3.99414 13.4131 3.47168 13.1104C2.9541 12.8027 2.48047 12.4365 2.05078 12.0117C1.62598 11.582 1.25977 11.1084 0.952148 10.5908C0.649414 10.0684 0.415039 9.50684 0.249023 8.90625C0.0830078 8.30566 0 7.68066 0 7.03125ZM13.125 7.03125C13.125 6.46973 13.0518 5.93018 12.9053 5.4126C12.7637 4.89014 12.5586 4.4043 12.29 3.95508C12.0264 3.50098 11.709 3.09082 11.3379 2.72461C10.9717 2.35352 10.5615 2.03613 10.1074 1.77246C9.6582 1.50391 9.17236 1.29883 8.6499 1.15723C8.13232 1.01074 7.59277 0.9375 7.03125 0.9375C6.46973 0.9375 5.92773 1.01074 5.40527 1.15723C4.8877 1.29883 4.40186 1.50391 3.94775 1.77246C3.49854 2.03613 3.08838 2.35352 2.71729 2.72461C2.35107 3.09082 2.03369 3.50098 1.76514 3.95508C1.50146 4.4043 1.29639 4.89014 1.1499 5.4126C1.0083 5.93018 0.9375 6.46973 0.9375 7.03125C0.9375 7.59277 1.0083 8.13477 1.1499 8.65723C1.29639 9.1748 1.50146 9.66064 1.76514 10.1147C2.02881 10.564 2.34619 10.9741 2.71729 11.3452C3.08838 11.7163 3.49854 12.0337 3.94775 12.2974C4.40186 12.561 4.8877 12.7661 5.40527 12.9126C5.92773 13.0542 6.46973 13.125 7.03125 13.125C7.59277 13.125 8.13232 13.0542 8.6499 12.9126C9.17236 12.7661 9.6582 12.561 10.1074 12.2974C10.5615 12.0337 10.9741 11.7163 11.3452 11.3452C11.7163 10.9741 12.0337 10.564 12.2974 10.1147C12.561 9.66064 12.7637 9.1748 12.9053 8.65723C13.0518 8.13477 13.125 7.59277 13.125 7.03125ZM3.75 7.03125C3.75 6.9043 3.79639 6.79443 3.88916 6.70166C3.98193 6.60889 4.0918 6.5625 4.21875 6.5625C4.3457 6.5625 4.45557 6.60889 4.54834 6.70166L6.09375 8.23975L9.51416 4.82666C9.60693 4.73389 9.7168 4.6875 9.84375 4.6875C9.9707 4.6875 10.0806 4.73389 10.1733 4.82666C10.2661 4.91943 10.3125 5.0293 10.3125 5.15625C10.3125 5.2832 10.2661 5.39307 10.1733 5.48584L6.42334 9.23584C6.33057 9.32861 6.2207 9.375 6.09375 9.375C5.9668 9.375 5.85693 9.32861 5.76416 9.23584L3.88916 7.36084C3.79639 7.26807 3.75 7.1582 3.75 7.03125Z" fill="#0F7B0F"/>
</svg>
