<svg width="12" height="11" viewBox="0 0 12 11" fill="none" xmlns="http://www.w3.org/2000/svg">
<path d="M9.7793 0.5C9.97461 0.5 10.1602 0.541016 10.3359 0.623047C10.5156 0.701172 10.6719 0.808594 10.8047 0.945312C10.9414 1.07812 11.0488 1.23438 11.127 1.41406C11.209 1.58984 11.25 1.77539 11.25 1.9707V8.7793C11.25 8.97461 11.209 9.16211 11.127 9.3418C11.0488 9.51758 10.9414 9.67383 10.8047 9.81055C10.6719 9.94336 10.5156 10.0508 10.3359 10.1328C10.1602 10.2109 9.97461 10.25 9.7793 10.25H2.2207C2.02539 10.25 1.83789 10.2109 1.6582 10.1328C1.48242 10.0508 1.32617 9.94336 1.18945 9.81055C1.05664 9.67383 0.949219 9.51758 0.867188 9.3418C0.789062 9.16211 0.75 8.97461 0.75 8.7793V4.2207C0.75 4.01758 0.791016 3.82812 0.873047 3.65234C0.955078 3.47266 1.06445 3.31641 1.20117 3.18359C1.33789 3.05078 1.49609 2.94531 1.67578 2.86719C1.85938 2.78906 2.05078 2.75 2.25 2.75H3.75V1.9707C3.75 1.77539 3.78906 1.58984 3.86719 1.41406C3.94922 1.23438 4.05664 1.07812 4.18945 0.945312C4.32617 0.808594 4.48242 0.701172 4.6582 0.623047C4.83789 0.541016 5.02539 0.5 5.2207 0.5H9.7793ZM10.5 2C10.5 1.89844 10.4805 1.80273 10.4414 1.71289C10.4023 1.61914 10.3477 1.53906 10.2773 1.47266C10.2109 1.40234 10.1309 1.34766 10.0371 1.30859C9.94727 1.26953 9.85156 1.25 9.75 1.25H5.25C5.14844 1.25 5.05078 1.26953 4.95703 1.30859C4.86719 1.34375 4.78711 1.39844 4.7168 1.47266C4.65039 1.54297 4.59766 1.62305 4.55859 1.71289C4.51953 1.80273 4.5 1.89844 4.5 2V2.75H8.2793C8.47461 2.75 8.66016 2.79102 8.83594 2.87305C9.01562 2.95117 9.17188 3.05859 9.30469 3.19531C9.44141 3.32812 9.54883 3.48438 9.62695 3.66406C9.70898 3.83984 9.75 4.02539 9.75 4.2207V8.75C9.75 9.01562 9.68359 9.26562 9.55078 9.5H9.75C9.85547 9.5 9.95312 9.48047 10.043 9.44141C10.1328 9.40234 10.2109 9.34961 10.2773 9.2832C10.3477 9.21289 10.4023 9.13281 10.4414 9.04297C10.4805 8.95312 10.5 8.85547 10.5 8.75V2ZM8.25 9.5C8.35547 9.5 8.45312 9.48047 8.54297 9.44141C8.63281 9.40234 8.71094 9.34961 8.77734 9.2832C8.84766 9.21289 8.90234 9.13281 8.94141 9.04297C8.98047 8.95312 9 8.85547 9 8.75V4.25C9 4.14844 8.98047 4.05273 8.94141 3.96289C8.90234 3.86914 8.84766 3.78906 8.77734 3.72266C8.71094 3.65234 8.63086 3.59766 8.53711 3.55859C8.44727 3.51953 8.35156 3.5 8.25 3.5H2.25C2.14453 3.5 2.04688 3.51953 1.95703 3.55859C1.86719 3.59766 1.78711 3.65234 1.7168 3.72266C1.65039 3.78906 1.59766 3.86719 1.55859 3.95703C1.51953 4.04688 1.5 4.14453 1.5 4.25V8.75C1.5 8.85547 1.51953 8.95508 1.55859 9.04883C1.59766 9.13867 1.65039 9.2168 1.7168 9.2832C1.7832 9.34961 1.86133 9.40234 1.95117 9.44141C2.04492 9.48047 2.14453 9.5 2.25 9.5H8.25Z" fill="black" fill-opacity="0.8956"/>
</svg>
