<svg width="24" height="24" viewBox="0 0 24 24" fill="none" xmlns="http://www.w3.org/2000/svg">
  <circle cx="12" cy="12" r="12" fill="#25D366"/>
  <path d="M17.5 6.8c-1.1-1.1-2.6-1.8-4.2-1.8-3.3 0-6 2.7-6 6 0 1.1.3 2.1.8 3l-1.1 3.9 4-1c.9.5 1.9.8 3 .8 3.3 0 6-2.7 6-6 0-1.6-.6-3.1-1.5-4.2z" fill="white"/>
  <path d="M15.8 14.2c-.1.3-.7.6-1 .7-.3.1-.6.1-1.9-.4-1.2-.5-2.1-1.6-2.6-2.3-.5-.7-.8-1.6-.8-2.4 0-.8.3-1.3.4-1.5.1-.2.3-.3.4-.3h.3c.1 0 .3 0 .4.3.1.3.5 1.2.5 1.3.1.1.1.2 0 .4-.1.2-.1.3-.3.5-.1.2-.3.4-.4.5-.1.1-.3.3-.1.6.2.3.9 1.5 1.9 2.4 1.3 1.2 2.4 1.6 2.7 1.7.3.1.5.1.7-.1.2-.2.9-1 1.1-1.4.2-.3.4-.3.7-.2.3.1 1.9.9 2.2 1.1.3.2.5.3.6.5.1.2.1.8 0 1.1z" fill="#25D366"/>
</svg>