<svg width="72" height="72" viewBox="0 0 72 72" fill="none" xmlns="http://www.w3.org/2000/svg">
<path d="M10 51.5509L36 20L62 40.502V62.5C62 65.5376 59.5376 68 56.5 68H21C14.9249 68 10 63.0752 10 57V51.5509Z" fill="url(#paint0_radial_5381_123027)"/>
<path d="M10 31.9445C10 27.5569 13.5569 24 17.9445 24H56.0528L62 19V40.5C62 43.5376 59.5376 46 56.5 46H21C14.9249 46 10 50.9249 10 57V31.9445Z" fill="url(#paint1_linear_5381_123027)"/>
<path d="M10 31.9445C10 27.5569 13.5569 24 17.9445 24H56.0528L62 19V40.5C62 43.5376 59.5376 46 56.5 46H21C14.9249 46 10 50.9249 10 57V31.9445Z" fill="url(#paint2_radial_5381_123027)" fill-opacity="0.6"/>
<path d="M10 31.9445C10 27.5569 13.5569 24 17.9445 24H56.0528L62 19V40.5C62 43.5376 59.5376 46 56.5 46H21C14.9249 46 10 50.9249 10 57V31.9445Z" fill="url(#paint3_radial_5381_123027)" fill-opacity="0.1"/>
<path d="M10 15C10 8.92486 14.9249 4 21 4H56.5C59.5376 4 62 6.46243 62 9.5V20.5C62 23.5376 59.5376 26 56.5 26H20.1725C14.5544 26 10 30.5544 10 36.1725V15Z" fill="url(#paint4_linear_5381_123027)"/>
<path d="M10 15C10 8.92486 14.9249 4 21 4H56.5C59.5376 4 62 6.46243 62 9.5V20.5C62 23.5376 59.5376 26 56.5 26H20.1725C14.5544 26 10 30.5544 10 36.1725V15Z" fill="url(#paint5_radial_5381_123027)" fill-opacity="0.8"/>
<rect y="32" width="30" height="30" rx="6" fill="url(#paint6_radial_5381_123027)"/>
<rect y="32" width="30" height="30" rx="6" fill="url(#paint7_radial_5381_123027)" fill-opacity="0.65"/>
<path d="M25.7992 38L21.9222 55.9978L17.288 56L14.9992 45.2L12.6033 56H7.92477L4.19922 38.0022H8.02046L10.3192 49.88L12.6033 38.0022H17.288L19.6792 49.88L21.9222 38.0022L25.7992 38Z" fill="white"/>
<defs>
<radialGradient id="paint0_radial_5381_123027" cx="0" cy="0" r="1" gradientUnits="userSpaceOnUse" gradientTransform="translate(60.4841 67.9988) scale(82.4605 37.1989)">
<stop offset="0.180414" stop-color="#1657F4"/>
<stop offset="0.574542" stop-color="#0036C4"/>
</radialGradient>
<linearGradient id="paint1_linear_5381_123027" x1="10" y1="38" x2="49.8228" y2="38" gradientUnits="userSpaceOnUse">
<stop stop-color="#66C0FF"/>
<stop offset="0.25606" stop-color="#0094F0"/>
</linearGradient>
<radialGradient id="paint2_radial_5381_123027" cx="0" cy="0" r="1" gradientTransform="matrix(-35.0661 36.7637 -77.0776 -100.507 62 20.2363)" gradientUnits="userSpaceOnUse">
<stop offset="0.140259" stop-color="#D471FF"/>
<stop offset="0.830508" stop-color="#509DF5" stop-opacity="0"/>
</radialGradient>
<radialGradient id="paint3_radial_5381_123027" cx="0" cy="0" r="1" gradientUnits="userSpaceOnUse" gradientTransform="translate(54.3925 45.3077) rotate(90) scale(32.1538 176.188)">
<stop offset="0.283333" stop-color="#4F006F" stop-opacity="0"/>
<stop offset="1" stop-color="#4F006F"/>
</radialGradient>
<linearGradient id="paint4_linear_5381_123027" x1="10" y1="20.0863" x2="61.9867" y2="20.919" gradientUnits="userSpaceOnUse">
<stop stop-color="#9DEAFF"/>
<stop offset="0.201276" stop-color="#3BD5FF"/>
</linearGradient>
<radialGradient id="paint5_radial_5381_123027" cx="0" cy="0" r="1" gradientTransform="matrix(-49.7849 11.9888 -31.1964 -122.15 62 5.04673)" gradientUnits="userSpaceOnUse">
<stop offset="0.0606583" stop-color="#E4A7FE"/>
<stop offset="0.538869" stop-color="#E4A7FE" stop-opacity="0"/>
</radialGradient>
<radialGradient id="paint6_radial_5381_123027" cx="0" cy="0" r="1" gradientUnits="userSpaceOnUse" gradientTransform="translate(0 32) rotate(45) scale(42.4264)">
<stop offset="0.0811439" stop-color="#367AF2"/>
<stop offset="0.871875" stop-color="#001A8F"/>
</radialGradient>
<radialGradient id="paint7_radial_5381_123027" cx="0" cy="0" r="1" gradientUnits="userSpaceOnUse" gradientTransform="translate(15 50) rotate(90) scale(21 23.9343)">
<stop offset="0.586954" stop-color="#2763E5" stop-opacity="0"/>
<stop offset="0.973806" stop-color="#58AAFE"/>
</radialGradient>
</defs>
</svg>
