<svg width="256" height="256" viewBox="0 0 256 256" fill="none" xmlns="http://www.w3.org/2000/svg">
<path d="M41 38C41 25.8497 50.8497 16 63 16H169C194.405 16 215 36.5949 215 62V216C215 228.15 205.15 238 193 238H87C61.5949 238 41 217.405 41 192V38Z" fill="url(#paint0_linear_8754_85353)"/>
<path d="M46 38C46 28.6112 53.6112 21 63 21H169C191.644 21 210 39.3563 210 62V216C210 225.389 202.389 233 193 233H87C64.3563 233 46 214.644 46 192V38Z" fill="url(#paint1_linear_8754_85353)"/>
<path d="M46 38C46 28.6112 53.6112 21 63 21H169C191.644 21 210 39.3563 210 62V216C210 225.389 202.389 233 193 233H87C64.3563 233 46 214.644 46 192V38Z" fill="url(#paint2_radial_8754_85353)"/>
<path d="M176 136.441V177.333C176 183.224 171.224 188 165.333 188H122V166C122 151.081 111.79 138.546 97.9756 135.002L128 98L176 136.441Z" fill="url(#paint3_radial_8754_85353)"/>
<path d="M176 137.331C176 143.222 171.224 147.998 165.333 147.998H116.459C110.699 139.548 100.998 134 90 134H80V120.817C80 112.717 86.5668 106.15 94.667 106.15H165.333L176 97.9688V137.331Z" fill="url(#paint4_linear_8754_85353)"/>
<path d="M176 137.331C176 143.222 171.224 147.998 165.333 147.998H116.459C110.699 139.548 100.998 134 90 134H80V120.817C80 112.717 86.5668 106.15 94.667 106.15H165.333L176 97.9688V137.331Z" fill="url(#paint5_radial_8754_85353)" fill-opacity="0.6"/>
<path d="M176 137.331C176 143.222 171.224 147.998 165.333 147.998H116.459C110.699 139.548 100.998 134 90 134H80V120.817C80 112.717 86.5668 106.15 94.667 106.15H165.333L176 97.9688V137.331Z" fill="url(#paint6_radial_8754_85353)" fill-opacity="0.1"/>
<path d="M80 88C80 76.9543 88.9543 68 100 68H165.333C171.224 68 176 72.7756 176 78.6667V97.3333C176 103.224 171.224 108 165.333 108H100C88.9543 108 80 116.954 80 128V88Z" fill="url(#paint7_linear_8754_85353)"/>
<path d="M80 88C80 76.9543 88.9543 68 100 68H165.333C171.224 68 176 72.7756 176 78.6667V97.3333C176 103.224 171.224 108 165.333 108H100C88.9543 108 80 116.954 80 128V88Z" fill="url(#paint8_radial_8754_85353)" fill-opacity="0.8"/>
<rect x="10" y="142" width="104" height="104" rx="24" fill="url(#paint9_radial_8754_85353)"/>
<rect x="10" y="142" width="104" height="104" rx="24" fill="url(#paint10_radial_8754_85353)" fill-opacity="0.65"/>
<path d="M95.5984 165.998L83.5367 221.991L69.1191 221.998L61.9984 188.398L54.5444 221.998H39.9891L28.3984 166.005H40.2868L47.4384 202.958L54.5444 166.005H69.1191L76.5584 202.958L83.5367 166.005L95.5984 165.998Z" fill="white"/>
<defs>
<linearGradient id="paint0_linear_8754_85353" x1="97.1875" y1="16" x2="134.91" y2="237.749" gradientUnits="userSpaceOnUse">
<stop stop-color="#BBBBBB"/>
<stop offset="1" stop-color="#888888"/>
</linearGradient>
<linearGradient id="paint1_linear_8754_85353" x1="91.5556" y1="21" x2="125.867" y2="233.345" gradientUnits="userSpaceOnUse">
<stop stop-color="white"/>
<stop offset="1" stop-color="#EBEBEB"/>
</linearGradient>
<radialGradient id="paint2_radial_8754_85353" cx="0" cy="0" r="1" gradientTransform="matrix(86.5556 167.833 -129.833 62.9375 98.3889 76.2083)" gradientUnits="userSpaceOnUse">
<stop offset="0.177083" stop-color="white"/>
<stop offset="1" stop-color="#EFEFEF"/>
</radialGradient>
<radialGradient id="paint3_radial_8754_85353" cx="0" cy="0" r="1" gradientUnits="userSpaceOnUse" gradientTransform="translate(172.555 187.998) scale(187.307 69.7479)">
<stop offset="0.180414" stop-color="#1657F4"/>
<stop offset="0.574542" stop-color="#0036C4"/>
</radialGradient>
<linearGradient id="paint4_linear_8754_85353" x1="80" y1="146.981" x2="153.519" y2="146.981" gradientUnits="userSpaceOnUse">
<stop stop-color="#66C0FF"/>
<stop offset="0.25606" stop-color="#0094F0"/>
</linearGradient>
<radialGradient id="paint5_radial_8754_85353" cx="0" cy="0" r="1" gradientTransform="matrix(-64.7375 94.8354 -142.297 -259.268 176 101.158)" gradientUnits="userSpaceOnUse">
<stop offset="0.140259" stop-color="#D471FF"/>
<stop offset="0.830508" stop-color="#509DF5" stop-opacity="0"/>
</radialGradient>
<radialGradient id="paint6_radial_8754_85353" cx="0" cy="0" r="1" gradientUnits="userSpaceOnUse" gradientTransform="translate(161.955 165.832) rotate(90) scale(82.9439 325.27)">
<stop offset="0.283333" stop-color="#4F006F" stop-opacity="0"/>
<stop offset="1" stop-color="#4F006F"/>
</radialGradient>
<linearGradient id="paint7_linear_8754_85353" x1="80" y1="98" x2="175.976" y2="99.522" gradientUnits="userSpaceOnUse">
<stop stop-color="#9DEAFF"/>
<stop offset="0.201276" stop-color="#3BD5FF"/>
</linearGradient>
<radialGradient id="paint8_radial_8754_85353" cx="0" cy="0" r="1" gradientTransform="matrix(-91.9106 22.3585 -57.5934 -227.804 176 69.9521)" gradientUnits="userSpaceOnUse">
<stop offset="0.0606583" stop-color="#E4A7FE"/>
<stop offset="0.538869" stop-color="#E4A7FE" stop-opacity="0"/>
</radialGradient>
<radialGradient id="paint9_radial_8754_85353" cx="0" cy="0" r="1" gradientUnits="userSpaceOnUse" gradientTransform="translate(10 142) rotate(45) scale(147.078)">
<stop offset="0.0811439" stop-color="#367AF2"/>
<stop offset="0.871875" stop-color="#001A8F"/>
</radialGradient>
<radialGradient id="paint10_radial_8754_85353" cx="0" cy="0" r="1" gradientUnits="userSpaceOnUse" gradientTransform="translate(62 204.4) rotate(90) scale(72.8 82.9723)">
<stop offset="0.586954" stop-color="#2763E5" stop-opacity="0"/>
<stop offset="0.973806" stop-color="#58AAFE"/>
</radialGradient>
</defs>
</svg>
