<svg width="20" height="20" viewBox="0 0 20 20" fill="none" xmlns="http://www.w3.org/2000/svg">
<path d="M16.0863 3.33504L16.1702 3.34644L16.2524 3.36922L16.3028 3.39119C16.3687 3.42027 16.431 3.46241 16.4851 3.51652L16.5185 3.55314L16.5689 3.62069L16.5999 3.67521L16.6324 3.75008L16.6487 3.80379L16.6593 3.85669L16.6674 3.93481L16.6682 10.2125C16.6682 10.5575 16.3882 10.8373 16.0432 10.8375C15.7268 10.8375 15.4653 10.6022 15.4239 10.2971L15.4182 10.2125L15.4174 5.46558L5.46704 15.42L10.2099 15.4208C10.5261 15.421 10.7878 15.6562 10.8292 15.9612L10.8349 16.0458C10.8349 16.3622 10.5995 16.6237 10.2945 16.6651L10.2099 16.6708L3.92977 16.67L3.90535 16.6676C3.85049 16.6637 3.79836 16.6525 3.7491 16.635L3.67342 16.6025L3.65959 16.5935C3.48942 16.5015 3.3668 16.3324 3.33895 16.1329L3.33325 16.0458V9.79256C3.33325 9.44738 3.61307 9.16756 3.95825 9.16756C4.27467 9.16756 4.53617 9.40286 4.57756 9.70793L4.58325 9.79256V14.5362L14.5336 4.58341L9.79159 4.58423C9.47517 4.58423 9.21367 4.34893 9.17228 4.04386L9.16659 3.95923C9.16659 3.64282 9.40189 3.38131 9.70695 3.33993L9.79159 3.33423L16.0863 3.33504Z" fill="#424242"/>
</svg>
