<svg width="17" height="16" viewBox="0 0 17 16" fill="none" xmlns="http://www.w3.org/2000/svg">
<path d="M16 8.5C16 8.77604 15.901 9.01302 15.7031 9.21094C15.5104 9.40365 15.276 9.5 15 9.5H14V10.5547C14 10.8828 13.9323 11.1953 13.7969 11.4922C13.6667 11.7891 13.4896 12.0495 13.2656 12.2734C13.0469 12.4922 12.7891 12.6693 12.4922 12.8047C12.1953 12.9349 11.8828 13 11.5547 13H2.44531C2.11719 13 1.80469 12.9349 1.50781 12.8047C1.21094 12.6693 0.950521 12.4922 0.726562 12.2734C0.507812 12.0495 0.330729 11.7891 0.195312 11.4922C0.0651042 11.1953 0 10.8828 0 10.5547V5.44531C0 5.11719 0.0651042 4.80469 0.195312 4.50781C0.330729 4.21094 0.507812 3.95312 0.726562 3.73438C0.950521 3.51042 1.21094 3.33333 1.50781 3.20312C1.80469 3.06771 2.11719 3 2.44531 3H11.5547C11.888 3 12.2005 3.0651 12.4922 3.19531C12.7891 3.32552 13.0469 3.5026 13.2656 3.72656C13.4844 3.95052 13.6589 4.21094 13.7891 4.50781C13.9193 4.80469 13.9896 5.11719 14 5.44531V5.79688V6.5H15C15.1354 6.5 15.263 6.52604 15.3828 6.57812C15.5026 6.63021 15.6094 6.70312 15.7031 6.79688C15.7969 6.89062 15.8698 6.9974 15.9219 7.11719C15.974 7.23698 16 7.36458 16 7.5V8.5ZM13 5.5C13 5.29688 12.9609 5.10417 12.8828 4.92188C12.8047 4.73958 12.6953 4.58073 12.5547 4.44531C12.4193 4.30469 12.2604 4.19531 12.0781 4.11719C11.8958 4.03906 11.7031 4 11.5 4H2.5C2.29688 4 2.10417 4.03906 1.92188 4.11719C1.73958 4.19531 1.57812 4.30469 1.4375 4.44531C1.30208 4.58073 1.19531 4.73958 1.11719 4.92188C1.03906 5.10417 1 5.29688 1 5.5V10.5C1 10.7031 1.03906 10.8958 1.11719 11.0781C1.19531 11.2604 1.30208 11.4219 1.4375 11.5625C1.57812 11.6979 1.73958 11.8047 1.92188 11.8828C2.10417 11.9609 2.29688 12 2.5 12H11.5C11.7031 12 11.8958 11.9609 12.0781 11.8828C12.2604 11.8047 12.4193 11.6979 12.5547 11.5625C12.6953 11.4219 12.8047 11.2604 12.8828 11.0781C12.9609 10.8958 13 10.7031 13 10.5V5.5ZM8.25 5C8.45833 5 8.63542 5.07292 8.78125 5.21875C8.92708 5.36458 9 5.54167 9 5.75V10.25C9 10.4583 8.92708 10.6354 8.78125 10.7812C8.63542 10.9271 8.45833 11 8.25 11H2.75C2.54167 11 2.36458 10.9271 2.21875 10.7812C2.07292 10.6354 2 10.4583 2 10.25V5.75C2 5.54167 2.07292 5.36458 2.21875 5.21875C2.36458 5.07292 2.54167 5 2.75 5H8.25Z" fill="black" fill-opacity="0.8956"/>
</svg>
