<svg width="24" height="24" viewBox="0 0 24 24" fill="none" xmlns="http://www.w3.org/2000/svg">
<g clip-path="url(#clip0_7180_30281)">
<path d="M21.661 17.8627C21.3413 18.0302 21.0115 18.1778 20.6735 18.3046C19.5971 18.7071 18.4571 18.9124 17.3079 18.9106C12.8715 18.9106 9.00697 15.8588 9.00697 11.9429C9.01274 11.418 9.15849 10.9041 9.42919 10.4544C9.69989 10.0047 10.0857 9.63533 10.5468 9.38452C6.5348 9.55273 5.50342 13.7345 5.50342 16.1843C5.50342 23.1098 11.8868 23.8127 13.2622 23.8127C14.1217 23.7791 14.9734 23.6355 15.7964 23.3853C15.8374 23.3717 15.8784 23.3578 15.9192 23.3438C18.5022 22.4501 20.7038 20.7037 22.1619 18.3919C22.2059 18.3212 22.2252 18.2379 22.2168 18.1551C22.2085 18.0723 22.1729 17.9945 22.1156 17.934C22.0584 17.8736 21.9828 17.8338 21.9005 17.8208C21.8182 17.8079 21.734 17.8226 21.661 17.8627Z" fill="url(#paint0_linear_7180_30281)"/>
<path opacity="0.35" d="M21.661 17.8627C21.3413 18.0302 21.0115 18.1778 20.6735 18.3046C19.5971 18.7071 18.4571 18.9124 17.3079 18.9106C12.8715 18.9106 9.00697 15.8588 9.00697 11.9429C9.01274 11.418 9.15849 10.9041 9.42919 10.4544C9.69989 10.0047 10.0857 9.63533 10.5468 9.38452C6.5348 9.55273 5.50342 13.7345 5.50342 16.1843C5.50342 23.1098 11.8868 23.8127 13.2622 23.8127C14.1217 23.7791 14.9734 23.6355 15.7964 23.3853C15.8374 23.3717 15.8784 23.3578 15.9192 23.3438C18.5022 22.4501 20.7038 20.7037 22.1619 18.3919C22.2059 18.3212 22.2252 18.2379 22.2168 18.1551C22.2085 18.0723 22.1729 17.9945 22.1156 17.934C22.0584 17.8736 21.9828 17.8338 21.9005 17.8208C21.8182 17.8079 21.734 17.8226 21.661 17.8627Z" fill="url(#paint1_radial_7180_30281)"/>
<path d="M9.90984 22.6326C9.07338 22.1127 8.34881 21.4315 7.77842 20.6287C7.12903 19.737 6.68235 18.7143 6.46963 17.6319C6.25692 16.5496 6.28331 15.4338 6.54696 14.3628C6.81062 13.2917 7.30516 12.2912 7.99598 11.4313C8.6868 10.5713 9.5572 9.87278 10.5463 9.38447C10.9944 9.14264 11.4945 9.0128 12.0037 9.00602C12.4716 9.00916 12.9324 9.12049 13.3501 9.3313C13.7679 9.54212 14.1312 9.8467 14.4116 10.2212C14.7904 10.7267 14.999 11.3392 15.0077 11.9707C15.008 11.951 17.3012 4.50781 7.5031 4.50781C3.38814 4.50781 -0.000577833 8.41432 -0.000577833 11.8405C-0.0173388 13.6542 0.370662 15.4488 1.13516 17.0936C2.38403 19.756 4.56673 21.8674 7.26913 23.0271C9.97153 24.1869 13.0056 24.3143 15.7958 23.3853C14.8186 23.6931 13.7864 23.7852 12.7702 23.6553C11.754 23.5253 10.7781 23.1764 9.90984 22.6326V22.6326Z" fill="url(#paint2_linear_7180_30281)"/>
<path opacity="0.41" d="M9.90984 22.6326C9.07338 22.1127 8.34881 21.4315 7.77842 20.6287C7.12903 19.737 6.68235 18.7143 6.46963 17.6319C6.25692 16.5496 6.28331 15.4338 6.54696 14.3628C6.81062 13.2917 7.30516 12.2912 7.99598 11.4313C8.6868 10.5713 9.5572 9.87278 10.5463 9.38447C10.9944 9.14264 11.4945 9.0128 12.0037 9.00602C12.4716 9.00916 12.9324 9.12049 13.3501 9.3313C13.7679 9.54212 14.1312 9.8467 14.4116 10.2212C14.7904 10.7267 14.999 11.3392 15.0077 11.9707C15.008 11.951 17.3012 4.50781 7.5031 4.50781C3.38814 4.50781 -0.000577833 8.41432 -0.000577833 11.8405C-0.0173388 13.6542 0.370662 15.4488 1.13516 17.0936C2.38403 19.756 4.56673 21.8674 7.26913 23.0271C9.97153 24.1869 13.0056 24.3143 15.7958 23.3853C14.8186 23.6931 13.7864 23.7852 12.7702 23.6553C11.754 23.5253 10.7781 23.1764 9.90984 22.6326V22.6326Z" fill="url(#paint3_radial_7180_30281)"/>
<path d="M14.28 13.9554C14.204 14.0538 13.9703 14.1895 13.9703 14.4864C13.9838 14.6267 14.0312 14.7616 14.1083 14.8796C14.1854 14.9975 14.2899 15.0951 14.413 15.1638C15.7611 16.1047 18.3023 15.9779 18.309 15.9779C19.3084 15.9746 20.2886 15.703 21.1472 15.1916C22.0136 14.6858 22.7327 13.9623 23.2331 13.0927C23.7335 12.2232 23.9979 11.238 24 10.2347C24.0109 8.79316 23.6445 7.37379 22.9372 6.11759C20.9504 2.23462 16.6616 1.58534e-07 11.9985 1.58534e-07C8.84508 -0.000512138 5.81829 1.2406 3.57301 3.45479C1.32774 5.66897 0.0445503 8.67817 0.00109863 11.8313C0.0456636 8.40538 3.45051 5.63893 7.4979 5.63893C8.86496 5.65298 10.2112 5.97582 11.4359 6.58332C12.6516 7.18696 13.6589 8.14061 14.3281 9.32154C14.7735 10.1762 15.0075 11.1252 15.0106 12.0889C14.9622 12.7708 14.7073 13.4218 14.28 13.9554V13.9554Z" fill="url(#paint4_radial_7180_30281)"/>
<path d="M14.28 13.9554C14.204 14.0538 13.9703 14.1895 13.9703 14.4864C13.9838 14.6267 14.0312 14.7616 14.1083 14.8796C14.1854 14.9975 14.2899 15.0951 14.413 15.1638C15.7611 16.1047 18.3023 15.9779 18.309 15.9779C19.3084 15.9746 20.2886 15.703 21.1472 15.1916C22.0136 14.6858 22.7327 13.9623 23.2331 13.0927C23.7335 12.2232 23.9979 11.238 24 10.2347C24.0109 8.79316 23.6445 7.37379 22.9372 6.11759C20.9504 2.23462 16.6616 1.58534e-07 11.9985 1.58534e-07C8.84508 -0.000512138 5.81829 1.2406 3.57301 3.45479C1.32774 5.66897 0.0445503 8.67817 0.00109863 11.8313C0.0456636 8.40538 3.45051 5.63893 7.4979 5.63893C8.86496 5.65298 10.2112 5.97582 11.4359 6.58332C12.6516 7.18696 13.6589 8.14061 14.3281 9.32154C14.7735 10.1762 15.0075 11.1252 15.0106 12.0889C14.9622 12.7708 14.7073 13.4218 14.28 13.9554V13.9554Z" fill="url(#paint5_radial_7180_30281)"/>
</g>
<defs>
<linearGradient id="paint0_linear_7180_30281" x1="5.50342" y1="16.5986" x2="22.2223" y2="16.5986" gradientUnits="userSpaceOnUse">
<stop stop-color="#0C59A4"/>
<stop offset="1" stop-color="#114A8B"/>
</linearGradient>
<radialGradient id="paint1_radial_7180_30281" cx="0" cy="0" r="1" gradientUnits="userSpaceOnUse" gradientTransform="translate(14.7379 16.7235) scale(8.94225 8.5047)">
<stop offset="0.71659" stop-opacity="0"/>
<stop offset="0.9459" stop-opacity="0.53"/>
<stop offset="1"/>
</radialGradient>
<linearGradient id="paint2_linear_7180_30281" x1="14.3172" y1="9.34542" x2="3.87392" y2="20.7206" gradientUnits="userSpaceOnUse">
<stop stop-color="#1B9DE2"/>
<stop offset="0.16164" stop-color="#1595DF"/>
<stop offset="0.66749" stop-color="#0680D7"/>
<stop offset="1" stop-color="#0078D4"/>
</linearGradient>
<radialGradient id="paint3_radial_7180_30281" cx="0" cy="0" r="1" gradientUnits="userSpaceOnUse" gradientTransform="translate(6.68425 18.6248) rotate(-81.464) scale(13.4283 10.8206)">
<stop offset="0.76293" stop-opacity="0"/>
<stop offset="0.9459" stop-opacity="0.5"/>
<stop offset="1"/>
</radialGradient>
<radialGradient id="paint4_radial_7180_30281" cx="0" cy="0" r="1" gradientUnits="userSpaceOnUse" gradientTransform="translate(2.36622 4.38801) rotate(92.129) scale(18.9779 40.4198)">
<stop stop-color="#35C1F1"/>
<stop offset="0.11079" stop-color="#34C1ED"/>
<stop offset="0.23164" stop-color="#2FC2DF"/>
<stop offset="0.31446" stop-color="#2BC3D2"/>
<stop offset="0.67338" stop-color="#36C752"/>
</radialGradient>
<radialGradient id="paint5_radial_7180_30281" cx="0" cy="0" r="1" gradientUnits="userSpaceOnUse" gradientTransform="translate(22.7321 7.27263) rotate(73.6747) scale(9.12542 7.45043)">
<stop stop-color="#66EB6E"/>
<stop offset="1" stop-color="#66EB6E" stop-opacity="0"/>
</radialGradient>
<clipPath id="clip0_7180_30281">
<rect width="24" height="24" fill="white"/>
</clipPath>
</defs>
</svg>
