<svg width="68" height="68" viewBox="0 0 68 68" fill="none" xmlns="http://www.w3.org/2000/svg">
<g clip-path="url(#clip0_95_688)">
<circle cx="33.6" cy="33.6" r="33.6" fill="#0D345C"/>
<path d="M40.5089 30.4794L41.4258 34.4605L39.7882 53.6422L41.7982 52.9827L49.5418 27.8698L61.1452 24.5238C62.6266 24.0424 64.2674 23.1332 65.2844 22.4737C64.9281 21.442 64.5579 20.4439 64.1055 19.4527C62.9283 19.4446 61.1972 19.5352 59.8359 19.8832L48.2565 23.2372L28.5772 6.04215L26.5312 6.56002L37.9384 21.9709L39.2877 25.8145L28.3249 28.9864L0.368652 38.6106C0.456739 39.1932 0.547275 39.8045 0.663389 40.379L29.6382 33.615L40.5089 30.4794Z" fill="#FEC402"/>
</g>
<defs>
<clipPath id="clip0_95_688">
<path d="M0 4C0 1.79086 1.79086 0 4 0H63.2C65.4091 0 67.2 1.79086 67.2 4V63.2C67.2 65.4091 65.4091 67.2 63.2 67.2H4C1.79086 67.2 0 65.4091 0 63.2V4Z" fill="white"/>
</clipPath>
</defs>
</svg>
