<svg width="16" height="16" viewBox="0 0 16 16" fill="none" xmlns="http://www.w3.org/2000/svg">
<path d="M8 0C3.58201 0 0 3.58149 0 7.99948L8 8V0Z" fill="url(#paint0_linear_2_209)"/>
<path d="M16 8C16 3.58172 12.4183 0 8 0V8H16Z" fill="url(#paint1_linear_2_209)"/>
<path d="M8 8H0C0 12.4183 3.58172 16 8 16V8Z" fill="url(#paint2_linear_2_209)"/>
<path d="M8 16C12.4183 16 16 12.4183 16 8H8V16Z" fill="url(#paint3_linear_2_209)"/>
<path opacity="0.75" d="M2.89488 12.443L5.80109 6.04936C5.85111 5.93931 5.93931 5.8511 6.04937 5.80108L12.443 2.89487C12.8636 2.70369 13.2963 3.13637 13.1051 3.55696L10.1989 9.95062C10.1489 10.0607 10.0607 10.1489 9.95062 10.1989L3.55696 13.1051C3.13637 13.2963 2.7037 12.8636 2.89488 12.443Z" fill="white"/>
<g filter="url(#filter0_dd_2_209)">
<path d="M2.89456 3.55667C2.70384 3.13631 3.13631 2.70384 3.55667 2.89456L9.95023 5.80081C10.0603 5.85083 10.1492 5.93978 10.1992 6.04983L13.1055 12.4434C13.2961 12.8637 12.8637 13.2961 12.4434 13.1055L6.04983 10.1992C5.93978 10.1492 5.85084 10.0603 5.80081 9.95022L2.89456 3.55667Z" fill="url(#paint4_linear_2_209)"/>
</g>
<path d="M8 9.33332C8.73638 9.33332 9.33333 8.73637 9.33333 7.99999C9.33333 7.26361 8.73638 6.66666 8 6.66666C7.26362 6.66666 6.66667 7.26361 6.66667 7.99999C6.66667 8.73637 7.26362 9.33332 8 9.33332Z" fill="url(#paint5_linear_2_209)"/>
<defs>
<filter id="filter0_dd_2_209" x="1.84819" y="1.84819" width="12.3036" height="12.3036" filterUnits="userSpaceOnUse" color-interpolation-filters="sRGB">
<feFlood flood-opacity="0" result="BackgroundImageFix"/>
<feColorMatrix in="SourceAlpha" type="matrix" values="0 0 0 0 0 0 0 0 0 0 0 0 0 0 0 0 0 0 127 0" result="hardAlpha"/>
<feOffset/>
<feGaussianBlur stdDeviation="0.166667"/>
<feColorMatrix type="matrix" values="0 0 0 0 0 0 0 0 0 0 0 0 0 0 0 0 0 0 0.2 0"/>
<feBlend mode="normal" in2="BackgroundImageFix" result="effect1_dropShadow_2_209"/>
<feColorMatrix in="SourceAlpha" type="matrix" values="0 0 0 0 0 0 0 0 0 0 0 0 0 0 0 0 0 0 127 0" result="hardAlpha"/>
<feOffset/>
<feGaussianBlur stdDeviation="0.5"/>
<feColorMatrix type="matrix" values="0 0 0 0 0 0 0 0 0 0 0 0 0 0 0 0 0 0 0.3 0"/>
<feBlend mode="normal" in2="effect1_dropShadow_2_209" result="effect2_dropShadow_2_209"/>
<feBlend mode="normal" in="SourceGraphic" in2="effect2_dropShadow_2_209" result="shape"/>
</filter>
<linearGradient id="paint0_linear_2_209" x1="15.6364" y1="8.72727" x2="5.09091" y2="-3.63636" gradientUnits="userSpaceOnUse">
<stop stop-color="#0078D4"/>
<stop offset="1" stop-color="#28AFEA"/>
</linearGradient>
<linearGradient id="paint1_linear_2_209" x1="18.5455" y1="10.5455" x2="11.6364" y2="-1.81818" gradientUnits="userSpaceOnUse">
<stop stop-color="#1493DF"/>
<stop offset="1" stop-color="#50E6FF"/>
</linearGradient>
<linearGradient id="paint2_linear_2_209" x1="5.81818" y1="16.3636" x2="0.0722114" y2="9.45138" gradientUnits="userSpaceOnUse">
<stop stop-color="#0C59A4"/>
<stop offset="1" stop-color="#0078D4"/>
</linearGradient>
<linearGradient id="paint3_linear_2_209" x1="16" y1="18.5455" x2="5.24199" y2="6.59119" gradientUnits="userSpaceOnUse">
<stop stop-color="#0078D4"/>
<stop offset="1" stop-color="#28AFEA"/>
</linearGradient>
<linearGradient id="paint4_linear_2_209" x1="5.18993" y1="1.32606" x2="8.00001" y2="12.5664" gradientUnits="userSpaceOnUse">
<stop offset="0.270833" stop-color="white"/>
<stop offset="1" stop-color="#DFDFDF"/>
</linearGradient>
<linearGradient id="paint5_linear_2_209" x1="8.66525" y1="9.15223" x2="7.33475" y2="6.84775" gradientUnits="userSpaceOnUse">
<stop stop-color="#0C59A4"/>
<stop offset="1" stop-color="#28AFEA"/>
</linearGradient>
</defs>
</svg>
