<svg width="20" height="20" viewBox="0 0 20 20" fill="none" xmlns="http://www.w3.org/2000/svg">
<path opacity="0.67" d="M17 1H7C5.89543 1 5 1.89543 5 3V6.10102C5.32911 6.03384 5.66415 6 6 6V3C6 2.44772 6.44772 2 7 2L17 2C17.5523 2 18 2.44771 18 3V17C18 17.5523 17.5523 18 17 18H7C6.44772 18 6 17.5523 6 17L6 16H5V17C5 18.1046 5.89543 19 7 19H17C18.1046 19 19 18.1046 19 17V3C19 1.89543 18.1046 1 17 1Z" fill="#605E5C"/>
<path d="M6 3C6 2.44772 6.44772 2 7 2L17 2C17.5523 2 18 2.44771 18 3V17C18 17.5523 17.5523 18 17 18H7C6.44772 18 6 17.5523 6 17L6 16C6.98891 16 7.95561 15.7068 8.77785 15.1573C9.6001 14.6079 10.241 13.827 10.6194 12.9134C10.9978 11.9998 11.0969 10.9945 10.9039 10.0245C10.711 9.05465 10.2348 8.16373 9.53553 7.46447C8.83627 6.76521 7.94536 6.289 6.97545 6.09608C6.65266 6.03187 6.32595 6 6 6V3Z" fill="white"/>
<path d="M1 11C1 10.0111 1.29324 9.0444 1.84265 8.22215C2.39206 7.3999 3.17295 6.75904 4.08658 6.3806C5.00021 6.00217 6.00555 5.90315 6.97545 6.09608C7.94535 6.289 8.83627 6.76521 9.53553 7.46447C10.2348 8.16373 10.711 9.05465 10.9039 10.0245C11.0969 10.9945 10.9978 11.9998 10.6194 12.9134C10.241 13.827 9.60009 14.6079 8.77785 15.1573C7.9556 15.7068 6.9889 16 6 16H4.08C4.59745 15.6124 5.0177 15.1098 5.30753 14.5319C5.59736 13.9539 5.74884 13.3165 5.75 12.67H6C6.33029 12.67 6.65317 12.5721 6.9278 12.3886C7.20243 12.2051 7.41648 11.9442 7.54288 11.6391C7.66928 11.3339 7.70235 10.9981 7.63791 10.6742C7.57347 10.3503 7.41442 10.0527 7.18087 9.81913C6.94731 9.58558 6.64975 9.42653 6.3258 9.36209C6.00185 9.29765 5.66607 9.33072 5.36092 9.45712C5.05577 9.58352 4.79495 9.79757 4.61145 10.0722C4.42794 10.3468 4.33 10.6697 4.33 11V12.67C4.32891 13.4078 4.0828 14.1244 3.6303 14.7073C3.17781 15.2901 2.54456 15.7061 1.83 15.89C1.55934 15.9629 1.28029 15.9998 1 16V11Z" fill="#9354FF"/>
<path d="M11.1907 8C10.9856 7.64478 10.7439 7.31029 10.4688 7.00231L10.4945 7H16.4945C16.7707 7 16.9945 7.22386 16.9945 7.5C16.9945 7.74546 16.8177 7.94961 16.5844 7.99194L16.4945 8H11.1907Z" fill="#C2AAFE"/>
<path d="M11.1953 14C11.3258 13.774 11.4418 13.539 11.5424 13.2961C11.583 13.1982 11.6208 13.0995 11.656 13H16.4992C16.7753 13 16.9992 13.2239 16.9992 13.5C16.9992 13.7455 16.8223 13.9496 16.589 13.9919L16.4992 14H11.1953Z" fill="#9354FF"/>
<path d="M11.9219 10H16.5058C16.7819 10 17.0058 10.2239 17.0058 10.5C17.0058 10.7455 16.8289 10.9496 16.5957 10.9919L16.5058 11H12.0058C12.0058 10.6662 11.9779 10.3317 11.9219 10Z" fill="#AB85FF"/>
</svg>
