<svg width="28" height="18" viewBox="0 0 28 18" fill="none" xmlns="http://www.w3.org/2000/svg">
<path d="M27.9067 15.0407C27.9067 16.2825 21.6826 17.2893 14.0048 17.2893C6.32708 17.2893 0.103027 16.2825 0.103027 15.0407C0.103027 13.7988 6.32708 13.6967 14.0048 13.6967C21.6826 13.6967 27.9067 13.7988 27.9067 15.0407Z" fill="url(#paint0_linear_7178_25413)"/>
<path d="M17.3091 7.8768C17.3091 11.5518 15.0581 14.6525 14.272 15.6233C14.1312 15.797 13.8785 15.797 13.7378 15.6233C12.9517 14.6525 10.7007 11.5518 10.7007 7.8768C10.7007 4.20182 12.9517 1.10115 13.7378 0.130328C13.8785 -0.0434425 14.1312 -0.0434427 14.272 0.130328C15.0581 1.10115 17.3091 4.20182 17.3091 7.8768Z" fill="url(#paint1_radial_7178_25413)"/>
<path d="M17.3091 7.8768C17.3091 11.5518 15.0581 14.6525 14.272 15.6233C14.1312 15.797 13.8785 15.797 13.7378 15.6233C12.9517 14.6525 10.7007 11.5518 10.7007 7.8768C10.7007 4.20182 12.9517 1.10115 13.7378 0.130328C13.8785 -0.0434425 14.1312 -0.0434427 14.272 0.130328C15.0581 1.10115 17.3091 4.20182 17.3091 7.8768Z" fill="url(#paint2_radial_7178_25413)"/>
<path d="M7.34742 9.4962C8.27953 12.7126 10.747 14.9551 11.6907 15.7193C11.88 15.8726 12.1493 15.7945 12.2273 15.5638C12.6162 14.4135 13.5024 11.1991 12.5703 7.98265C11.6381 4.76622 9.17066 2.52371 8.22695 1.75956C8.03763 1.60627 7.76836 1.68431 7.69034 1.91507C7.30143 3.0654 6.41532 6.27976 7.34742 9.4962Z" fill="url(#paint3_radial_7178_25413)"/>
<path d="M7.34742 9.4962C8.27953 12.7126 10.747 14.9551 11.6907 15.7193C11.88 15.8726 12.1493 15.7945 12.2273 15.5638C12.6162 14.4135 13.5024 11.1991 12.5703 7.98265C11.6381 4.76622 9.17066 2.52371 8.22695 1.75956C8.03763 1.60627 7.76836 1.68431 7.69034 1.91507C7.30143 3.0654 6.41532 6.27976 7.34742 9.4962Z" fill="url(#paint4_radial_7178_25413)"/>
<path d="M7.34742 9.4962C8.27953 12.7126 10.747 14.9551 11.6907 15.7193C11.88 15.8726 12.1493 15.7945 12.2273 15.5638C12.6162 14.4135 13.5024 11.1991 12.5703 7.98265C11.6381 4.76622 9.17066 2.52371 8.22695 1.75956C8.03763 1.60627 7.76836 1.68431 7.69034 1.91507C7.30143 3.0654 6.41532 6.27976 7.34742 9.4962Z" fill="url(#paint5_radial_7178_25413)"/>
<path d="M20.4255 9.4962C19.4934 12.7126 17.0259 14.9551 16.0822 15.7193C15.8929 15.8726 15.6236 15.7945 15.5456 15.5638C15.1567 14.4135 14.2706 11.1991 15.2027 7.98265C16.1348 4.76622 18.6023 2.52371 19.546 1.75956C19.7353 1.60627 20.0046 1.68431 20.0826 1.91507C20.4715 3.0654 21.3576 6.27976 20.4255 9.4962Z" fill="url(#paint6_radial_7178_25413)"/>
<path d="M20.4255 9.4962C19.4934 12.7126 17.0259 14.9551 16.0822 15.7193C15.8929 15.8726 15.6236 15.7945 15.5456 15.5638C15.1567 14.4135 14.2706 11.1991 15.2027 7.98265C16.1348 4.76622 18.6023 2.52371 19.546 1.75956C19.7353 1.60627 20.0046 1.68431 20.0826 1.91507C20.4715 3.0654 21.3576 6.27976 20.4255 9.4962Z" fill="url(#paint7_radial_7178_25413)"/>
<path d="M20.4255 9.4962C19.4934 12.7126 17.0259 14.9551 16.0822 15.7193C15.8929 15.8726 15.6236 15.7945 15.5456 15.5638C15.1567 14.4135 14.2706 11.1991 15.2027 7.98265C16.1348 4.76622 18.6023 2.52371 19.546 1.75956C19.7353 1.60627 20.0046 1.68431 20.0826 1.91507C20.4715 3.0654 21.3576 6.27976 20.4255 9.4962Z" fill="url(#paint8_radial_7178_25413)"/>
<path d="M5.75356 12.5005C7.87182 15.2667 9.71278 15.766 11.0334 14.7547C12.354 13.7434 12.3519 11.836 10.2336 9.06982C8.54376 6.8631 5.17719 5.42015 3.88459 4.92676C3.63402 4.83111 3.38197 5.02413 3.40898 5.29097C3.54833 6.6675 4.06371 10.2938 5.75356 12.5005Z" fill="url(#paint9_radial_7178_25413)"/>
<path d="M5.75356 12.5005C7.87182 15.2667 9.71278 15.766 11.0334 14.7547C12.354 13.7434 12.3519 11.836 10.2336 9.06982C8.54376 6.8631 5.17719 5.42015 3.88459 4.92676C3.63402 4.83111 3.38197 5.02413 3.40898 5.29097C3.54833 6.6675 4.06371 10.2938 5.75356 12.5005Z" fill="url(#paint10_radial_7178_25413)"/>
<path d="M5.75356 12.5005C7.87182 15.2667 9.71278 15.766 11.0334 14.7547C12.354 13.7434 12.3519 11.836 10.2336 9.06982C8.54376 6.8631 5.17719 5.42015 3.88459 4.92676C3.63402 4.83111 3.38197 5.02413 3.40898 5.29097C3.54833 6.6675 4.06371 10.2938 5.75356 12.5005Z" fill="url(#paint11_radial_7178_25413)"/>
<path d="M22.0199 12.5005C19.9016 15.2667 18.0607 15.766 16.7401 14.7547C15.4195 13.7434 15.4216 11.836 17.5398 9.06982C19.2297 6.8631 22.5962 5.42015 23.8888 4.92676C24.1394 4.83111 24.3915 5.02413 24.3645 5.29097C24.2251 6.6675 23.7097 10.2938 22.0199 12.5005Z" fill="url(#paint12_radial_7178_25413)"/>
<path d="M22.0199 12.5005C19.9016 15.2667 18.0607 15.766 16.7401 14.7547C15.4195 13.7434 15.4216 11.836 17.5398 9.06982C19.2297 6.8631 22.5962 5.42015 23.8888 4.92676C24.1394 4.83111 24.3915 5.02413 24.3645 5.29097C24.2251 6.6675 23.7097 10.2938 22.0199 12.5005Z" fill="url(#paint13_radial_7178_25413)"/>
<path d="M22.0199 12.5005C19.9016 15.2667 18.0607 15.766 16.7401 14.7547C15.4195 13.7434 15.4216 11.836 17.5398 9.06982C19.2297 6.8631 22.5962 5.42015 23.8888 4.92676C24.1394 4.83111 24.3915 5.02413 24.3645 5.29097C24.2251 6.6675 23.7097 10.2938 22.0199 12.5005Z" fill="url(#paint14_radial_7178_25413)"/>
<path d="M5.44941 14.8917C8.6302 16.3039 12.0277 15.9239 13.2991 15.7057C13.5563 15.6616 13.6678 15.3778 13.5113 15.1689C12.7815 14.1944 10.7663 11.8088 7.62935 10.416C4.724 9.12611 2.93775 8.53993 2.17334 8.31469C1.9471 8.24802 1.73037 8.40971 1.73733 8.64547C1.77436 9.89986 2.17633 13.4386 5.44941 14.8917Z" fill="url(#paint15_radial_7178_25413)"/>
<path d="M5.44941 14.8917C8.6302 16.3039 12.0277 15.9239 13.2991 15.7057C13.5563 15.6616 13.6678 15.3778 13.5113 15.1689C12.7815 14.1944 10.7663 11.8088 7.62935 10.416C4.724 9.12611 2.93775 8.53993 2.17334 8.31469C1.9471 8.24802 1.73037 8.40971 1.73733 8.64547C1.77436 9.89986 2.17633 13.4386 5.44941 14.8917Z" fill="url(#paint16_radial_7178_25413)"/>
<path d="M22.3235 14.8917C19.1428 16.3039 15.7452 15.9239 14.4738 15.7057C14.2166 15.6616 14.1052 15.3778 14.2616 15.1689C14.9915 14.1944 17.0066 11.8088 20.1436 10.416C23.049 9.12611 24.8352 8.53993 25.5996 8.31469C25.8259 8.24802 26.0426 8.40971 26.0356 8.64547C25.9986 9.89986 25.5966 13.4386 22.3235 14.8917Z" fill="url(#paint17_radial_7178_25413)"/>
<path d="M22.3235 14.8917C19.1428 16.3039 15.7452 15.9239 14.4738 15.7057C14.2166 15.6616 14.1052 15.3778 14.2616 15.1689C14.9915 14.1944 17.0066 11.8088 20.1436 10.416C23.049 9.12611 24.8352 8.53993 25.5996 8.31469C25.8259 8.24802 26.0426 8.40971 26.0356 8.64547C25.9986 9.89986 25.5966 13.4386 22.3235 14.8917Z" fill="url(#paint18_radial_7178_25413)"/>
<path fill-rule="evenodd" clip-rule="evenodd" d="M18.0426 5.63449C17.8166 5.38022 17.4273 5.35732 17.173 5.58334C15.9636 6.65832 15.1896 8.07582 14.7095 9.38075C14.2293 10.6862 14.0269 11.9234 13.9897 12.687C13.9731 13.0268 14.2351 13.3157 14.5749 13.3323C14.9147 13.3489 15.2036 13.0869 15.2202 12.7471C15.2514 12.1076 15.4289 10.9937 15.8658 9.8061C16.3029 8.61795 16.9833 7.40035 17.9915 6.50414C18.2458 6.27812 18.2687 5.88877 18.0426 5.63449Z" fill="url(#paint19_linear_7178_25413)"/>
<path fill-rule="evenodd" clip-rule="evenodd" d="M18.0426 5.63449C17.8166 5.38022 17.4273 5.35732 17.173 5.58334C15.9636 6.65832 15.1896 8.07582 14.7095 9.38075C14.2293 10.6862 14.0269 11.9234 13.9897 12.687C13.9731 13.0268 14.2351 13.3157 14.5749 13.3323C14.9147 13.3489 15.2036 13.0869 15.2202 12.7471C15.2514 12.1076 15.4289 10.9937 15.8658 9.8061C16.3029 8.61795 16.9833 7.40035 17.9915 6.50414C18.2458 6.27812 18.2687 5.88877 18.0426 5.63449Z" fill="url(#paint20_radial_7178_25413)"/>
<path fill-rule="evenodd" clip-rule="evenodd" d="M11.0189 4.10382C11.2887 3.89666 11.6754 3.94748 11.8826 4.21734C12.9786 5.64508 13.6127 7.46437 13.9686 9.12036C14.3257 10.7818 14.4145 12.3342 14.3845 13.2739C14.3736 13.6139 14.0892 13.8808 13.7492 13.8699C13.4091 13.8591 13.1423 13.5747 13.1531 13.2346C13.18 12.3923 13.0995 10.94 12.7641 9.37923C12.4274 7.81295 11.8456 6.19235 10.9054 4.96755C10.6982 4.69769 10.749 4.31099 11.0189 4.10382Z" fill="url(#paint21_linear_7178_25413)"/>
<path fill-rule="evenodd" clip-rule="evenodd" d="M11.0189 4.10382C11.2887 3.89666 11.6754 3.94748 11.8826 4.21734C12.9786 5.64508 13.6127 7.46437 13.9686 9.12036C14.3257 10.7818 14.4145 12.3342 14.3845 13.2739C14.3736 13.6139 14.0892 13.8808 13.7492 13.8699C13.4091 13.8591 13.1423 13.5747 13.1531 13.2346C13.18 12.3923 13.0995 10.94 12.7641 9.37923C12.4274 7.81295 11.8456 6.19235 10.9054 4.96755C10.6982 4.69769 10.749 4.31099 11.0189 4.10382Z" fill="url(#paint22_radial_7178_25413)"/>
<path fill-rule="evenodd" clip-rule="evenodd" d="M9.82113 5.66294C10.0353 5.39861 10.4232 5.35796 10.6875 5.57213C11.9447 6.59079 12.7827 7.97147 13.3218 9.25312C13.8612 10.5353 14.1198 11.7619 14.1919 12.5231C14.2239 12.8618 13.9754 13.1623 13.6367 13.1944C13.298 13.2265 12.9974 12.9779 12.9654 12.6392C12.905 12.0019 12.6768 10.8972 12.1862 9.73081C11.6953 8.56386 10.96 7.37859 9.91194 6.52935C9.64761 6.31517 9.60695 5.92727 9.82113 5.66294Z" fill="url(#paint23_linear_7178_25413)"/>
<path fill-rule="evenodd" clip-rule="evenodd" d="M9.82113 5.66294C10.0353 5.39861 10.4232 5.35796 10.6875 5.57213C11.9447 6.59079 12.7827 7.97147 13.3218 9.25312C13.8612 10.5353 14.1198 11.7619 14.1919 12.5231C14.2239 12.8618 13.9754 13.1623 13.6367 13.1944C13.298 13.2265 12.9974 12.9779 12.9654 12.6392C12.905 12.0019 12.6768 10.8972 12.1862 9.73081C11.6953 8.56386 10.96 7.37859 9.91194 6.52935C9.64761 6.31517 9.60695 5.92727 9.82113 5.66294Z" fill="url(#paint24_radial_7178_25413)"/>
<path fill-rule="evenodd" clip-rule="evenodd" d="M16.7668 4.10382C16.4969 3.89666 16.1102 3.94748 15.9031 4.21734C14.807 5.64508 14.173 7.46437 13.8171 9.12036C13.46 10.7818 13.3712 12.3342 13.4012 13.2739C13.412 13.6139 13.6965 13.8808 14.0365 13.8699C14.3765 13.8591 14.6434 13.5747 14.6325 13.2346C14.6057 12.3923 14.6861 10.94 15.0216 9.37923C15.3582 7.81295 15.94 6.19235 16.8803 4.96755C17.0875 4.69769 17.0366 4.31099 16.7668 4.10382Z" fill="url(#paint25_linear_7178_25413)"/>
<path fill-rule="evenodd" clip-rule="evenodd" d="M16.7668 4.10382C16.4969 3.89666 16.1102 3.94748 15.9031 4.21734C14.807 5.64508 14.173 7.46437 13.8171 9.12036C13.46 10.7818 13.3712 12.3342 13.4012 13.2739C13.412 13.6139 13.6965 13.8808 14.0365 13.8699C14.3765 13.8591 14.6434 13.5747 14.6325 13.2346C14.6057 12.3923 14.6861 10.94 15.0216 9.37923C15.3582 7.81295 15.94 6.19235 16.8803 4.96755C17.0875 4.69769 17.0366 4.31099 16.7668 4.10382Z" fill="url(#paint26_radial_7178_25413)"/>
<path fill-rule="evenodd" clip-rule="evenodd" d="M12.7279 2.97255C13.0235 2.80403 13.3996 2.90698 13.5682 3.20251C14.4722 4.78781 14.7453 6.75882 14.7701 8.50441C14.7951 10.2625 14.5685 11.8654 14.4162 12.7615C14.3592 13.0969 14.0411 13.3226 13.7057 13.2656C13.3703 13.2086 13.1446 12.8905 13.2016 12.5551C13.348 11.6934 13.5617 10.1735 13.5383 8.52191C13.5146 6.85784 13.2505 5.13242 12.498 3.81281C12.3294 3.51728 12.4324 3.14108 12.7279 2.97255Z" fill="url(#paint27_linear_7178_25413)"/>
<path fill-rule="evenodd" clip-rule="evenodd" d="M12.7279 2.97255C13.0235 2.80403 13.3996 2.90698 13.5682 3.20251C14.4722 4.78781 14.7453 6.75882 14.7701 8.50441C14.7951 10.2625 14.5685 11.8654 14.4162 12.7615C14.3592 13.0969 14.0411 13.3226 13.7057 13.2656C13.3703 13.2086 13.1446 12.8905 13.2016 12.5551C13.348 11.6934 13.5617 10.1735 13.5383 8.52191C13.5146 6.85784 13.2505 5.13242 12.498 3.81281C12.3294 3.51728 12.4324 3.14108 12.7279 2.97255Z" fill="url(#paint28_radial_7178_25413)"/>
<path d="M18.5554 13.2819C18.5554 15.987 16.6875 16.4493 14.0045 16.4493C11.3215 16.4493 9.45361 15.987 9.45361 13.2819C9.45361 10.5767 12.3565 7.34253 14.0045 7.34253C15.6525 7.34253 18.5554 10.5767 18.5554 13.2819Z" fill="url(#paint29_radial_7178_25413)"/>
<path d="M18.5554 13.2819C18.5554 15.987 16.6875 16.4493 14.0045 16.4493C11.3215 16.4493 9.45361 15.987 9.45361 13.2819C9.45361 10.5767 12.3565 7.34253 14.0045 7.34253C15.6525 7.34253 18.5554 10.5767 18.5554 13.2819Z" fill="url(#paint30_radial_7178_25413)"/>
<defs>
<linearGradient id="paint0_linear_7178_25413" x1="12.4164" y1="9.29059" x2="15.9247" y2="20.4983" gradientUnits="userSpaceOnUse">
<stop offset="0.0111732" stop-color="#9FA743"/>
<stop offset="1" stop-color="#188122"/>
</linearGradient>
<radialGradient id="paint1_radial_7178_25413" cx="0" cy="0" r="1" gradientUnits="userSpaceOnUse" gradientTransform="translate(13.3425 2.70348) rotate(76.3041) scale(11.6625 6.97794)">
<stop stop-color="#F5E2F0"/>
<stop offset="1" stop-color="#FA55A4"/>
</radialGradient>
<radialGradient id="paint2_radial_7178_25413" cx="0" cy="0" r="1" gradientUnits="userSpaceOnUse" gradientTransform="translate(12.9617 -0.185072) rotate(71.8013) scale(9.75616 5.01499)">
<stop offset="0.254286" stop-color="#C42E51" stop-opacity="0"/>
<stop offset="1" stop-color="#C42E51"/>
</radialGradient>
<radialGradient id="paint3_radial_7178_25413" cx="0" cy="0" r="1" gradientUnits="userSpaceOnUse" gradientTransform="translate(9.13075 3.92389) rotate(85.8983) scale(10.8753 5.77941)">
<stop stop-color="#F5E2F0"/>
<stop offset="1" stop-color="#FA55A4"/>
</radialGradient>
<radialGradient id="paint4_radial_7178_25413" cx="0" cy="0" r="1" gradientUnits="userSpaceOnUse" gradientTransform="translate(8.10526 2.79849) rotate(54.8336) scale(10.25 7.46537)">
<stop offset="0.466348" stop-color="#C42E51" stop-opacity="0"/>
<stop offset="1" stop-color="#C42E51"/>
</radialGradient>
<radialGradient id="paint5_radial_7178_25413" cx="0" cy="0" r="1" gradientUnits="userSpaceOnUse" gradientTransform="translate(10.8128 11.664) rotate(69.4068) scale(6.40839 2.9426)">
<stop offset="0.015625" stop-color="#F7336E" stop-opacity="0.6"/>
<stop offset="1" stop-color="#F6336E" stop-opacity="0"/>
</radialGradient>
<radialGradient id="paint6_radial_7178_25413" cx="0" cy="0" r="1" gradientUnits="userSpaceOnUse" gradientTransform="translate(17.8141 3.56023) rotate(83.1593) scale(8.82286 5.96762)">
<stop stop-color="#F5E2F0"/>
<stop offset="1" stop-color="#FA55A4"/>
</radialGradient>
<radialGradient id="paint7_radial_7178_25413" cx="0" cy="0" r="1" gradientUnits="userSpaceOnUse" gradientTransform="translate(19.6677 2.79849) rotate(125.166) scale(10.25 7.46537)">
<stop offset="0.466348" stop-color="#C42E51" stop-opacity="0"/>
<stop offset="1" stop-color="#C42E51"/>
</radialGradient>
<radialGradient id="paint8_radial_7178_25413" cx="0" cy="0" r="1" gradientUnits="userSpaceOnUse" gradientTransform="translate(16.9602 11.664) rotate(110.593) scale(6.40839 2.9426)">
<stop offset="0.015625" stop-color="#F7336E" stop-opacity="0.6"/>
<stop offset="1" stop-color="#F6336E" stop-opacity="0"/>
</radialGradient>
<radialGradient id="paint9_radial_7178_25413" cx="0" cy="0" r="1" gradientUnits="userSpaceOnUse" gradientTransform="translate(5.18574 6.18829) rotate(67.4478) scale(9.17456 5.9267)">
<stop stop-color="#F5E2F0"/>
<stop offset="1" stop-color="#FA55A4"/>
</radialGradient>
<radialGradient id="paint10_radial_7178_25413" cx="0" cy="0" r="1" gradientUnits="userSpaceOnUse" gradientTransform="translate(7.19793 3.65555) rotate(65.9532) scale(11.5736 9.91473)">
<stop offset="0.466348" stop-color="#C42E51" stop-opacity="0"/>
<stop offset="1" stop-color="#C42E51"/>
</radialGradient>
<radialGradient id="paint11_radial_7178_25413" cx="0" cy="0" r="1" gradientUnits="userSpaceOnUse" gradientTransform="translate(8.74727 11.7588) rotate(47.0454) scale(5.35131 3.04856)">
<stop offset="0.015625" stop-color="#F7336E" stop-opacity="0.6"/>
<stop offset="1" stop-color="#F6336E" stop-opacity="0"/>
</radialGradient>
<radialGradient id="paint12_radial_7178_25413" cx="0" cy="0" r="1" gradientUnits="userSpaceOnUse" gradientTransform="translate(21.1507 5.84556) rotate(103.286) scale(9.05817 5.8515)">
<stop stop-color="#F5E2F0"/>
<stop offset="1" stop-color="#FA55A4"/>
</radialGradient>
<radialGradient id="paint13_radial_7178_25413" cx="0" cy="0" r="1" gradientUnits="userSpaceOnUse" gradientTransform="translate(20.5755 3.65555) rotate(114.047) scale(11.5736 9.91473)">
<stop offset="0.466348" stop-color="#C42E51" stop-opacity="0"/>
<stop offset="1" stop-color="#C42E51"/>
</radialGradient>
<radialGradient id="paint14_radial_7178_25413" cx="0" cy="0" r="1" gradientUnits="userSpaceOnUse" gradientTransform="translate(19.0262 11.7588) rotate(132.955) scale(5.35131 3.04856)">
<stop offset="0.015625" stop-color="#F7336E" stop-opacity="0.6"/>
<stop offset="1" stop-color="#F6336E" stop-opacity="0"/>
</radialGradient>
<radialGradient id="paint15_radial_7178_25413" cx="0" cy="0" r="1" gradientUnits="userSpaceOnUse" gradientTransform="translate(4.48715 9.65423) rotate(36.5966) scale(11.9786 4.73705)">
<stop stop-color="#FFE9F1"/>
<stop offset="1" stop-color="#FA55A4"/>
</radialGradient>
<radialGradient id="paint16_radial_7178_25413" cx="0" cy="0" r="1" gradientUnits="userSpaceOnUse" gradientTransform="translate(5.63621 9.04542) rotate(58.0998) scale(9.42945 6.08737)">
<stop offset="0.59331" stop-color="#C42E51" stop-opacity="0"/>
<stop offset="1" stop-color="#C42E51"/>
</radialGradient>
<radialGradient id="paint17_radial_7178_25413" cx="0" cy="0" r="1" gradientUnits="userSpaceOnUse" gradientTransform="translate(22.9592 9.17814) rotate(140.651) scale(12.014 4.75108)">
<stop stop-color="#FFE9F1"/>
<stop offset="1" stop-color="#FA55A4"/>
</radialGradient>
<radialGradient id="paint18_radial_7178_25413" cx="0" cy="0" r="1" gradientUnits="userSpaceOnUse" gradientTransform="translate(23.9338 10.5158) rotate(145.923) scale(10.0594 4.81282)">
<stop offset="0.59331" stop-color="#C42E51" stop-opacity="0"/>
<stop offset="1" stop-color="#C42E51"/>
</radialGradient>
<linearGradient id="paint19_linear_7178_25413" x1="16.0936" y1="6.04374" x2="16.0936" y2="12.717" gradientUnits="userSpaceOnUse">
<stop stop-color="#FFE73D"/>
<stop offset="0.614583" stop-color="#F37105"/>
</linearGradient>
<radialGradient id="paint20_radial_7178_25413" cx="0" cy="0" r="1" gradientUnits="userSpaceOnUse" gradientTransform="translate(17.4322 5.74597) rotate(139.065) scale(1.26041 1.08482)">
<stop stop-color="#F4FECC"/>
<stop offset="1" stop-color="#F4FECC" stop-opacity="0"/>
</radialGradient>
<linearGradient id="paint21_linear_7178_25413" x1="12.879" y1="4.697" x2="12.2838" y2="13.1497" gradientUnits="userSpaceOnUse">
<stop stop-color="#FFE73D"/>
<stop offset="0.46875" stop-color="#F37105"/>
</linearGradient>
<radialGradient id="paint22_radial_7178_25413" cx="0" cy="0" r="1" gradientUnits="userSpaceOnUse" gradientTransform="translate(11.066 4.33258) rotate(36.0888) scale(1.70808 1.47817)">
<stop stop-color="#F4FECC"/>
<stop offset="1" stop-color="#F4FECC" stop-opacity="0"/>
</radialGradient>
<linearGradient id="paint23_linear_7178_25413" x1="11.7868" y1="5.98277" x2="12.0915" y2="12.6491" gradientUnits="userSpaceOnUse">
<stop stop-color="#FFE73D"/>
<stop offset="0.614583" stop-color="#F37105"/>
</linearGradient>
<radialGradient id="paint24_radial_7178_25413" cx="0" cy="0" r="1" gradientUnits="userSpaceOnUse" gradientTransform="translate(9.9462 5.8807) rotate(23.6395) scale(1.6141 1.23189)">
<stop stop-color="#F4FECC"/>
<stop offset="1" stop-color="#F4FECC" stop-opacity="0"/>
</radialGradient>
<linearGradient id="paint25_linear_7178_25413" x1="14.9067" y1="4.697" x2="15.5018" y2="13.1497" gradientUnits="userSpaceOnUse">
<stop stop-color="#FFE73D"/>
<stop offset="0.414053" stop-color="#F37105"/>
</linearGradient>
<radialGradient id="paint26_radial_7178_25413" cx="0" cy="0" r="1" gradientUnits="userSpaceOnUse" gradientTransform="translate(16.2155 4.22581) rotate(128.213) scale(1.41641 1.22576)">
<stop stop-color="#F4FECC"/>
<stop offset="1" stop-color="#F4FECC" stop-opacity="0"/>
</radialGradient>
<linearGradient id="paint27_linear_7178_25413" x1="14.0914" y1="4.05952" x2="12.3519" y2="12.3527" gradientUnits="userSpaceOnUse">
<stop stop-color="#FCE228"/>
<stop offset="1" stop-color="#F37105"/>
</linearGradient>
<radialGradient id="paint28_radial_7178_25413" cx="0" cy="0" r="1" gradientUnits="userSpaceOnUse" gradientTransform="translate(12.7839 3.20488) rotate(48.1221) scale(1.5908 1.45969)">
<stop stop-color="#F4FECC"/>
<stop offset="1" stop-color="#F4FECC" stop-opacity="0"/>
</radialGradient>
<radialGradient id="paint29_radial_7178_25413" cx="0" cy="0" r="1" gradientUnits="userSpaceOnUse" gradientTransform="translate(13.3422 9.74929) rotate(77.1063) scale(8.10751 8.10305)">
<stop stop-color="#F5E2F0"/>
<stop offset="1" stop-color="#FA55A4"/>
</radialGradient>
<radialGradient id="paint30_radial_7178_25413" cx="0" cy="0" r="1" gradientUnits="userSpaceOnUse" gradientTransform="translate(13.247 10.2254) rotate(60.4222) scale(8.10192 8.09746)">
<stop offset="0.59331" stop-color="#C42E51" stop-opacity="0"/>
<stop offset="1" stop-color="#C42E51"/>
</radialGradient>
</defs>
</svg>
