<svg width="41" height="41" viewBox="0 0 41 41" fill="none" xmlns="http://www.w3.org/2000/svg">
<path d="M26.75 19.5C27.1297 19.5 27.4435 19.7822 27.4932 20.1482L27.5 20.25V20.75C27.5 24.3094 24.745 27.2254 21.251 27.4817L21.25 29.75C21.25 30.1642 20.9142 30.5 20.5 30.5C20.1203 30.5 19.8065 30.2178 19.7568 29.8518L19.75 29.75L19.75 27.4818C16.3332 27.2316 13.6228 24.438 13.5041 20.9863L13.5 20.75V20.25C13.5 19.8358 13.8358 19.5 14.25 19.5C14.6297 19.5 14.9435 19.7822 14.9932 20.1482L15 20.25V20.75C15 23.577 17.2344 25.8821 20.0336 25.9956L20.25 26H20.75C23.577 26 25.8821 23.7656 25.9956 20.9664L26 20.75V20.25C26 19.8358 26.3358 19.5 26.75 19.5ZM20.5 10.5C22.7091 10.5 24.5 12.2909 24.5 14.5V20.5C24.5 22.7091 22.7091 24.5 20.5 24.5C18.2909 24.5 16.5 22.7091 16.5 20.5V14.5C16.5 12.2909 18.2909 10.5 20.5 10.5ZM20.5 12C19.1193 12 18 13.1193 18 14.5V20.5C18 21.8807 19.1193 23 20.5 23C21.8807 23 23 21.8807 23 20.5V14.5C23 13.1193 21.8807 12 20.5 12Z" fill="#424242"/>
</svg>
