<svg width="256" height="256" viewBox="0 0 256 256" fill="none" xmlns="http://www.w3.org/2000/svg">
<path d="M31.998 187.634C31.998 163.535 51.5347 143.998 75.6344 143.998L223.998 143.998V226.638C223.998 238.435 214.435 247.998 202.638 247.998H71.998C49.9067 247.998 31.998 230.089 31.998 207.998V187.634Z" fill="url(#paint0_radial_182_8812)"/>
<path d="M135.998 63.998H223.998V146.638C223.998 158.435 214.435 167.998 202.638 167.998H135.998V63.998Z" fill="url(#paint1_linear_182_8812)"/>
<path d="M32.0371 47.998C32.0371 25.9067 49.9491 7.99805 72.0404 7.99805C116.057 7.99805 157.909 7.99805 202.63 7.99805C214.427 7.99805 223.994 17.5612 223.994 29.358V66.638C223.994 78.4348 214.431 87.998 202.634 87.998H181.354C169.558 87.998 159.994 97.5612 159.994 109.358V146.638C159.994 158.435 150.431 167.998 138.634 167.998H71.9981C49.913 167.998 32.0155 185.913 32.0371 207.998V47.998Z" fill="url(#paint2_linear_182_8812)"/>
<path d="M32.0371 47.998C32.0371 25.9067 49.9491 7.99805 72.0404 7.99805C116.057 7.99805 157.909 7.99805 202.63 7.99805C214.427 7.99805 223.994 17.5612 223.994 29.358V66.638C223.994 78.4348 214.431 87.998 202.634 87.998H181.354C169.558 87.998 159.994 97.5612 159.994 109.358V146.638C159.994 158.435 150.431 167.998 138.634 167.998H71.9981C49.913 167.998 32.0155 185.913 32.0371 207.998V47.998Z" fill="url(#paint3_radial_182_8812)"/>
<rect y="119.998" width="104" height="104" rx="21" fill="url(#paint4_radial_182_8812)"/>
<rect y="119.998" width="104" height="104" rx="21" fill="url(#paint5_radial_182_8812)" fill-opacity="0.8"/>
<path d="M77.1953 199.998H64.4609L41.375 165.437C40.724 164.396 40.1771 163.498 39.7344 162.743C39.2917 161.962 38.9531 161.311 38.7188 160.79H38.5625C38.6146 161.78 38.6536 163.029 38.6797 164.539C38.7057 166.049 38.7188 167.82 38.7188 169.85V199.998H26.8047V143.998H40.3984L62.625 177.465C63.0938 178.22 63.5495 178.988 63.9922 179.769C64.4609 180.524 64.8906 181.279 65.2812 182.034H65.4375C65.3854 181.383 65.3464 180.42 65.3203 179.144C65.2943 177.843 65.2812 176.242 65.2812 174.341V143.998H77.1953V199.998Z" fill="white"/>
<defs>
<radialGradient id="paint0_radial_182_8812" cx="0" cy="0" r="1" gradientUnits="userSpaceOnUse" gradientTransform="translate(218.401 247.998) scale(304.469 139)">
<stop offset="0.158518" stop-color="#A931D8"/>
<stop offset="0.565784" stop-color="#6E1996"/>
</radialGradient>
<linearGradient id="paint1_linear_182_8812" x1="263.501" y1="120.883" x2="153.486" y2="67.1091" gradientUnits="userSpaceOnUse">
<stop offset="0.216532" stop-color="#CA59F7"/>
<stop offset="0.888362" stop-color="#691A90"/>
</linearGradient>
<linearGradient id="paint2_linear_182_8812" x1="232.485" y1="59.7603" x2="32.0407" y2="59.7603" gradientUnits="userSpaceOnUse">
<stop offset="0.807408" stop-color="#DE66FF"/>
<stop offset="1" stop-color="#FCB1FF"/>
</linearGradient>
<radialGradient id="paint3_radial_182_8812" cx="0" cy="0" r="1" gradientUnits="userSpaceOnUse" gradientTransform="translate(237.804 -4.01772) rotate(120.45) scale(190.443 328.492)">
<stop stop-color="#FFC7A3"/>
<stop offset="0.830508" stop-color="#DE67FD" stop-opacity="0"/>
</radialGradient>
<radialGradient id="paint4_radial_182_8812" cx="0" cy="0" r="1" gradientUnits="userSpaceOnUse" gradientTransform="translate(0 119.998) rotate(45) scale(147.078)">
<stop offset="0.071875" stop-color="#AC13EB"/>
<stop offset="0.878742" stop-color="#580087"/>
</radialGradient>
<radialGradient id="paint5_radial_182_8812" cx="0" cy="0" r="1" gradientUnits="userSpaceOnUse" gradientTransform="translate(52 182.398) rotate(90) scale(72.8 83.85)">
<stop offset="0.584821" stop-color="#841FB0" stop-opacity="0"/>
<stop offset="0.968712" stop-color="#D373FC"/>
</radialGradient>
</defs>
</svg>
