<svg width="72" height="72" viewBox="0 0 72 72" fill="none" xmlns="http://www.w3.org/2000/svg">
<path d="M48.3264 9.94074L7.51737 35.8082L4.00781 30.2714V25.5005C4.00781 23.7635 4.88721 22.1446 6.34436 21.199L30.0667 5.80602C33.6809 3.46082 38.3363 3.46046 41.9509 5.80512L48.3264 9.94074Z" fill="url(#paint0_linear_5363_289519)"/>
<path d="M41.5852 5.57812C41.708 5.65109 41.8297 5.72666 41.9502 5.80484L60.464 17.8141L14.5597 46.9113L7.51562 35.7984L41.2049 14.4026C44.396 12.376 44.5357 7.81698 41.5852 5.57812Z" fill="url(#paint1_linear_5363_289519)"/>
<path d="M41.5852 5.57812C41.708 5.65109 41.8297 5.72666 41.9502 5.80484L60.464 17.8141L14.5597 46.9113L7.51562 35.7984L41.2049 14.4026C44.396 12.376 44.5357 7.81698 41.5852 5.57812Z" fill="url(#paint2_linear_5363_289519)" fill-opacity="0.2"/>
<path d="M32.8732 52.4698L14.5586 46.914L53.4976 22.2311C56.7769 20.1524 56.7684 15.3648 53.4816 13.2978L53.3063 13.1875L53.8112 13.5017L65.6622 21.1891C67.1198 22.1345 67.9994 23.7537 67.9994 25.491V30.1085L32.8732 52.4698Z" fill="url(#paint3_linear_5363_289519)"/>
<path d="M32.8732 52.4698L14.5586 46.914L53.4976 22.2311C56.7769 20.1524 56.7684 15.3648 53.4816 13.2978L53.3063 13.1875L53.8112 13.5017L65.6622 21.1891C67.1198 22.1345 67.9994 23.7537 67.9994 25.491V30.1085L32.8732 52.4698Z" fill="url(#paint4_linear_5363_289519)" fill-opacity="0.2"/>
<path d="M41.9509 5.80512C38.3363 3.46046 33.6809 3.46082 30.0667 5.80602L6.34436 21.199C4.88721 22.1446 4.00781 23.7635 4.00781 25.5005V25.7339C4.06501 27.4775 4.98264 29.0847 6.46472 30.0191L35.9612 48.615L65.5318 30.0474C67.0675 29.0831 67.9997 27.3971 67.9997 25.5838V30.1072L68.0003 25.4893C68.0003 23.752 67.1206 22.1328 65.6631 21.1873L41.9509 5.80512Z" fill="url(#paint5_radial_5363_289519)"/>
<path d="M30.761 68.0041H57.2682C63.1939 68.0041 67.9976 63.2004 67.9976 57.2747L67.9976 25.5934C67.9954 27.4043 67.0637 29.0875 65.5297 30.0507L26.6691 54.4516C24.5729 55.7678 23.3006 58.0693 23.3008 60.5445C23.3011 64.6645 26.6411 68.0041 30.761 68.0041Z" fill="url(#paint6_linear_5363_289519)"/>
<path d="M30.761 68.0041H57.2682C63.1939 68.0041 67.9976 63.2004 67.9976 57.2747L67.9976 25.5934C67.9954 27.4043 67.0637 29.0875 65.5297 30.0507L26.6691 54.4516C24.5729 55.7678 23.3006 58.0693 23.3008 60.5445C23.3011 64.6645 26.6411 68.0041 30.761 68.0041Z" fill="url(#paint7_radial_5363_289519)" fill-opacity="0.4"/>
<path d="M30.761 68.0041H57.2682C63.1939 68.0041 67.9976 63.2004 67.9976 57.2747L67.9976 25.5934C67.9954 27.4043 67.0637 29.0875 65.5297 30.0507L26.6691 54.4516C24.5729 55.7678 23.3006 58.0693 23.3008 60.5445C23.3011 64.6645 26.6411 68.0041 30.761 68.0041Z" fill="url(#paint8_radial_5363_289519)" fill-opacity="0.5"/>
<path d="M41.3842 68.0068H14.7333C8.80763 68.0068 4.00391 63.2031 4.00391 57.2774V25.5689C4.00391 27.3788 4.9326 29.0621 6.46365 30.0274L45.2858 54.5026C47.4111 55.8425 48.7002 58.1793 48.6999 60.6918C48.6995 64.7319 45.4243 68.0068 41.3842 68.0068Z" fill="url(#paint9_radial_5363_289519)"/>
<path d="M41.3842 68.0068H14.7333C8.80763 68.0068 4.00391 63.2031 4.00391 57.2774V25.5689C4.00391 27.3788 4.9326 29.0621 6.46365 30.0274L45.2858 54.5026C47.4111 55.8425 48.7002 58.1793 48.6999 60.6918C48.6995 64.7319 45.4243 68.0068 41.3842 68.0068Z" fill="url(#paint10_linear_5363_289519)"/>
<path d="M0 38C0 34.6863 2.68629 32 6 32H24C27.3137 32 30 34.6863 30 38V56C30 59.3137 27.3137 62 24 62H6C2.68629 62 0 59.3137 0 56V38Z" fill="url(#paint11_radial_5363_289519)"/>
<path d="M0 38C0 34.6863 2.68629 32 6 32H24C27.3137 32 30 34.6863 30 38V56C30 59.3137 27.3137 62 24 62H6C2.68629 62 0 59.3137 0 56V38Z" fill="url(#paint12_radial_5363_289519)" fill-opacity="0.5"/>
<path d="M14.9181 56C12.3297 56 10.2047 55.1903 8.54314 53.5709C6.88157 51.9514 6.05078 49.8381 6.05078 47.2308C6.05078 44.4777 6.89409 42.251 8.58072 40.5506C10.2673 38.8502 12.4758 38 15.2061 38C17.7862 38 19.8861 38.8138 21.5059 40.4413C23.1341 42.0688 23.9482 44.2146 23.9482 46.8785C23.9482 49.6154 23.1049 51.8219 21.4182 53.498C19.74 55.166 17.5732 56 14.9181 56ZM14.9932 52.5628C16.4043 52.5628 17.5398 52.081 18.3999 51.1174C19.2599 50.1538 19.6899 48.8138 19.6899 47.0972C19.6899 45.3077 19.2724 43.915 18.4374 42.919C17.6025 41.9231 16.4878 41.4251 15.0934 41.4251C13.6573 41.4251 12.5009 41.9393 11.6241 42.9676C10.7474 43.9879 10.3091 45.3401 10.3091 47.0243C10.3091 48.7328 10.7474 50.085 11.6241 51.081C12.5009 52.0688 13.6239 52.5628 14.9932 52.5628Z" fill="white"/>
<defs>
<linearGradient id="paint0_linear_5363_289519" x1="11.0962" y1="33.0893" x2="48.3264" y2="9.99742" gradientUnits="userSpaceOnUse">
<stop stop-color="#20A7FA"/>
<stop offset="0.4" stop-color="#3BD5FF"/>
<stop offset="1" stop-color="#C4B0FF"/>
</linearGradient>
<linearGradient id="paint1_linear_5363_289519" x1="23.9098" y1="40.9632" x2="44.6357" y2="7.77618" gradientUnits="userSpaceOnUse">
<stop stop-color="#165AD9"/>
<stop offset="0.5008" stop-color="#1880E5"/>
<stop offset="1" stop-color="#8587FF"/>
</linearGradient>
<linearGradient id="paint2_linear_5363_289519" x1="39.026" y1="41.4146" x2="16.0153" y2="22.6652" gradientUnits="userSpaceOnUse">
<stop offset="0.236946" stop-color="#448AFF" stop-opacity="0"/>
<stop offset="0.792113" stop-color="#0032B1"/>
</linearGradient>
<linearGradient id="paint3_linear_5363_289519" x1="36.0965" y1="48.6372" x2="72.4617" y2="25.3635" gradientUnits="userSpaceOnUse">
<stop stop-color="#1A43A6"/>
<stop offset="0.492267" stop-color="#2052CB"/>
<stop offset="1" stop-color="#5F20CB"/>
</linearGradient>
<linearGradient id="paint4_linear_5363_289519" x1="46.3621" y1="47.2459" x2="24.2645" y2="28.1243" gradientUnits="userSpaceOnUse">
<stop stop-color="#0045B9" stop-opacity="0"/>
<stop offset="0.669859" stop-color="#0D1F69"/>
</linearGradient>
<radialGradient id="paint5_radial_5363_289519" cx="0" cy="0" r="1" gradientUnits="userSpaceOnUse" gradientTransform="translate(36.0064 5.45177) rotate(-90) scale(48.0021 51.9549)">
<stop offset="0.568182" stop-color="#275FF0" stop-opacity="0"/>
<stop offset="0.992424" stop-color="#002177"/>
</radialGradient>
<linearGradient id="paint6_linear_5363_289519" x1="67.9979" y1="46.5646" x2="35.7395" y2="46.5646" gradientUnits="userSpaceOnUse">
<stop stop-color="#4DC4FF"/>
<stop offset="0.196145" stop-color="#0FAFFF"/>
</linearGradient>
<radialGradient id="paint7_radial_5363_289519" cx="0" cy="0" r="1" gradientUnits="userSpaceOnUse" gradientTransform="translate(43.2789 60.7303) rotate(-45) scale(20.5713)">
<stop offset="0.259477" stop-color="#0060D1"/>
<stop offset="0.908166" stop-color="#0383F1" stop-opacity="0"/>
</radialGradient>
<radialGradient id="paint8_radial_5363_289519" cx="0" cy="0" r="1" gradientTransform="matrix(42.3571 -55.5166 39.0343 52.9376 12.238 75.9476)" gradientUnits="userSpaceOnUse">
<stop offset="0.732317" stop-color="#F4A7F7" stop-opacity="0"/>
<stop offset="1" stop-color="#F4A7F7"/>
</radialGradient>
<radialGradient id="paint9_radial_5363_289519" cx="0" cy="0" r="1" gradientUnits="userSpaceOnUse" gradientTransform="translate(26.352 42.2831) rotate(123.339) scale(36.8438 95.6142)">
<stop stop-color="#49DEFF"/>
<stop offset="0.724349" stop-color="#29C3FF"/>
</radialGradient>
<linearGradient id="paint10_linear_5363_289519" x1="-0.51451" y1="60.6649" x2="30.5443" y2="60.6425" gradientUnits="userSpaceOnUse">
<stop offset="0.205882" stop-color="#6CE0FF"/>
<stop offset="0.535" stop-color="#50D5FF" stop-opacity="0"/>
</linearGradient>
<radialGradient id="paint11_radial_5363_289519" cx="0" cy="0" r="1" gradientUnits="userSpaceOnUse" gradientTransform="translate(-0.107045 33.1538) rotate(46.9242) scale(39.4909)">
<stop offset="0.038877" stop-color="#0091FF"/>
<stop offset="0.919119" stop-color="#183DAD"/>
</radialGradient>
<radialGradient id="paint12_radial_5363_289519" cx="0" cy="0" r="1" gradientUnits="userSpaceOnUse" gradientTransform="translate(15 50.2699) rotate(90) scale(21 24.2228)">
<stop offset="0.557796" stop-color="#0FA5F7" stop-opacity="0"/>
<stop offset="1" stop-color="#74C6FF"/>
</radialGradient>
</defs>
</svg>
