<svg width="24" height="24" viewBox="0 0 24 24" fill="none" xmlns="http://www.w3.org/2000/svg">
<g clip-path="url(#clip0_6_1235)">
<path d="M13 1C10.0852 1.00844 7.29222 2.17008 5.23115 4.23115C3.17008 6.29222 2.00844 9.08521 2 12L16.837 15.837L13 1Z" fill="#ED6C47"/>
<path d="M13 1C15.9148 1.00844 18.7078 2.17008 20.7688 4.23115C22.8299 6.29222 23.9916 9.08521 24 12L18.5 14.95L13 12V1Z" fill="#FF8F6B"/>
<path d="M2 12C2 14.9174 3.15893 17.7153 5.22183 19.7782C7.28473 21.8411 10.0826 23 13 23C15.9174 23 18.7153 21.8411 20.7782 19.7782C22.8411 17.7153 24 14.9174 24 12H2Z" fill="#D35230"/>
<path opacity="0.5" d="M15 18.646V7.167C14.9992 6.85774 14.876 6.56136 14.6574 6.34268C14.4387 6.124 14.1423 6.00079 13.833 6H3.80003C2.37987 8.15593 1.76986 10.7455 2.07835 13.3086C2.38685 15.8718 3.59387 18.2426 5.48503 20H13.6C13.9563 19.9778 14.2931 19.8293 14.5497 19.5811C14.8063 19.3329 14.966 19.0014 15 18.646Z" fill="black"/>
<path opacity="0.1" d="M15 18.646V7.167C14.9992 6.85774 14.876 6.56136 14.6574 6.34268C14.4387 6.124 14.1423 6.00079 13.833 6H3.80003C2.37987 8.15593 1.76986 10.7455 2.07835 13.3086C2.38685 15.8718 3.59387 18.2426 5.48503 20H13.6C13.9563 19.9778 14.2931 19.8293 14.5497 19.5811C14.8063 19.3329 14.966 19.0014 15 18.646Z" fill="black"/>
<path d="M12.833 5H1.167C0.522484 5 0 5.52248 0 6.167V17.833C0 18.4775 0.522484 19 1.167 19H12.833C13.4775 19 14 18.4775 14 17.833V6.167C14 5.52248 13.4775 5 12.833 5Z" fill="#C43E1C"/>
<path d="M7.39997 8C8.18626 7.94609 8.96608 8.17365 9.59997 8.642C9.85948 8.87344 10.0629 9.16094 10.1947 9.4827C10.3266 9.80445 10.3834 10.152 10.361 10.499C10.3694 11.0596 10.2403 11.6138 9.98497 12.113C9.72659 12.525 9.35467 12.8535 8.91397 13.059C8.40912 13.2946 7.85696 13.4112 7.29997 13.4H5.77697V16H4.21497V8H7.39997ZM5.77697 12.009H7.12197C7.5479 12.04 7.97047 11.9141 8.30997 11.655C8.44916 11.5106 8.55664 11.3386 8.62552 11.1502C8.6944 10.9619 8.72317 10.7612 8.70997 10.561C8.70997 9.679 8.19663 9.238 7.16997 9.238H5.77697V12.009Z" fill="white"/>
</g>
<defs>
<clipPath id="clip0_6_1235">
<rect width="24" height="24" fill="white"/>
</clipPath>
</defs>
</svg>
