<svg width="68" height="68" viewBox="0 0 68 68" fill="none" xmlns="http://www.w3.org/2000/svg">
<g clip-path="url(#clip0_95_651)">
<rect width="86" height="77" rx="0.592941" fill="#1A98FF"/>
<path d="M34.225 58.2523C33.7601 58.2406 33.2953 58.2406 32.8304 58.2523C32.1912 58.2174 31.5521 58.1942 30.9129 58.1477C29.2162 58.0198 27.531 57.7642 25.8808 57.3807C20.1747 56.0558 15.1659 53.3945 10.7962 49.5246C10.3895 49.1643 10.006 48.7924 9.61083 48.4205C9.51786 48.3392 9.43651 48.223 9.39002 48.1068C9.3203 47.9441 9.35516 47.7697 9.47137 47.6419C9.58759 47.5141 9.77353 47.4676 9.93623 47.5373C10.0408 47.5838 10.1454 47.6303 10.2384 47.6884C14.4105 50.2683 18.9661 52.151 23.7425 53.2667C25.3462 53.6386 26.9616 53.9291 28.5886 54.1383C30.9245 54.4288 33.2836 54.5334 35.6312 54.4521C36.8979 54.4172 38.153 54.301 39.4081 54.1383C42.3367 53.7664 45.2305 53.104 48.0312 52.1743C49.5071 51.6862 50.9482 51.1283 52.3544 50.4775C52.5636 50.3613 52.8192 50.3265 53.0517 50.3846C53.4352 50.4775 53.6676 50.8727 53.5746 51.2562C53.563 51.3027 53.5398 51.3608 53.5165 51.4072C53.4236 51.5816 53.2957 51.7326 53.133 51.8489C51.7966 52.8948 50.3555 53.8129 48.8331 54.5799C45.9626 56.0326 42.8946 57.0669 39.7335 57.6596C37.909 57.985 36.0728 58.1825 34.225 58.2523Z" fill="#232F3E"/>
<path d="M54.2021 46.9214C54.9691 46.9446 55.7245 46.9911 56.4683 47.1887C56.6775 47.2468 56.875 47.3165 57.0726 47.4095C57.3399 47.5141 57.5142 47.7698 57.5491 48.0487C57.5955 48.3741 57.6072 48.7111 57.5839 49.0481C57.4328 51.0354 56.8169 52.9529 55.7942 54.6613C55.4223 55.2772 54.9691 55.835 54.4461 56.3231C54.3416 56.4277 54.2137 56.5091 54.0743 56.5556C53.8534 56.6137 53.714 56.4974 53.7024 56.2766C53.714 56.1604 53.7372 56.0442 53.7837 55.928C54.1905 54.8356 54.5856 53.7548 54.8994 52.6275C55.0853 52.0116 55.2132 51.384 55.2945 50.7448C55.3177 50.5124 55.3294 50.28 55.3061 50.0476C55.2945 49.6524 55.0388 49.3154 54.6553 49.1992C54.2951 49.083 53.9232 49.0133 53.5397 48.99C52.4705 48.9435 51.4013 48.99 50.3438 49.1295L48.9376 49.3038C48.7865 49.3154 48.6471 49.3038 48.5657 49.1643C48.4844 49.0249 48.5192 48.8854 48.6006 48.746C48.6935 48.6181 48.8098 48.5019 48.9492 48.4206C49.8092 47.8046 50.7738 47.4327 51.7965 47.1887C52.5867 47.026 53.3886 46.9446 54.2021 46.9214Z" fill="#232F3E"/>
<path d="M14.4598 39.979C14.5376 39.7197 14.6154 39.4732 14.6933 39.2139C15.2898 37.2036 15.8864 35.2063 16.483 33.1961L16.5608 32.9627C16.6257 32.7292 16.8462 32.5866 17.0796 32.5866H19.0509C19.5438 32.5866 19.6475 32.7292 19.4789 33.1961L18.7008 35.2582C17.8318 37.5149 16.9629 39.7845 16.0939 42.0412C16.068 42.119 16.0291 42.1968 16.0032 42.2746C15.9124 42.547 15.64 42.7285 15.3547 42.7026C14.784 42.6896 14.2134 42.6896 13.6427 42.7026C13.2407 42.7156 13.0072 42.534 12.8646 42.1709C12.5404 41.3149 12.2031 40.4459 11.8789 39.59C11.1008 37.5538 10.3096 35.5176 9.53148 33.4685C9.45366 33.3128 9.40178 33.1313 9.36288 32.9627C9.32397 32.7033 9.41475 32.5736 9.67414 32.5736C10.4134 32.5606 11.1526 32.5736 11.8789 32.5736C12.1902 32.5736 12.3328 32.7811 12.4107 33.0534C12.5533 33.5463 12.696 34.0521 12.8516 34.5449C13.3834 36.3476 13.9021 38.1633 14.4339 39.9661C14.4209 39.979 14.4339 39.979 14.4598 39.979Z" fill="#232F3E"/>
<path d="M23.6421 37.6446V42.3135C23.6161 42.5729 23.4994 42.6896 23.24 42.7026C22.5397 42.7155 21.8523 42.7155 21.152 42.7026C20.8926 42.7026 20.7759 42.5729 20.7499 42.3265C20.7369 42.2486 20.7369 42.1579 20.7369 42.08V33.1053C20.7499 32.7033 20.8537 32.5865 21.2557 32.5865H23.1233C23.5253 32.5865 23.6421 32.7033 23.6421 33.1053V37.6446Z" fill="#232F3E"/>
<path d="M57.5826 36.8405V36.8924C57.5307 36.8405 57.5047 36.7627 57.5307 36.6978V36.5941C57.5307 36.5941 57.5307 36.5811 57.5437 36.5811H57.5307V36.4514H57.5566C57.5566 36.4385 57.5437 36.4385 57.5437 36.4255C57.5177 36.1791 57.4658 35.9327 57.401 35.6992C56.9211 33.9873 55.8447 32.8589 54.0938 32.418C53.2768 32.2234 52.4467 32.1975 51.6167 32.3272C49.8658 32.5866 48.6078 33.5204 47.9983 35.1804C47.4017 36.7627 47.4146 38.5006 48.0112 40.0828C48.53 41.5224 49.5675 42.4303 51.059 42.8064C51.8501 43.0009 52.6802 43.0528 53.4972 42.9361C56.2208 42.6118 57.3491 40.5497 57.5307 38.76H57.5177V38.5784C57.5047 38.5006 57.4918 38.4357 57.5696 38.3839V38.4098C57.5696 38.3968 57.5826 38.3709 57.5955 38.3579V36.8664C57.5955 36.8535 57.5826 36.8535 57.5826 36.8405ZM54.4699 39.3047C54.3921 39.577 54.2754 39.8234 54.1068 40.0569C53.8215 40.4589 53.3675 40.7183 52.8747 40.7572C52.6283 40.7832 52.3819 40.7832 52.1355 40.7313C51.5908 40.6275 51.1368 40.2644 50.9163 39.7586C50.7218 39.3566 50.6051 38.9156 50.5662 38.4746C50.5013 37.7095 50.4884 36.9443 50.6699 36.192C50.7348 35.8938 50.8645 35.5955 51.0201 35.3361C51.3054 34.8692 51.7983 34.5709 52.343 34.532C52.5894 34.506 52.8358 34.506 53.0822 34.5579C53.601 34.6617 54.029 34.9989 54.2624 35.4787C54.4829 35.9327 54.6126 36.4385 54.6385 36.9443C54.6515 37.1777 54.6645 37.4112 54.6515 37.6446C54.6904 38.2153 54.6256 38.7729 54.4699 39.3047Z" fill="#232F3E"/>
<path d="M34.8475 28.0214H33.0448C32.5519 28.0214 32.4612 28.1122 32.4612 28.605V32.8071C32.4612 32.8979 32.5001 32.9887 32.4352 33.0794C32.3185 33.0665 32.2537 32.9887 32.1629 32.9368C30.8141 32.1456 29.4004 32.003 27.9738 32.6644C26.9752 33.1313 26.3526 33.9743 25.9506 34.973C25.5615 35.9327 25.4707 36.9443 25.4967 37.9689C25.4967 38.9286 25.7171 39.8753 26.1451 40.7313C26.638 41.6781 27.3513 42.4044 28.3888 42.7156C29.8025 43.1566 31.1253 42.9361 32.3315 42.0412C32.4223 41.9893 32.4741 41.8986 32.5909 41.8726C32.6557 42.0153 32.7076 42.1709 32.7335 42.3265C32.7854 42.534 32.967 42.6767 33.1874 42.6767H33.4987C33.9656 42.6767 34.4195 42.6897 34.8734 42.6767C35.2366 42.6767 35.3403 42.56 35.3533 42.1839V28.5142C35.3403 28.1122 35.2366 28.0214 34.8475 28.0214ZM32.4741 37.5668V39.9272C32.5001 40.0829 32.4093 40.2255 32.2666 40.2904C31.6441 40.6405 30.9308 40.7832 30.2304 40.6794C29.6339 40.6146 29.1151 40.2515 28.8427 39.7197C28.6352 39.3047 28.5185 38.8637 28.4796 38.4098C28.3758 37.5927 28.4407 36.7627 28.6352 35.9716C28.7001 35.7511 28.7779 35.5436 28.8946 35.3361C29.167 34.8303 29.6857 34.5061 30.2564 34.4672C30.9438 34.4023 31.6311 34.532 32.2537 34.8173C32.4093 34.8692 32.5001 35.0248 32.4871 35.1934C32.4612 35.9975 32.4741 36.7757 32.4741 37.5668Z" fill="#232F3E"/>
<path d="M42.6808 38.5913C43.433 38.5395 44.1853 38.3968 44.8597 38.0337C45.547 37.6965 46.0269 37.061 46.1696 36.3087C46.2603 35.8418 46.2603 35.349 46.1566 34.8821C45.8842 33.7149 45.145 32.9886 44.0296 32.6125C43.4071 32.418 42.7457 32.3401 42.0972 32.3661C39.9184 32.418 38.2583 33.5203 37.5839 35.6992C37.13 37.1388 37.1948 38.6043 37.6358 40.0439C38.0897 41.5224 39.1272 42.4173 40.6057 42.8193C41.2412 42.975 41.9027 43.0398 42.5511 43.0139C43.4979 43.0009 44.4446 42.8193 45.3395 42.4821C45.7156 42.3395 45.8064 42.2098 45.8064 41.8077V40.8739C45.7935 40.4978 45.6378 40.3681 45.2617 40.4589C44.9764 40.5367 44.704 40.6016 44.4187 40.6664C43.5498 40.8739 42.6419 40.9128 41.76 40.7572C40.8781 40.5886 40.2815 40.0828 40.0481 39.2009C39.9832 38.9415 39.9313 38.6821 39.9054 38.4098C39.9702 38.4098 40.0351 38.4098 40.087 38.4357C40.9429 38.5913 41.8119 38.6562 42.6808 38.5913ZM39.9702 36.5162C40.061 36.0104 40.1778 35.5176 40.489 35.1026C40.9689 34.4671 41.6303 34.2855 42.3825 34.3633C42.4474 34.3633 42.4993 34.3893 42.5641 34.3893C43.4719 34.5319 43.6924 35.2582 43.5238 35.9586C43.3941 36.4773 42.9661 36.6719 42.4863 36.7627C42.2269 36.8145 41.9545 36.8405 41.6822 36.8275C41.1504 36.8145 40.6317 36.7756 40.1129 36.6978C39.9962 36.6848 39.9443 36.633 39.9702 36.5162Z" fill="#232F3E"/>
<path d="M22.2023 27.9306C22.4617 27.9047 22.7211 27.9565 22.9675 28.0603C23.4733 28.2548 23.8235 28.7217 23.8494 29.2664C23.9531 30.4466 23.162 31.0432 22.1115 31.0173C21.9689 31.0173 21.8262 30.9913 21.6835 30.9654C20.8794 30.7709 20.4644 30.1483 20.5422 29.2535C20.6071 28.5401 21.1648 28.0084 21.9299 27.9436C22.0207 27.9306 22.1115 27.9176 22.2023 27.9306Z" fill="#232F3E"/>
<path d="M41.283 14.6936C41.5895 14.5097 41.9083 14.3135 42.2394 14.1418C43.0977 13.7004 44.0541 13.4797 45.0227 13.5288C45.7216 13.5655 46.3592 13.7617 46.8497 14.2767C47.3156 14.7549 47.4873 15.3434 47.5363 15.981C47.5486 16.1159 47.5486 16.2508 47.5486 16.3979V22.7494C47.5486 23.3011 47.475 23.3747 46.9232 23.3747H45.4273C45.3293 23.3747 45.2312 23.3747 45.1331 23.3624C44.9859 23.3502 44.8633 23.2275 44.8388 23.0804C44.8143 22.9455 44.8143 22.8107 44.8143 22.6758V16.9987C44.8265 16.7658 44.802 16.5451 44.7407 16.3244C44.6426 15.9443 44.2993 15.6745 43.9069 15.65C43.1835 15.6009 42.4601 15.7481 41.798 16.0546C41.6999 16.0791 41.6386 16.1772 41.6508 16.2753V22.7248C41.6508 22.8474 41.6508 22.9578 41.6263 23.0804C41.6263 23.2521 41.4914 23.3747 41.3198 23.3747C41.1358 23.3869 40.9519 23.3869 40.7557 23.3869H39.456C39.0024 23.3869 38.9043 23.2766 38.9043 22.8229V17.0233C38.9043 16.8148 38.892 16.5941 38.843 16.3857C38.7571 15.9688 38.4015 15.6745 37.9847 15.65C37.249 15.6009 36.501 15.7481 35.8389 16.0669C35.7408 16.0914 35.6795 16.2017 35.704 16.2998V22.8352C35.704 23.2889 35.6059 23.3869 35.1523 23.3869H33.5092C33.0801 23.3869 32.9697 23.2643 32.9697 22.8474V14.338C32.9697 14.2399 32.982 14.1418 33.0065 14.0437C33.0556 13.8966 33.2027 13.8108 33.3498 13.8108H34.8825C35.1032 13.8108 35.2381 13.9456 35.3117 14.1541C35.373 14.3257 35.4098 14.4851 35.4711 14.6691C35.5937 14.6691 35.6672 14.5832 35.7531 14.5342C36.4275 14.1173 37.1386 13.7617 37.9356 13.6146C38.5487 13.492 39.1618 13.492 39.7748 13.6146C40.3511 13.7372 40.8661 14.0805 41.1972 14.571C41.2217 14.6078 41.2462 14.6323 41.2707 14.6568C41.2585 14.6691 41.2707 14.6691 41.283 14.6936Z" fill="#232F3E"/>
<path d="M23.1604 15.1595C23.2462 15.1349 23.3198 15.0859 23.3688 15.0123C23.5896 14.7916 23.8225 14.5832 24.0678 14.387C24.7053 13.8965 25.5023 13.6513 26.2993 13.7126C26.6181 13.7249 26.7285 13.823 26.753 14.1295C26.7775 14.5464 26.7653 14.9755 26.7653 15.3924C26.7775 15.5641 26.7653 15.7235 26.7407 15.8951C26.6917 16.1158 26.6059 16.2017 26.3852 16.2262C26.2135 16.2385 26.0541 16.2262 25.8824 16.2139C25.0609 16.1404 24.2639 16.2998 23.4915 16.5573C23.3198 16.6186 23.3198 16.7412 23.3198 16.8761V22.7615C23.3198 22.8719 23.3198 22.97 23.3075 23.0803C23.2953 23.2397 23.1727 23.3624 23.0133 23.3624C22.9274 23.3746 22.8293 23.3746 22.7435 23.3746H21.1495C21.0637 23.3746 20.9656 23.3746 20.8798 23.3624C20.7204 23.3501 20.5978 23.2152 20.5855 23.0558C20.5732 22.9577 20.5732 22.8596 20.5732 22.7615V14.4238C20.5732 13.8597 20.6345 13.7984 21.1986 13.7984H22.3757C22.6945 13.7984 22.8416 13.9088 22.9274 14.2153C23.0133 14.5219 23.0868 14.8284 23.1604 15.1595Z" fill="#232F3E"/>
<path d="M27.9424 18.5682V14.2154C27.9547 13.9211 28.0651 13.8107 28.3593 13.7985C28.9969 13.7862 29.6345 13.7862 30.2721 13.7985C30.5541 13.7985 30.64 13.8843 30.6645 14.1663C30.6767 14.2767 30.6767 14.3748 30.6767 14.4851V22.6512C30.6767 22.7861 30.6645 22.921 30.6522 23.0559C30.64 23.2153 30.5173 23.3256 30.3579 23.3379C30.2844 23.3501 30.2231 23.3501 30.1495 23.3501H28.4452C28.3838 23.3501 28.3348 23.3501 28.2735 23.3379C28.1018 23.3256 27.9547 23.1907 27.9424 23.0191C27.9302 22.921 27.9302 22.8229 27.9302 22.7248C27.9424 21.3638 27.9424 19.966 27.9424 18.5682Z" fill="#232F3E"/>
<path d="M29.365 9.40887C29.5611 9.39661 29.7573 9.4334 29.9412 9.4947C30.6034 9.71541 30.9467 10.2917 30.8854 11.0396C30.8363 11.6772 30.3581 12.1922 29.7205 12.2903C29.4508 12.3394 29.1688 12.3394 28.899 12.2903C28.2001 12.1554 27.6851 11.6405 27.7342 10.7576C27.8078 9.88707 28.384 9.40887 29.365 9.40887Z" fill="#232F3E"/>
<path d="M18.7588 17.5628C18.7097 16.9252 18.5381 16.2999 18.2806 15.7236C17.7779 14.6691 17.0054 13.8966 15.8283 13.6269C14.4795 13.3326 13.2656 13.6269 12.1621 14.4484C12.0885 14.5219 12.0027 14.5833 11.9046 14.6323C11.8801 14.62 11.8556 14.6078 11.8556 14.5955C11.8188 14.4729 11.7943 14.3503 11.7575 14.2277C11.6594 13.9211 11.5368 13.8108 11.2057 13.8108C10.8379 13.8108 10.4578 13.823 10.0899 13.8108C9.80792 13.7985 9.55043 13.8353 9.35425 14.056C9.35425 18.3475 9.35425 22.6513 9.36651 26.9305C9.52591 27.188 9.77114 27.2371 10.0531 27.2248C10.4946 27.2125 10.936 27.2248 11.3774 27.2248C12.1499 27.2248 12.1499 27.2248 12.1499 26.4646V22.9701C12.1499 22.8842 12.1131 22.7862 12.1989 22.7126C12.812 23.1908 13.5599 23.4851 14.3324 23.5586C15.4114 23.669 16.3923 23.3992 17.2138 22.6635C17.8146 22.1118 18.2561 21.4006 18.489 20.6159C18.8201 19.6104 18.8446 18.5927 18.7588 17.5628ZM15.8283 20.1009C15.7425 20.481 15.5463 20.8243 15.2643 21.0818C14.9455 21.3516 14.5531 21.511 14.1362 21.511C13.5109 21.5478 12.8978 21.4129 12.346 21.1186C12.2112 21.0573 12.1253 20.9224 12.1376 20.7753V18.556C12.1376 17.8203 12.1499 17.0846 12.1376 16.3489C12.1253 16.1772 12.2234 16.0301 12.3828 15.9688C13.0572 15.65 13.7561 15.5029 14.4918 15.65C15.0068 15.7236 15.4482 16.0546 15.6566 16.5328C15.8405 16.9252 15.9509 17.3543 15.9754 17.7835C16.049 18.5682 16.049 19.353 15.8283 20.1009Z" fill="#232F3E"/>
<path d="M52.0239 19.3652C52.9435 19.5368 53.8877 19.5491 54.8073 19.4019C55.3468 19.3284 55.8618 19.169 56.34 18.9115C56.8917 18.5927 57.2963 18.1513 57.468 17.5382C57.8972 15.9933 57.235 14.4361 55.6288 13.8598C54.8441 13.6023 54.0103 13.5165 53.1888 13.6268C51.2515 13.8475 49.9885 14.9143 49.4122 16.7657C49.0076 18.0287 49.0567 19.3161 49.3877 20.5913C49.8169 22.2221 50.8959 23.1907 52.5266 23.534C53.4585 23.7425 54.4026 23.7057 55.3345 23.5586C55.825 23.4727 56.3154 23.3501 56.7814 23.1662C57.0634 23.0558 57.2105 22.8842 57.1983 22.5654C57.186 22.2711 57.1983 21.9646 57.1983 21.658C57.1983 21.2902 57.0511 21.1798 56.6955 21.2657C56.34 21.3515 55.9966 21.4251 55.6411 21.4986C54.8808 21.658 54.0961 21.658 53.3359 21.5232C52.2937 21.3147 51.6193 20.4196 51.6806 19.3161C51.791 19.3284 51.9136 19.3406 52.0239 19.3652ZM51.7174 17.4892C51.7542 17.1949 51.84 16.9129 51.9504 16.6431C52.3182 15.748 53.0907 15.4415 53.8754 15.4905C54.0961 15.5028 54.3168 15.5519 54.5253 15.6377C54.8441 15.7726 55.0525 16.0668 55.0893 16.4102C55.1261 16.6186 55.1138 16.8393 55.0525 17.0477C54.9054 17.4892 54.5498 17.6731 54.1206 17.7589C53.8631 17.8202 53.5934 17.8447 53.3236 17.8202C52.8454 17.8202 52.355 17.7834 51.8768 17.7099C51.6929 17.6853 51.6929 17.6853 51.7174 17.4892Z" fill="#232F3E"/>
</g>
<defs>
<clipPath id="clip0_95_651">
<path d="M0 4C0 1.79086 1.79086 0 4 0H63.2C65.4091 0 67.2 1.79086 67.2 4V63.2C67.2 65.4091 65.4091 67.2 63.2 67.2H4C1.79086 67.2 0 65.4091 0 63.2V4Z" fill="white"/>
</clipPath>
</defs>
</svg>
