<svg width="41" height="41" viewBox="0 0 41 41" fill="none" xmlns="http://www.w3.org/2000/svg">
<g clip-path="url(#clip0_7182_26388)">
<path d="M20.4998 13C16.3576 13 12.9998 16.3579 12.9998 20.5C12.9998 20.7593 13.0129 21.0155 13.0386 21.268C12.318 21.3328 11.8363 21.2753 11.5261 21.1932C11.5086 20.9644 11.4998 20.7332 11.4998 20.5C11.4998 20.259 11.5092 20.0202 11.5278 19.7839C10.8364 19.8891 10.4089 20.2211 10.2099 20.5428C9.97676 20.9198 10.0044 21.3348 10.325 21.6646C10.5337 21.8793 10.9129 22.1015 11.525 22.2163C11.9507 22.2959 12.4888 22.3235 13.1604 22.2606C14.783 22.1087 17.0758 21.433 20.1493 19.8341C23.3236 18.1829 25.809 17.4211 27.6912 17.245C28.4464 17.1743 29.1231 17.197 29.7144 17.3038L29.7549 17.3112C30.6061 17.4711 31.2774 17.8068 31.7472 18.2896C32.5814 19.1472 32.6326 20.3259 32.064 21.2461C31.5321 22.107 30.5096 22.6874 29.2174 22.7456C28.2198 26.6296 24.695 29.5 20.4998 29.5C17.0842 29.5 14.113 27.5973 12.5882 24.794C12.8509 24.7905 13.1195 24.7758 13.3929 24.7502C13.6668 24.7245 13.9506 24.6877 14.2445 24.6393C15.5874 26.6646 17.8876 28 20.4998 28C24.6419 28 27.9998 24.6421 27.9998 20.5C27.9998 20.2404 27.9866 19.9839 27.9608 19.7311C28.6833 19.667 29.1648 19.7261 29.4737 19.8092C29.491 20.0372 29.4998 20.2676 29.4998 20.5C29.4998 20.7408 29.4903 20.9794 29.4718 21.2154C30.1612 21.1097 30.5875 20.7783 30.7859 20.4572C31.0187 20.0804 30.991 19.6653 30.6699 19.3352C30.4609 19.1203 30.0813 18.898 29.4687 18.7832C29.4242 18.7749 29.3786 18.7671 29.3317 18.76C29.3317 18.7599 29.3317 18.7602 29.3317 18.76C29.0849 18.7223 28.8035 18.702 28.4839 18.7045C28.2824 18.7062 28.0658 18.7171 27.8331 18.7388C26.2102 18.8907 23.9172 19.5664 20.8437 21.1653C17.6694 22.8165 15.1842 23.5783 13.3023 23.7545C13.0325 23.7798 12.7726 23.7931 12.5231 23.7949C12.3853 23.796 12.2506 23.7935 12.1191 23.7876C12.1191 23.7876 12.1192 23.7877 12.1191 23.7876C11.8087 23.7736 11.5162 23.7403 11.2423 23.6889C10.3898 23.5293 9.7175 23.1933 9.2474 22.7098C8.41345 21.8521 8.36318 20.6733 8.93205 19.7534C9.4647 18.8921 10.4885 18.3114 11.7823 18.2541C12.7799 14.3703 16.3047 11.5 20.4998 11.5C23.9153 11.5 26.8864 13.4026 28.4112 16.2058C28.1456 16.2091 27.874 16.2239 27.5975 16.2497C27.3261 16.2751 27.0451 16.3115 26.7541 16.3593C25.411 14.3347 23.1113 13 20.4998 13Z" fill="#242424"/>
</g>
<defs>
<clipPath id="clip0_7182_26388">
<rect width="24" height="24" fill="white" transform="translate(8.5 8.5)"/>
</clipPath>
</defs>
</svg>
