<svg width="24" height="24" viewBox="0 0 24 24" fill="none" xmlns="http://www.w3.org/2000/svg">
<g clip-path="url(#clip0_6_406)">
<path opacity="0.3" d="M9.88235 18C5.52941 18 2 14.4706 2 10C2 5.52941 5.52941 2 10 2C14.3529 2 18 5.52941 18 10C18 14.4706 14.3529 18 9.88235 18Z" fill="url(#paint0_linear_6_406)"/>
<g filter="url(#filter0_i_6_406)">
<path d="M10 0C15.5913 4.11644e-05 20 4.40867 20 10C20 12.2452 19.2871 14.2982 18.0742 15.9531L23.0605 20.9395C23.6463 21.5252 23.6462 22.4748 23.0605 23.0605C22.4748 23.6462 21.5252 23.6462 20.9395 23.0605L15.9531 18.0742C14.2982 19.2871 12.2452 20 10 20C4.40867 20 4.13946e-05 15.4838 0 10C0 4.40865 4.51617 0 10 0ZM10 2.71191C5.92742 2.71191 2.71191 5.92742 2.71191 10C2.71194 14.0725 5.92727 17.288 9.89258 17.2881C13.9651 17.2881 17.2881 14.0726 17.2881 10C17.2881 5.92744 13.9654 2.71195 10 2.71191Z" fill="url(#paint1_linear_6_406)"/>
</g>
</g>
<defs>
<filter id="filter0_i_6_406" x="0" y="-0.5" width="23.4999" height="23.9998" filterUnits="userSpaceOnUse" color-interpolation-filters="sRGB">
<feFlood flood-opacity="0" result="BackgroundImageFix"/>
<feBlend mode="normal" in="SourceGraphic" in2="BackgroundImageFix" result="shape"/>
<feColorMatrix in="SourceAlpha" type="matrix" values="0 0 0 0 0 0 0 0 0 0 0 0 0 0 0 0 0 0 127 0" result="hardAlpha"/>
<feOffset dy="-0.5"/>
<feGaussianBlur stdDeviation="0.375"/>
<feComposite in2="hardAlpha" operator="arithmetic" k2="-1" k3="1"/>
<feColorMatrix type="matrix" values="0 0 0 0 0 0 0 0 0 0 0 0 0 0 0 0 0 0 0.2 0"/>
<feBlend mode="normal" in2="shape" result="effect1_innerShadow_6_406"/>
</filter>
<linearGradient id="paint0_linear_6_406" x1="14.0007" y1="16.9294" x2="5.99933" y2="3.07064" gradientUnits="userSpaceOnUse">
<stop stop-color="#D5D8DD"/>
<stop offset="1" stop-color="white"/>
</linearGradient>
<linearGradient id="paint1_linear_6_406" x1="17.9054" y1="23.4999" x2="3.91757" y2="0.559056" gradientUnits="userSpaceOnUse">
<stop stop-color="#201F1F"/>
<stop offset="1" stop-color="#484644"/>
</linearGradient>
<clipPath id="clip0_6_406">
<rect width="24" height="24" fill="white"/>
</clipPath>
</defs>
</svg>
