<svg width="18" height="18" viewBox="0 0 18 18" fill="none" xmlns="http://www.w3.org/2000/svg">
<path d="M7.5 0.217529C11.5219 0.217529 14.7831 3.47787 14.7832 7.49976L14.7734 7.87476C14.6948 9.42516 14.1303 10.8469 13.2305 11.9929L13.6191 12.3806L17.1191 15.8806L17.1787 15.947C17.4593 16.2907 17.4395 16.7984 17.1191 17.1189C16.7987 17.4393 16.2909 17.459 15.9473 17.1785L15.8809 17.1189L12.3809 13.6189L11.9932 13.2302C10.7554 14.2022 9.19574 14.783 7.5 14.783L7.12598 14.7732C3.27791 14.5784 0.217773 11.3962 0.217773 7.49976C0.217905 3.47795 3.4782 0.217661 7.5 0.217529ZM7.5 1.31714C4.08571 1.31727 1.31751 4.08547 1.31738 7.49976C1.31738 10.9142 4.08563 13.6822 7.5 13.6824C10.9145 13.6824 13.6826 10.9142 13.6826 7.49976C13.6825 4.08538 10.9144 1.31714 7.5 1.31714Z" fill="url(#paint0_linear_7180_30185)"/>
<defs>
<linearGradient id="paint0_linear_7180_30185" x1="3.36804" y1="2.94988" x2="12.8751" y2="13.6171" gradientUnits="userSpaceOnUse">
<stop stop-color="#454341"/>
<stop offset="1" stop-color="#212020"/>
</linearGradient>
</defs>
</svg>
