<svg width="28" height="27" viewBox="0 0 28 27" fill="none" xmlns="http://www.w3.org/2000/svg">
<g filter="url(#filter0_dd_7182_46663)">
<path d="M18.0452 1.81267C17.7955 1.71279 17.5458 1.81267 17.3959 2.06237C16.6968 3.26093 15.3983 4.05998 13.9001 4.05998C12.4019 4.05998 11.1035 3.26093 10.4043 2.01243C10.2545 1.81267 10.0048 1.71279 9.75509 1.76273C8.45664 2.21219 7.25807 2.91135 6.20933 3.81028C6.00957 3.9601 5.95962 4.25974 6.10944 4.50944C6.8086 5.708 6.90849 7.25615 6.15938 8.50466C5.41028 9.8031 4.06189 10.5023 2.66357 10.5023C2.41387 10.5023 2.16416 10.702 2.16416 10.9517C1.91446 12.3001 1.96441 13.6984 2.21411 15.0468C2.26405 15.2965 2.46381 15.4963 2.76345 15.4963C4.16178 15.4963 5.51017 16.1955 6.25927 17.4939C7.00837 18.7923 6.95843 20.2906 6.25927 21.4891C6.10945 21.6889 6.15938 21.9885 6.35914 22.1883C6.85854 22.6377 7.45784 23.0373 8.05712 23.3868C8.6564 23.7364 9.30562 24.0361 9.95484 24.2858C10.2045 24.3857 10.4542 24.2858 10.6041 24.0361C11.3032 22.8375 12.6017 22.0385 14.0999 22.0385C15.5981 22.0385 16.8965 22.8375 17.5957 24.086C17.7455 24.2858 17.9952 24.3856 18.2449 24.3357C19.5434 23.8862 20.7419 23.1871 21.7907 22.2882C21.9904 22.1383 22.0404 21.8387 21.8906 21.6389C21.1914 20.4404 21.0915 18.8922 21.8406 17.6437C22.5897 16.3453 23.9381 15.6461 25.3364 15.6461C25.5861 15.6461 25.8358 15.4463 25.8358 15.1966C26.0855 13.8483 26.0356 12.4499 25.7859 11.1015C25.736 10.8518 25.5362 10.6521 25.2365 10.6521C23.8382 10.6521 22.4898 9.95292 21.7407 8.65448C20.9916 7.35603 21.0416 5.85783 21.7407 4.65926C21.8905 4.4595 21.8406 4.15986 21.6409 3.9601C21.1415 3.51064 20.5422 3.11111 19.9429 2.76153C19.2937 2.31207 18.6944 2.06237 18.0452 1.81267Z" fill="url(#paint0_linear_7182_46663)"/>
<path d="M14 19.25C17.3137 19.25 20 16.5637 20 13.25C20 9.93629 17.3137 7.25 14 7.25C10.6863 7.25 8 9.93629 8 13.25C8 16.5637 10.6863 19.25 14 19.25Z" fill="url(#paint1_linear_7182_46663)"/>
<path d="M14 17.25C16.2091 17.25 18 15.4591 18 13.25C18 11.0409 16.2091 9.25 14 9.25C11.7909 9.25 10 11.0409 10 13.25C10 15.4591 11.7909 17.25 14 17.25Z" fill="url(#paint2_linear_7182_46663)"/>
</g>
<defs>
<filter id="filter0_dd_7182_46663" x="0.2" y="5.96046e-08" width="27.6" height="27.6" filterUnits="userSpaceOnUse" color-interpolation-filters="sRGB">
<feFlood flood-opacity="0" result="BackgroundImageFix"/>
<feColorMatrix in="SourceAlpha" type="matrix" values="0 0 0 0 0 0 0 0 0 0 0 0 0 0 0 0 0 0 127 0" result="hardAlpha"/>
<feOffset dy="0.15"/>
<feGaussianBlur stdDeviation="0.225"/>
<feColorMatrix type="matrix" values="0 0 0 0 0 0 0 0 0 0 0 0 0 0 0 0 0 0 0.11 0"/>
<feBlend mode="normal" in2="BackgroundImageFix" result="effect1_dropShadow_7182_46663"/>
<feColorMatrix in="SourceAlpha" type="matrix" values="0 0 0 0 0 0 0 0 0 0 0 0 0 0 0 0 0 0 127 0" result="hardAlpha"/>
<feOffset dy="0.8"/>
<feGaussianBlur stdDeviation="0.9"/>
<feColorMatrix type="matrix" values="0 0 0 0 0 0 0 0 0 0 0 0 0 0 0 0 0 0 0.13 0"/>
<feBlend mode="normal" in2="effect1_dropShadow_7182_46663" result="effect2_dropShadow_7182_46663"/>
<feBlend mode="normal" in="SourceGraphic" in2="effect2_dropShadow_7182_46663" result="shape"/>
</filter>
<linearGradient id="paint0_linear_7182_46663" x1="19.9429" y1="23.3992" x2="7.95723" y2="2.63948" gradientUnits="userSpaceOnUse">
<stop stop-color="#626F7A"/>
<stop offset="1" stop-color="#8B9299"/>
</linearGradient>
<linearGradient id="paint1_linear_7182_46663" x1="17.0005" y1="18.4671" x2="10.9995" y2="8.0731" gradientUnits="userSpaceOnUse">
<stop stop-color="white"/>
<stop offset="1" stop-color="#CCCCCC"/>
</linearGradient>
<linearGradient id="paint2_linear_7182_46663" x1="16.0003" y1="16.7348" x2="11.9997" y2="9.80545" gradientUnits="userSpaceOnUse">
<stop stop-color="#114A8B"/>
<stop offset="1" stop-color="#0669BC"/>
</linearGradient>
</defs>
</svg>
