<svg width="24" height="24" viewBox="0 0 24 24" fill="none" xmlns="http://www.w3.org/2000/svg">
<path d="M12 0C5.4 0 0 5.4 0 12C0 18.6 5.4 24 12 24C18.6 24 24 18.6 24 12C24 5.4 18.6 0 12 0Z" fill="black"/>
<path d="M12 0C5.4 0 0 5.4 0 12C0 18.6 5.4 24 12 24C18.6 24 24 18.6 24 12C24 5.4 18.6 0 12 0ZM5.9 16.4C5.5 16.5 5.1 16.2 5 15.8C4.9 15.4 5.2 15 5.6 14.9C10.2 13.9 14.1 14.3 17.3 16.2C17.7 16.4 17.8 16.9 17.5 17.2C17.3 17.6 16.8 17.7 16.5 17.4C13.7 15.8 10.1 15.4 5.9 16.4ZM19 14C18.7 14.4 18.2 14.6 17.7 14.3C14.5 12.3 9.6 11.7 5.7 12.9C5.2 13 4.7 12.8 4.5 12.3C4.4 11.8 4.6 11.3 5.1 11.1C9.5 9.8 14.9 10.4 18.6 12.7C19.1 13 19.2 13.6 19 14ZM19.1 10.6C15.2 8.3 8.8 8.1 5.2 9.3C4.6 9.4 3.9 9.1 3.8 8.5C3.6 7.9 3.9 7.3 4.5 7.1C8.7 5.8 15.8 6.1 20.2 8.7C20.7 9 20.9 9.7 20.6 10.2C20.3 10.8 19.6 11 19.1 10.6Z" fill="#1ED760"/>
</svg>
