<svg width="48" height="48" viewBox="0 0 48 48" fill="none" xmlns="http://www.w3.org/2000/svg">
<g clip-path="url(#clip0_41_2347)">
<g clip-path="url(#clip1_41_2347)">
<path d="M1 9.0002C1 7.89563 1.89543 7.0002 3 7.0002H45C46.1046 7.0002 47 7.89563 47 9.0002V39.0002C47 43.9708 42.9706 48.0002 38 48.0002H10C5.02944 48.0002 1 43.9708 1 39.0002V9.0002Z" fill="url(#paint0_linear_41_2347)"/>
<mask id="mask0_41_2347" style="mask-type:alpha" maskUnits="userSpaceOnUse" x="1" y="7" width="46" height="42">
<path d="M1 9.0002C1 7.89563 1.89543 7.0002 3 7.0002H45C46.1046 7.0002 47 7.89563 47 9.0002V39.0002C47 43.9708 42.9706 48.0002 38 48.0002H10C5.02944 48.0002 1 43.9708 1 39.0002V9.0002Z" fill="url(#paint1_linear_41_2347)"/>
</mask>
<g mask="url(#mask0_41_2347)">
<g filter="url(#filter0_dd_41_2347)">
<path d="M12 9.0002V2.0002H36V9.0002" stroke="url(#paint2_linear_41_2347)" stroke-width="4" stroke-linecap="round"/>
</g>
</g>
<g filter="url(#filter1_dd_41_2347)">
<path d="M23 17.0002H14V26.0002H23V17.0002Z" fill="#F25022"/>
<path d="M34 17.0002H25V26.0002H34V17.0002Z" fill="#7FBA00"/>
<path d="M34 28.0002H25V37.0002H34V28.0002Z" fill="#FFB900"/>
<path d="M23 28.0002H14V37.0002H23V28.0002Z" fill="#00A4EF"/>
</g>
<path d="M12 9.0002V4.0002C12 2.89563 12.8954 2.0002 14 2.0002H34C35.1046 2.0002 36 2.89563 36 4.0002V9.0002" stroke="url(#paint3_linear_41_2347)" stroke-width="4" stroke-linecap="round"/>
<rect x="14" y="0.000198364" width="20" height="4" fill="url(#paint4_linear_41_2347)"/>
<mask id="mask1_41_2347" style="mask-type:alpha" maskUnits="userSpaceOnUse" x="14" y="0" width="20" height="5">
<rect x="14" y="0.000198364" width="20" height="4" fill="url(#paint5_linear_41_2347)"/>
</mask>
<g mask="url(#mask1_41_2347)">
<g filter="url(#filter2_dd_41_2347)">
</g>
</g>
</g>
</g>
<defs>
<filter id="filter0_dd_41_2347" x="7" y="-1.9998" width="34" height="17" filterUnits="userSpaceOnUse" color-interpolation-filters="sRGB">
<feFlood flood-opacity="0" result="BackgroundImageFix"/>
<feColorMatrix in="SourceAlpha" type="matrix" values="0 0 0 0 0 0 0 0 0 0 0 0 0 0 0 0 0 0 127 0" result="hardAlpha"/>
<feOffset dy="0.5"/>
<feGaussianBlur stdDeviation="0.5"/>
<feColorMatrix type="matrix" values="0 0 0 0 0 0 0 0 0 0 0 0 0 0 0 0 0 0 0.1 0"/>
<feBlend mode="normal" in2="BackgroundImageFix" result="effect1_dropShadow_41_2347"/>
<feColorMatrix in="SourceAlpha" type="matrix" values="0 0 0 0 0 0 0 0 0 0 0 0 0 0 0 0 0 0 127 0" result="hardAlpha"/>
<feOffset dy="1"/>
<feGaussianBlur stdDeviation="1.5"/>
<feColorMatrix type="matrix" values="0 0 0 0 0 0 0 0 0 0 0 0 0 0 0 0 0 0 0.2 0"/>
<feBlend mode="normal" in2="effect1_dropShadow_41_2347" result="effect2_dropShadow_41_2347"/>
<feBlend mode="normal" in="SourceGraphic" in2="effect2_dropShadow_41_2347" result="shape"/>
</filter>
<filter id="filter1_dd_41_2347" x="11" y="14.0002" width="26" height="26" filterUnits="userSpaceOnUse" color-interpolation-filters="sRGB">
<feFlood flood-opacity="0" result="BackgroundImageFix"/>
<feColorMatrix in="SourceAlpha" type="matrix" values="0 0 0 0 0 0 0 0 0 0 0 0 0 0 0 0 0 0 127 0" result="hardAlpha"/>
<feOffset/>
<feGaussianBlur stdDeviation="0.5"/>
<feColorMatrix type="matrix" values="0 0 0 0 0 0 0 0 0 0 0 0 0 0 0 0 0 0 0.1 0"/>
<feBlend mode="normal" in2="BackgroundImageFix" result="effect1_dropShadow_41_2347"/>
<feColorMatrix in="SourceAlpha" type="matrix" values="0 0 0 0 0 0 0 0 0 0 0 0 0 0 0 0 0 0 127 0" result="hardAlpha"/>
<feOffset/>
<feGaussianBlur stdDeviation="1.5"/>
<feColorMatrix type="matrix" values="0 0 0 0 0 0 0 0 0 0 0 0 0 0 0 0 0 0 0.2 0"/>
<feBlend mode="normal" in2="effect1_dropShadow_41_2347" result="effect2_dropShadow_41_2347"/>
<feBlend mode="normal" in="SourceGraphic" in2="effect2_dropShadow_41_2347" result="shape"/>
</filter>
<filter id="filter2_dd_41_2347" x="7" y="-4.9998" width="34" height="16" filterUnits="userSpaceOnUse" color-interpolation-filters="sRGB">
<feFlood flood-opacity="0" result="BackgroundImageFix"/>
<feColorMatrix in="SourceAlpha" type="matrix" values="0 0 0 0 0 0 0 0 0 0 0 0 0 0 0 0 0 0 127 0" result="hardAlpha"/>
<feOffset dy="-2"/>
<feGaussianBlur stdDeviation="0.5"/>
<feColorMatrix type="matrix" values="0 0 0 0 0 0 0 0 0 0 0 0 0 0 0 0 0 0 0.1 0"/>
<feBlend mode="normal" in2="BackgroundImageFix" result="effect1_dropShadow_41_2347"/>
<feColorMatrix in="SourceAlpha" type="matrix" values="0 0 0 0 0 0 0 0 0 0 0 0 0 0 0 0 0 0 127 0" result="hardAlpha"/>
<feOffset dy="-2"/>
<feGaussianBlur stdDeviation="1.5"/>
<feColorMatrix type="matrix" values="0 0 0 0 0 0 0 0 0 0 0 0 0 0 0 0 0 0 0.2 0"/>
<feBlend mode="normal" in2="effect1_dropShadow_41_2347" result="effect2_dropShadow_41_2347"/>
<feBlend mode="normal" in="SourceGraphic" in2="effect2_dropShadow_41_2347" result="shape"/>
</filter>
<linearGradient id="paint0_linear_41_2347" x1="24" y1="7.0002" x2="33.2398" y2="49.3303" gradientUnits="userSpaceOnUse">
<stop stop-color="#0669BC"/>
<stop offset="1" stop-color="#243A5F"/>
</linearGradient>
<linearGradient id="paint1_linear_41_2347" x1="24" y1="7.0002" x2="33.2398" y2="49.3303" gradientUnits="userSpaceOnUse">
<stop stop-color="#0078D4"/>
<stop offset="1" stop-color="#114A8B"/>
</linearGradient>
<linearGradient id="paint2_linear_41_2347" x1="24" y1="2.0002" x2="24.5381" y2="9.53319" gradientUnits="userSpaceOnUse">
<stop stop-color="#28AFEA"/>
<stop offset="1" stop-color="#0078D4"/>
</linearGradient>
<linearGradient id="paint3_linear_41_2347" x1="24" y1="2.0002" x2="24.3959" y2="8.46576" gradientUnits="userSpaceOnUse">
<stop stop-color="#30DAFF"/>
<stop offset="1" stop-color="#0094D4"/>
</linearGradient>
<linearGradient id="paint4_linear_41_2347" x1="22.8889" y1="0.000198469" x2="22.8889" y2="4.0002" gradientUnits="userSpaceOnUse">
<stop stop-color="#22BCFF"/>
<stop offset="1" stop-color="#0088F0"/>
</linearGradient>
<linearGradient id="paint5_linear_41_2347" x1="22.8889" y1="0.000198469" x2="22.8889" y2="4.0002" gradientUnits="userSpaceOnUse">
<stop stop-color="#28AFEA"/>
<stop offset="1" stop-color="#3CCBF4"/>
</linearGradient>
<clipPath id="clip0_41_2347">
<rect width="48" height="48" fill="white"/>
</clipPath>
<clipPath id="clip1_41_2347">
<rect width="48" height="48" fill="white"/>
</clipPath>
</defs>
</svg>
