<svg width="24" height="24" viewBox="0 0 24 24" fill="none" xmlns="http://www.w3.org/2000/svg">
<g filter="url(#filter0_i_7180_30212)">
<path d="M1 7.1001H17C17.6 7.1001 18 7.5001 18 8.1001V22.1001C18 22.7001 17.6 23.1001 17 23.1001H1C0.4 23.1001 0 22.7001 0 22.1001V8.1001C0 7.5001 0.4 7.1001 1 7.1001Z" fill="url(#paint0_linear_7180_30212)"/>
</g>
<g filter="url(#filter1_i_7180_30212)">
<path d="M7 1.1001H23C23.6 1.1001 24 1.5001 24 2.1001V16.1001C24 16.7001 23.6 17.1001 23 17.1001H7C6.4 17.1001 6 16.7001 6 16.1001V2.1001C6 1.5001 6.4 1.1001 7 1.1001Z" fill="url(#paint1_linear_7180_30212)"/>
</g>
<mask id="mask0_7180_30212" style="mask-type:alpha" maskUnits="userSpaceOnUse" x="6" y="1" width="18" height="17">
<path d="M7 1.1001H23C23.6 1.1001 24 1.5001 24 2.1001V16.1001C24 16.7001 23.6 17.1001 23 17.1001H7C6.4 17.1001 6 16.7001 6 16.1001V2.1001C6 1.5001 6.4 1.1001 7 1.1001Z" fill="url(#paint2_linear_7180_30212)"/>
</mask>
<g mask="url(#mask0_7180_30212)">
<path opacity="0.25" d="M1 7H17C17.6 7 18 7.4 18 8V22C18 22.6 17.6 23 17 23H1C0.4 23 0 22.6 0 22V8C0 7.4 0.4 7 1 7Z" fill="url(#paint3_linear_7180_30212)"/>
</g>
<defs>
<filter id="filter0_i_7180_30212" x="0" y="6.6001" width="18" height="16.5" filterUnits="userSpaceOnUse" color-interpolation-filters="sRGB">
<feFlood flood-opacity="0" result="BackgroundImageFix"/>
<feBlend mode="normal" in="SourceGraphic" in2="BackgroundImageFix" result="shape"/>
<feColorMatrix in="SourceAlpha" type="matrix" values="0 0 0 0 0 0 0 0 0 0 0 0 0 0 0 0 0 0 127 0" result="hardAlpha"/>
<feOffset dy="-0.5"/>
<feGaussianBlur stdDeviation="0.375"/>
<feComposite in2="hardAlpha" operator="arithmetic" k2="-1" k3="1"/>
<feColorMatrix type="matrix" values="0 0 0 0 0 0 0 0 0 0 0 0 0 0 0 0 0 0 0.25 0"/>
<feBlend mode="normal" in2="shape" result="effect1_innerShadow_7180_30212"/>
</filter>
<filter id="filter1_i_7180_30212" x="6" y="0.600098" width="18" height="16.5" filterUnits="userSpaceOnUse" color-interpolation-filters="sRGB">
<feFlood flood-opacity="0" result="BackgroundImageFix"/>
<feBlend mode="normal" in="SourceGraphic" in2="BackgroundImageFix" result="shape"/>
<feColorMatrix in="SourceAlpha" type="matrix" values="0 0 0 0 0 0 0 0 0 0 0 0 0 0 0 0 0 0 127 0" result="hardAlpha"/>
<feOffset dy="-0.5"/>
<feGaussianBlur stdDeviation="0.375"/>
<feComposite in2="hardAlpha" operator="arithmetic" k2="-1" k3="1"/>
<feColorMatrix type="matrix" values="0 0 0 0 0 0 0 0 0 0 0 0 0 0 0 0 0 0 0.19 0"/>
<feBlend mode="normal" in2="shape" result="effect1_innerShadow_7180_30212"/>
</filter>
<linearGradient id="paint0_linear_7180_30212" x1="13.7148" y1="23.1001" x2="4.73873" y2="6.53874" gradientUnits="userSpaceOnUse">
<stop stop-color="#201F1F"/>
<stop offset="1" stop-color="#484644"/>
</linearGradient>
<linearGradient id="paint1_linear_7180_30212" x1="19.5008" y1="16.0295" x2="11.9946" y2="1.40332" gradientUnits="userSpaceOnUse">
<stop stop-color="#D5D8DD"/>
<stop offset="1" stop-color="white"/>
</linearGradient>
<linearGradient id="paint2_linear_7180_30212" x1="19.6755" y1="17.1582" x2="10.0661" y2="0.514398" gradientUnits="userSpaceOnUse">
<stop stop-color="#E6E6E6"/>
<stop offset="1" stop-color="white"/>
</linearGradient>
<linearGradient id="paint3_linear_7180_30212" x1="13.7148" y1="23" x2="4.73873" y2="6.43864" gradientUnits="userSpaceOnUse">
<stop stop-color="#201F1F"/>
<stop offset="1" stop-color="#484644"/>
</linearGradient>
</defs>
</svg>
