<svg width="24" height="24" viewBox="0 0 24 24" fill="none" xmlns="http://www.w3.org/2000/svg">
<g clip-path="url(#clip0_6317_5208)">
<path opacity="0.1" d="M8 10.12V17.5C8.00024 18.3696 8.20763 19.2265 8.605 20H13.605C13.9604 19.9767 14.2959 19.8277 14.5515 19.5796C14.8071 19.3315 14.9661 19.0006 15 18.646V9.021L14.719 9H9.12C8.82296 9 8.53808 9.118 8.32804 9.32804C8.118 9.53808 8 9.82296 8 10.12Z" fill="black"/>
<path opacity="0.1" d="M13.833 6H10.857C10.9817 6.41705 11.1891 6.80473 11.4668 7.1399C11.7446 7.47507 12.087 7.75087 12.4736 7.95086C12.8603 8.15085 13.2832 8.27093 13.7173 8.30394C14.1513 8.33696 14.5876 8.28222 15 8.143V7.167C14.9992 6.85774 14.876 6.56136 14.6573 6.34268C14.4386 6.124 14.1423 6.00079 13.833 6V6Z" fill="black"/>
<path d="M22.873 9H17.88L16.486 10.127V15.716C16.486 16.7124 16.8818 17.668 17.5864 18.3726C18.291 19.0772 19.2466 19.473 20.243 19.473C21.2394 19.473 22.195 19.0772 22.8996 18.3726C23.6042 17.668 24 16.7124 24 15.716V10.127C23.9998 9.82818 23.8809 9.54168 23.6696 9.33038C23.4583 9.11909 23.1718 9.00026 22.873 9V9Z" fill="#5059C9"/>
<path d="M20.5 8C21.8807 8 23 6.88071 23 5.5C23 4.11929 21.8807 3 20.5 3C19.1193 3 18 4.11929 18 5.5C18 6.88071 19.1193 8 20.5 8Z" fill="#5059C9"/>
<path d="M9.12 9H17.88C18.177 9 18.4619 9.118 18.672 9.32804C18.882 9.53808 19 9.82296 19 10.12V17.5C19 18.9587 18.4205 20.3576 17.3891 21.3891C16.3576 22.4205 14.9587 23 13.5 23V23C12.0413 23 10.6424 22.4205 9.61091 21.3891C8.57946 20.3576 8 18.9587 8 17.5V10.12C8 9.82296 8.118 9.53808 8.32804 9.32804C8.53808 9.118 8.82296 9 9.12 9V9Z" fill="#7B83EB"/>
<path d="M14 8.31301C15.8297 8.31301 17.313 6.82973 17.313 5.00001C17.313 3.17029 15.8297 1.68701 14 1.68701C12.1703 1.68701 10.687 3.17029 10.687 5.00001C10.687 6.82973 12.1703 8.31301 14 8.31301Z" fill="#7B83EB"/>
<path opacity="0.5" d="M8 10.12V17.5C8.00024 18.3696 8.20763 19.2265 8.605 20H13.605C13.9604 19.9767 14.2959 19.8277 14.5515 19.5796C14.8071 19.3315 14.9661 19.0006 15 18.646V9.021L14.719 9H9.12C8.82296 9 8.53808 9.118 8.32804 9.32804C8.118 9.53808 8 9.82296 8 10.12Z" fill="black"/>
<path opacity="0.5" d="M13.833 6H10.857C10.9817 6.41705 11.1891 6.80473 11.4668 7.1399C11.7446 7.47507 12.087 7.75087 12.4736 7.95086C12.8603 8.15085 13.2832 8.27093 13.7173 8.30394C14.1513 8.33696 14.5876 8.28222 15 8.143V7.167C14.9992 6.85774 14.876 6.56136 14.6573 6.34268C14.4386 6.124 14.1423 6.00079 13.833 6V6Z" fill="black"/>
<path d="M12.833 5H1.167C0.522484 5 0 5.52248 0 6.167V17.833C0 18.4775 0.522484 19 1.167 19H12.833C13.4775 19 14 18.4775 14 17.833V6.167C14 5.52248 13.4775 5 12.833 5Z" fill="#4B53BC"/>
<path d="M10.181 9.578H7.79202V16H6.22202V9.578H3.82202V8H10.184L10.181 9.578Z" fill="white"/>
</g>
<defs>
<clipPath id="clip0_6317_5208">
<rect width="24" height="24" fill="white"/>
</clipPath>
</defs>
</svg>
