<svg width="24" height="24" viewBox="0 0 24 24" fill="none" xmlns="http://www.w3.org/2000/svg">
<g clip-path="url(#clip0_6_385)">
<path d="M24 7V2C24 1.73478 23.8946 1.48043 23.7071 1.29289C23.5196 1.10536 23.2652 1 23 1H7C6.73478 1 6.48043 1.10536 6.29289 1.29289C6.10536 1.48043 6 1.73478 6 2V7L15 9L24 7Z" fill="#41A5EE"/>
<path d="M24 7H6V12L15.5 14L24 12V7Z" fill="#2B7CD3"/>
<path d="M24 12H6V17L15 18.5L24 17V12Z" fill="#185ABD"/>
<path d="M6 17H24V21.958C24 22.2232 23.8946 22.4776 23.7071 22.6651C23.5196 22.8526 23.2652 22.958 23 22.958H7C6.73478 22.958 6.48043 22.8526 6.29289 22.6651C6.10536 22.4776 6 22.2232 6 21.958V17Z" fill="#103F91"/>
<path opacity="0.5" d="M13.833 6H6V20H13.6C13.9563 19.9778 14.293 19.8293 14.5496 19.5811C14.8063 19.3329 14.9659 19.0014 15 18.646V7.167C14.9992 6.85774 14.876 6.56136 14.6573 6.34268C14.4386 6.124 14.1423 6.00079 13.833 6V6Z" fill="black"/>
<path d="M12.833 5H1.167C0.522484 5 0 5.52248 0 6.167V17.833C0 18.4775 0.522484 19 1.167 19H12.833C13.4775 19 14 18.4775 14 17.833V6.167C14 5.52248 13.4775 5 12.833 5Z" fill="#185ABD"/>
<path d="M10.16 16H8.71999L7.03999 10.48L5.27999 16H3.83999L2.23999 8H3.67999L4.79999 13.6L6.47999 8.16H7.67999L9.27999 13.6L10.4 8H11.76L10.16 16Z" fill="white"/>
</g>
<defs>
<clipPath id="clip0_6_385">
<rect width="24" height="24" fill="white"/>
</clipPath>
</defs>
</svg>
