<svg width="32" height="32" viewBox="0 0 32 32" fill="none" xmlns="http://www.w3.org/2000/svg">
<rect x="9" y="3" width="21" height="26" rx="3.25" fill="#41A5EE"/>
<path d="M9 10H30V16H9V10Z" fill="#2B7CD3"/>
<path d="M9 16H30V22H9V16Z" fill="#185ABD"/>
<path d="M9 22H30V25.75C30 27.5449 28.5449 29 26.75 29H12.25C10.4551 29 9 27.5449 9 25.75V22Z" fill="#103F91"/>
<mask id="mask0_6331_10867" style="mask-type:alpha" maskUnits="userSpaceOnUse" x="9" y="3" width="21" height="26">
<rect x="9" y="3" width="21" height="26" rx="3.25" fill="#41A5EE"/>
</mask>
<g mask="url(#mask0_6331_10867)">
<g filter="url(#filter0_f_6331_10867)">
<rect x="2" y="11" width="14" height="13" rx="1.5" fill="#242424"/>
</g>
</g>
<rect x="2" y="9" width="14" height="14" rx="1.5" fill="url(#paint0_linear_6331_10867)"/>
<path d="M14.4149 12.0039L12.229 20.0001H10.6788L9.19557 14.5132C9.16211 14.3831 9.13423 14.2474 9.11192 14.1061C9.08962 13.9611 9.07475 13.8106 9.06731 13.6545H9.04501C9.03014 13.8143 9.00969 13.9649 8.98367 14.1061C8.96137 14.2474 8.93349 14.3812 8.90003 14.5076L7.38889 20.0001H5.81083L3.58594 12.0039H5.08593L6.4967 17.7362C6.53016 17.8552 6.55618 17.9871 6.57477 18.1321C6.59335 18.2734 6.60822 18.4277 6.61937 18.5949H6.64726C6.65841 18.4723 6.677 18.3384 6.70302 18.1935C6.73276 18.0485 6.76993 17.8923 6.81454 17.7251L8.42605 12.0039H9.83683L11.3424 17.7808C11.3684 17.8812 11.3926 17.9983 11.4149 18.1321C11.4372 18.2659 11.4558 18.4165 11.4706 18.5838H11.4929C11.5004 18.4611 11.5153 18.331 11.5376 18.1935C11.5636 18.0559 11.5933 17.9091 11.6268 17.7529L12.9985 12.0039H14.4149Z" fill="white"/>
<defs>
<filter id="filter0_f_6331_10867" x="-1" y="8" width="20" height="19" filterUnits="userSpaceOnUse" color-interpolation-filters="sRGB">
<feFlood flood-opacity="0" result="BackgroundImageFix"/>
<feBlend mode="normal" in="SourceGraphic" in2="BackgroundImageFix" result="shape"/>
<feGaussianBlur stdDeviation="1.5" result="effect1_foregroundBlur_6331_10867"/>
</filter>
<linearGradient id="paint0_linear_6331_10867" x1="4.4325" y1="8.09" x2="13.5675" y2="23.91" gradientUnits="userSpaceOnUse">
<stop stop-color="#2368C4"/>
<stop offset="0.5" stop-color="#1A5DBE"/>
<stop offset="1" stop-color="#1146AC"/>
</linearGradient>
</defs>
</svg>
