<svg width="118" height="26" viewBox="0 0 118 26" fill="none" xmlns="http://www.w3.org/2000/svg">
<path d="M48.768 5.00854V20.0185H46.1621V8.25235H46.1204L41.4611 20.0185H39.7339L34.9609 8.25235H34.9297V20.0185H32.5219V5.00854H36.2587L40.5719 16.1357H40.6345L45.1875 5.00854H48.768ZM50.9476 6.15513C50.9436 5.95742 50.9823 5.76119 51.0609 5.57972C51.1395 5.39825 51.2562 5.23579 51.4031 5.1034C51.6945 4.82552 52.0835 4.6732 52.4861 4.67918C52.6909 4.6727 52.8949 4.70787 53.0857 4.78259C53.2765 4.85731 53.4502 4.97 53.5962 5.11383C53.7374 5.24791 53.8492 5.40971 53.9249 5.58907C54.0006 5.76844 54.0385 5.96151 54.0361 6.15618C54.04 6.35111 54.0018 6.54458 53.924 6.72339C53.8463 6.9022 53.731 7.06213 53.5858 7.19227C53.2879 7.46984 52.8931 7.61956 52.4861 7.60924C52.2849 7.61425 52.0846 7.57934 51.8969 7.50653C51.7092 7.43371 51.5379 7.32442 51.3927 7.18499C51.2498 7.0544 51.1362 6.89499 51.0595 6.71728C50.9828 6.53958 50.9446 6.34762 50.9476 6.15409V6.15513ZM53.7421 20.0237H51.2092V9.2572H53.7421V20.0237ZM61.4253 18.1808C61.8548 18.1715 62.2789 18.0828 62.6762 17.9192C63.1227 17.7474 63.5435 17.5152 63.9269 17.2291V19.5838C63.4962 19.8238 63.0327 19.9994 62.551 20.105C61.996 20.2283 61.4289 20.2882 60.8604 20.2832C60.1502 20.3159 59.4409 20.2003 58.7779 19.9438C58.1149 19.6872 57.5125 19.2954 57.0093 18.7932C56.506 18.291 56.1129 17.6895 55.8549 17.027C55.597 16.3645 55.4798 15.6556 55.511 14.9453C55.453 13.3791 55.9963 11.8501 57.0297 10.6717C57.5819 10.0963 58.2527 9.64794 58.9955 9.35778C59.7384 9.06763 60.5355 8.94261 61.3315 8.99139C61.817 8.99302 62.3005 9.05463 62.771 9.17484C63.1729 9.26592 63.5615 9.40852 63.9269 9.59909V12.0278C63.5589 11.7535 63.1558 11.5298 62.7283 11.3627C62.3296 11.2071 61.9054 11.1272 61.4774 11.1272C61.0284 11.1089 60.5806 11.1863 60.1637 11.3541C59.7468 11.522 59.3703 11.7765 59.0592 12.1007C58.4181 12.8213 58.0871 13.7655 58.1377 14.7285C58.1099 15.1899 58.1738 15.6522 58.3257 16.0887C58.4776 16.5253 58.7145 16.9274 59.0227 17.2719C59.3378 17.581 59.7134 17.8214 60.1261 17.978C60.5387 18.1346 60.9793 18.204 61.4201 18.1818L61.4253 18.1808ZM71.1338 9.08625C71.3164 9.0845 71.4988 9.09846 71.679 9.12795C71.8177 9.15031 71.9541 9.18517 72.0865 9.23216V11.7974C71.9074 11.6771 71.7118 11.5834 71.5059 11.5191C71.2061 11.4257 70.8932 11.3817 70.5793 11.3888C70.2738 11.3883 69.9724 11.4589 69.699 11.5952C69.4256 11.7314 69.1878 11.9295 69.0043 12.1737C68.5205 12.8829 68.2932 13.736 68.3601 14.592V20.0185H65.8272V9.2572H68.3601V10.95H68.4018C68.6067 10.3975 68.9713 9.91853 69.4494 9.57406C69.9441 9.23421 70.5338 9.06013 71.1338 9.07687V9.08625ZM72.2241 14.7921C72.1833 14.0226 72.2955 13.2526 72.5542 12.5267C72.813 11.8009 73.213 11.1335 73.7313 10.5633C74.2827 10.0266 74.9397 9.6105 75.6606 9.34134C76.3814 9.07217 77.1503 8.95583 77.9185 8.99973C78.6442 8.95851 79.3703 9.07101 80.0495 9.32985C80.7286 9.58869 81.3455 9.98804 81.8597 10.5018C82.7927 11.6737 83.2932 13.1314 83.2769 14.6293C83.2605 16.1271 82.7284 17.5736 81.77 18.7249C81.2304 19.2527 80.5872 19.6629 79.881 19.9295C79.1748 20.1961 78.4211 20.3133 77.6673 20.2739C76.94 20.3111 76.2127 20.2 75.5298 19.9471C74.8468 19.6942 74.2225 19.305 73.6949 18.8031C73.1904 18.2686 72.7999 17.6372 72.5471 16.9471C72.2942 16.2571 72.1843 15.5228 72.2241 14.789V14.7921ZM74.8612 14.7056C74.7984 15.6279 75.07 16.5419 75.6263 17.2802C75.901 17.5832 76.2404 17.8205 76.6194 17.9745C76.9983 18.1284 77.4071 18.195 77.8153 18.1693C78.2111 18.1949 78.6073 18.1278 78.9726 17.9735C79.338 17.8191 79.6623 17.5817 79.9198 17.2802C80.4544 16.5089 80.7093 15.578 80.6422 14.642C80.7096 13.7072 80.4445 12.7788 79.8937 12.0205C79.6341 11.7234 79.3103 11.4892 78.9467 11.3359C78.5832 11.1826 78.1895 11.1141 77.7955 11.1355C77.388 11.1134 76.9809 11.1855 76.6058 11.3462C76.2307 11.5069 75.8977 11.7519 75.6326 12.0622C75.0741 12.8258 74.8018 13.7615 74.8633 14.7056H74.8612ZM87.0485 12.0778C87.04 12.2367 87.0665 12.3955 87.1262 12.543C87.1858 12.6905 87.277 12.8231 87.3935 12.9315C87.8624 13.2638 88.3771 13.5262 88.9216 13.7101C89.7336 13.983 90.4656 14.4524 91.0522 15.0767C91.4653 15.5981 91.6819 16.2483 91.6641 16.9133C91.6779 17.3835 91.5791 17.8501 91.3761 18.2744C91.173 18.6987 90.8714 19.0683 90.4966 19.3524C89.5805 20.01 88.4674 20.335 87.3414 20.2739C86.8435 20.2684 86.3474 20.2139 85.8602 20.1112C85.3873 20.0232 84.9255 19.8834 84.4832 19.6943V17.2041C84.9421 17.5243 85.4421 17.7809 85.9697 17.9671C86.4317 18.1429 86.9202 18.2388 87.4144 18.2506C87.8501 18.2792 88.286 18.1963 88.6808 18.0099C88.8169 17.9266 88.9271 17.8072 88.9993 17.6649C89.0714 17.5226 89.1026 17.3631 89.0894 17.2041C89.0905 17.0341 89.0529 16.866 88.9794 16.7127C88.9059 16.5594 88.7984 16.4248 88.6652 16.3191C88.1729 15.9651 87.6318 15.6842 87.0589 15.4853C86.2985 15.2138 85.6157 14.7608 85.0701 14.1656C84.664 13.6318 84.4565 12.9732 84.4832 12.303C84.475 11.8414 84.5755 11.3844 84.7765 10.9689C84.9775 10.5533 85.2733 10.1908 85.6402 9.91074C86.4993 9.25684 87.5605 8.92489 88.6391 8.97262C89.0642 8.97716 89.488 9.01937 89.9056 9.09875C90.3071 9.16378 90.7003 9.27249 91.0783 9.42293V11.8308C90.7119 11.5922 90.3182 11.3987 89.9056 11.2543C89.4799 11.0977 89.0302 11.0162 88.5766 11.0136C88.1813 10.991 87.7886 11.0895 87.4508 11.296C87.3232 11.3803 87.2192 11.4957 87.1488 11.6314C87.0784 11.7672 87.0438 11.9187 87.0485 12.0715V12.0778ZM92.7522 14.7817C92.7115 14.0122 92.8237 13.2422 93.0824 12.5163C93.3411 11.7905 93.7412 11.1231 94.2595 10.5528C94.8109 10.0162 95.4679 9.60007 96.1887 9.3309C96.9095 9.06174 97.6784 8.94539 98.4466 8.98929C99.1723 8.94801 99.8985 9.06048 100.578 9.31932C101.257 9.57817 101.874 9.97756 102.388 10.4913C103.321 11.663 103.822 13.1207 103.806 14.6187C103.79 16.1167 103.258 17.5633 102.299 18.7145C101.759 19.2423 101.116 19.6525 100.41 19.9191C99.7034 20.1857 98.9494 20.3029 98.1955 20.2634C97.4682 20.3006 96.7409 20.1894 96.058 19.9365C95.3751 19.6837 94.7507 19.2945 94.223 18.7926C93.7185 18.2582 93.328 17.6268 93.0752 16.9367C92.8223 16.2467 92.7124 15.5124 92.7522 14.7786V14.7817ZM95.3904 14.6951C95.3273 15.6173 95.5986 16.5313 96.1545 17.2698C96.4293 17.5727 96.7687 17.8099 97.1476 17.9638C97.5266 18.1177 97.9352 18.1844 98.3434 18.1589C98.739 18.1844 99.1352 18.1173 99.5003 17.963C99.8655 17.8087 100.19 17.5713 100.447 17.2698C100.981 16.4984 101.236 15.5676 101.169 14.6316C101.237 13.6968 100.972 12.7681 100.421 12.01C100.161 11.7129 99.8374 11.4788 99.4738 11.3255C99.1103 11.1722 98.7166 11.1036 98.3226 11.1251C97.9153 11.1028 97.5083 11.1749 97.1333 11.3356C96.7584 11.4963 96.4255 11.7414 96.1608 12.0518C95.6022 12.8154 95.3299 13.7511 95.3915 14.6951H95.3904ZM112.211 11.3138H108.439V20.0185H105.874V11.3304H104.073V9.2572H105.874V7.76037C105.857 7.24605 105.945 6.73361 106.135 6.25534C106.325 5.77706 106.612 5.34331 106.978 4.98144C107.353 4.61973 107.797 4.33741 108.284 4.15132C108.771 3.96523 109.29 3.8792 109.81 3.89843C110.083 3.89643 110.356 3.91211 110.627 3.94535C110.839 3.97175 111.049 4.01922 111.252 4.08709V6.27605C111.111 6.2043 110.964 6.14502 110.813 6.09886C110.58 6.0256 110.336 5.9904 110.091 5.99462C109.862 5.98067 109.634 6.01807 109.421 6.10411C109.209 6.19015 109.019 6.32264 108.865 6.49181C108.551 6.91489 108.399 7.43684 108.437 7.96259V9.26031H112.209V6.84309L114.753 6.06861V9.26031H117.317V11.3336H114.753V16.3681C114.705 16.8636 114.833 17.3602 115.114 17.7712C115.263 17.9172 115.441 18.0292 115.637 18.0996C115.833 18.1699 116.042 18.1969 116.25 18.1787C116.431 18.1723 116.609 18.1371 116.779 18.0745C116.968 18.0124 117.148 17.9281 117.317 17.8233V19.9142C117.064 20.0362 116.794 20.1211 116.517 20.1665C116.153 20.2417 115.783 20.2801 115.412 20.2811C114.975 20.3143 114.536 20.2555 114.123 20.1085C113.71 19.9614 113.332 19.7294 113.015 19.4274C112.428 18.7054 112.141 17.7856 112.213 16.858L112.211 11.3138Z" fill="#737373"/>
<path d="M11.8891 0.000190735H1.19209e-05V11.8893H11.8891V0.000190735Z" fill="#F25022"/>
<path d="M25.0179 0.000190735H13.1288V11.8893H25.0179V0.000190735Z" fill="#7FBA00"/>
<path d="M11.8891 13.129H1.19209e-05V25.0181H11.8891V13.129Z" fill="#00A4EF"/>
<path d="M25.0179 13.129H13.1288V25.0181H25.0179V13.129Z" fill="#FFB900"/>
</svg>
