<svg xmlns="http://www.w3.org/2000/svg" viewBox="0 0 2048 2048">
  <path d="M251 1664q-50 0-95-20t-80-55-55-80-21-96V507q0-50 20-95t55-80 80-55 96-21h1546q50 0 95 20t80 55 55 80 21 96v906q0 50-20 95t-55 80-80 55-96 21H251zm1541-128q27 0 50-10t40-27 28-41 10-50V512q0-26-10-49t-27-41-41-28-50-10H256q-27 0-50 10t-40 27-28 41-10 50v896q0 27 10 50t27 41 40 27 51 10h1536zM320 672q0-40 28-68t68-28q40 0 68 28t28 68q0 40-28 68t-68 28q-40 0-68-28t-28-68zm384 0q0-40 28-68t68-28q40 0 68 28t28 68q0 40-28 68t-68 28q-40 0-68-28t-28-68zm384 0q0-40 28-68t68-28q40 0 68 28t28 68q0 40-28 68t-68 28q-40 0-68-28t-28-68zm384 0q0-40 28-68t68-28q40 0 68 28t28 68q0 40-28 68t-68 28q-40 0-68-28t-28-68zm-896 384q0-40 28-68t68-28q40 0 68 28t28 68q0 40-28 68t-68 28q-40 0-68-28t-28-68zm384 0q0-40 28-68t68-28q40 0 68 28t28 68q0 40-28 68t-68 28q-40 0-68-28t-28-68zm384 0q0-40 28-68t68-28q40 0 68 28t28 68q0 40-28 68t-68 28q-40 0-68-28t-28-68zm-896 352q-26 0-45-19t-19-45q0-26 19-45t45-19h1152q26 0 45 19t19 45q0 26-19 45t-45 19H448z" />
</svg>