<svg width="21" height="20" viewBox="0 0 21 20" fill="none" xmlns="http://www.w3.org/2000/svg">
<mask id="mask0_7416_12216" style="mask-type:alpha" maskUnits="userSpaceOnUse" x="-2" y="-2" width="25" height="24">
<path d="M14 0C15.2426 0 16.25 1.00736 16.25 2.25V17.75C16.25 18.9926 15.2426 20 14 20H6.5C5.25736 20 4.25 18.9926 4.25 17.75V2.25C4.25 1.00736 5.25736 0 6.5 0L14 0ZM14 1.5H6.5C6.08579 1.5 5.75 1.83579 5.75 2.25V17.75C5.75 18.1642 6.08579 18.5 6.5 18.5H14C14.4142 18.5 14.75 18.1642 14.75 17.75V2.25C14.75 1.83579 14.4142 1.5 14 1.5ZM11.4989 15.5C11.9131 15.4994 12.2494 15.8347 12.25 16.2489C12.2506 16.6631 11.9153 16.9994 11.5011 17L9.00113 17.0038C8.58692 17.0044 8.25062 16.6691 8.25 16.2549C8.24938 15.8407 8.58466 15.5044 8.99887 15.5038L11.4989 15.5Z" fill="#242424"/>
</mask>
<g mask="url(#mask0_7416_12216)">
<rect width="20" height="20" fill="#1D2230"/>
</g>
</svg>
