<svg xmlns="http://www.w3.org/2000/svg" viewBox="0 0 2048 2048">
  <path d="M422 1408H192q-39 0-74-15t-61-41-42-62-15-74V832q0-39 15-74t41-61 62-42 74-15h230l310-311q14-14 31-20t37-7q41 0 68 27t28 68v1254q0 20-7 37t-21 30-30 21-38 8q-40 0-68-28l-310-311zm862 185q0-16 5-26t17-22q110-108 170-236t60-285q0-157-60-285t-170-236q-11-11-16-21t-6-27q0-26 19-44t46-19q14 0 23 3t20 13q31 26 60 59t56 70 47 75 38 76q71 160 71 336t-71 336q-15 35-37 74t-48 77-56 71-60 58q-10 8-20 12t-23 4q-26 0-45-18t-20-45zm-516-20V474L493 749q-19 19-45 19H192q-26 0-45 19t-19 45v384q0 26 19 45t45 19h256q26 0 45 19l275 274zm268-224q0-13 3-22t12-19q48-66 74-133t27-151q0-83-26-150t-75-134q-8-10-11-19t-4-22q0-26 19-45t45-19q30 0 50 24 32 37 56 80t40 91 25 96 9 98q0 47-8 96t-25 97-41 92-56 80q-20 23-50 23-26 0-45-18t-19-45z" />
</svg>